Roman_opsz8.ufo
<glyph name="exclam" format="2">
  <advance width="295"/>
  <unicode hex="0021"/>
  <outline>
    <contour>
      <point x="148" y="191" type="curve" smooth="yes"/>
      <point x="162" y="191"/>
      <point x="163" y="197"/>
      <point x="164" y="213" type="curve" smooth="yes"/>
      <point x="176.987" y="362.517"/>
      <point x="189.974" y="512.034"/>
      <point x="203" y="662" type="curve"/>
      <point x="203" y="696"/>
      <point x="174" y="715"/>
      <point x="148" y="715" type="curve" smooth="yes"/>
      <point x="119" y="715"/>
      <point x="92" y="694"/>
      <point x="92" y="662" type="curve"/>
      <point x="104.987" y="512.816"/>
      <point x="117.974" y="363.632"/>
      <point x="131" y="214" type="curve"/>
      <point x="133" y="196"/>
      <point x="133" y="191"/>
    </contour>
    <contour>
      <point x="148" y="0" type="curve" smooth="yes"/>
      <point x="178" y="0"/>
      <point x="203" y="24"/>
      <point x="203" y="55" type="curve" smooth="yes"/>
      <point x="203" y="89"/>
      <point x="176" y="111"/>
      <point x="148" y="111" type="curve" smooth="yes"/>
      <point x="115" y="111"/>
      <point x="92" y="84"/>
      <point x="92" y="56" type="curve" smooth="yes"/>
      <point x="92" y="25"/>
      <point x="117" y="0"/>
    </contour>
  </outline>
</glyph>
<glyph name="numbersign" format="2">
  <advance width="885"/>
  <unicode hex="0023"/>
  <outline>
    <contour>
      <point x="200" y="-194" type="curve" smooth="yes"/>
      <point x="217" y="-194"/>
      <point x="220" y="-182"/>
      <point x="224" y="-169" type="curve" smooth="yes"/>
      <point x="307" y="121" type="line"/>
      <point x="501" y="121" type="line"/>
      <point x="475.026" y="30.090999999999994"/>
      <point x="449.052" y="-60.81800000000001"/>
      <point x="423" y="-152" type="curve" smooth="yes"/>
      <point x="420" y="-161"/>
      <point x="419" y="-168"/>
      <point x="419" y="-171" type="curve" smooth="yes"/>
      <point x="419" y="-184"/>
      <point x="429" y="-194"/>
      <point x="442" y="-194" type="curve" smooth="yes"/>
      <point x="459" y="-194"/>
      <point x="462" y="-182"/>
      <point x="466" y="-169" type="curve" smooth="yes"/>
      <point x="549" y="121" type="line"/>
      <point x="786" y="121" type="line" smooth="yes"/>
      <point x="801" y="121"/>
      <point x="825" y="121"/>
      <point x="825" y="144" type="curve" smooth="yes"/>
      <point x="825" y="167"/>
      <point x="805" y="167"/>
      <point x="790" y="167" type="curve" smooth="yes"/>
      <point x="563" y="167" type="line"/>
      <point x="611" y="333" type="line"/>
      <point x="790" y="333" type="line" smooth="yes"/>
      <point x="805" y="333"/>
      <point x="825" y="333"/>
      <point x="825" y="356" type="curve" smooth="yes"/>
      <point x="825" y="379"/>
      <point x="801" y="379"/>
      <point x="786" y="379" type="curve" smooth="yes"/>
      <point x="625" y="379" type="line"/>
      <point x="703" y="652" type="line" smooth="yes"/>
      <point x="706" y="661"/>
      <point x="707" y="668"/>
      <point x="707" y="671" type="curve" smooth="yes"/>
      <point x="707" y="684"/>
      <point x="697" y="694"/>
      <point x="684" y="694" type="curve" smooth="yes"/>
      <point x="667" y="694"/>
      <point x="664" y="682"/>
      <point x="660" y="669" type="curve" smooth="yes"/>
      <point x="577" y="379" type="line"/>
      <point x="383" y="379" type="line"/>
      <point x="461" y="652" type="line" smooth="yes"/>
      <point x="464" y="661"/>
      <point x="465" y="668"/>
      <point x="465" y="671" type="curve" smooth="yes"/>
      <point x="465" y="684"/>
      <point x="455" y="694"/>
      <point x="442" y="694" type="curve" smooth="yes"/>
      <point x="425" y="694"/>
      <point x="422" y="682"/>
      <point x="418" y="669" type="curve" smooth="yes"/>
      <point x="335" y="379" type="line"/>
      <point x="98" y="379" type="line" smooth="yes"/>
      <point x="83" y="379"/>
      <point x="59" y="379"/>
      <point x="59" y="356" type="curve" smooth="yes"/>
      <point x="59" y="333"/>
      <point x="79" y="333"/>
      <point x="94" y="333" type="curve" smooth="yes"/>
      <point x="321" y="333" type="line"/>
      <point x="273" y="167" type="line"/>
      <point x="94" y="167" type="line" smooth="yes"/>
      <point x="79" y="167"/>
      <point x="59" y="167"/>
      <point x="59" y="144" type="curve" smooth="yes"/>
      <point x="59" y="121"/>
      <point x="83" y="121"/>
      <point x="98" y="121" type="curve" smooth="yes"/>
      <point x="259" y="121" type="line"/>
      <point x="233.026" y="30.090999999999994"/>
      <point x="207.052" y="-60.81800000000001"/>
      <point x="181" y="-152" type="curve" smooth="yes"/>
      <point x="178" y="-161"/>
      <point x="177" y="-168"/>
      <point x="177" y="-171" type="curve" smooth="yes"/>
      <point x="177" y="-184"/>
      <point x="187" y="-194"/>
    </contour>
    <contour>
      <point x="321" y="167" type="line"/>
      <point x="369" y="333" type="line"/>
      <point x="563" y="333" type="line"/>
      <point x="515" y="167" type="line"/>
    </contour>
  </outline>
</glyph>
<glyph name="dollar" format="2">
  <advance width="531"/>
  <unicode hex="0024"/>
  <outline>
    <contour>
      <point x="249" y="-56" type="line"/>
      <point x="282" y="-56" type="line"/>
      <point x="282" y="-9" type="line"/>
      <point x="397" y="1"/>
      <point x="471" y="96"/>
      <point x="471" y="196" type="curve" smooth="yes"/>
      <point x="471" y="270"/>
      <point x="433" y="318"/>
      <point x="418" y="335" type="curve" smooth="yes"/>
      <point x="372" y="384"/>
      <point x="333" y="392"/>
      <point x="282" y="404" type="curve"/>
      <point x="282" y="670" type="line"/>
      <point x="347" y="668"/>
      <point x="413" y="640"/>
      <point x="434" y="570" type="curve"/>
      <point x="431" y="571"/>
      <point x="426" y="571"/>
      <point x="424" y="571" type="curve" smooth="yes"/>
      <point x="398" y="571"/>
      <point x="377" y="553"/>
      <point x="377" y="524" type="curve" smooth="yes"/>
      <point x="377" y="493"/>
      <point x="402" y="477"/>
      <point x="424" y="477" type="curve" smooth="yes"/>
      <point x="427" y="477"/>
      <point x="471" y="477"/>
      <point x="471" y="529" type="curve" smooth="yes"/>
      <point x="471" y="622"/>
      <point x="404" y="698"/>
      <point x="282" y="704" type="curve"/>
      <point x="282" y="750" type="line"/>
      <point x="249" y="750" type="line"/>
      <point x="249" y="703" type="line"/>
      <point x="130" y="694"/>
      <point x="59" y="602"/>
      <point x="59" y="512" type="curve" smooth="yes"/>
      <point x="59" y="474"/>
      <point x="70" y="425"/>
      <point x="115" y="381" type="curve" smooth="yes"/>
      <point x="158" y="338"/>
      <point x="197" y="329"/>
      <point x="249" y="318" type="curve"/>
      <point x="249" y="24" type="line"/>
      <point x="154" y="28"/>
      <point x="108" y="84"/>
      <point x="95" y="138" type="curve"/>
      <point x="99" y="137"/>
      <point x="103" y="137"/>
      <point x="106" y="137" type="curve" smooth="yes"/>
      <point x="134" y="137"/>
      <point x="153" y="157"/>
      <point x="153" y="184" type="curve" smooth="yes"/>
      <point x="153" y="217"/>
      <point x="126" y="231"/>
      <point x="106" y="231" type="curve" smooth="yes"/>
      <point x="103" y="231"/>
      <point x="59" y="231"/>
      <point x="59" y="179" type="curve" smooth="yes"/>
      <point x="59" y="80"/>
      <point x="126" y="-3"/>
      <point x="249" y="-10" type="curve"/>
    </contour>
    <contour>
      <point x="249" y="412" type="line"/>
      <point x="223" y="418"/>
      <point x="113" y="441"/>
      <point x="113" y="542" type="curve" smooth="yes"/>
      <point x="113" y="606"/>
      <point x="170" y="663"/>
      <point x="249" y="670" type="curve"/>
    </contour>
    <contour>
      <point x="282.0" y="119.238"/>
      <point x="282.0" y="214.476"/>
      <point x="282" y="310" type="curve"/>
      <point x="396" y="287"/>
      <point x="417" y="206"/>
      <point x="417" y="166" type="curve" smooth="yes"/>
      <point x="417" y="103"/>
      <point x="370" y="35"/>
      <point x="282" y="24" type="curve"/>
    </contour>
  </outline>
</glyph>
<glyph name="percent" format="2">
	<unicode hex="0025"/>
	<advance width="1770"/>
	<outline>
		<contour>
			<point x="1454" y="1412" type="line" smooth="yes"/>
			<point x="1472" y="1436"/>
			<point x="1472" y="1448"/>
			<point x="1472" y="1454" type="curve" smooth="yes"/>
			<point x="1472" y="1480"/>
			<point x="1452" y="1500"/>
			<point x="1426" y="1500" type="curve" smooth="yes"/>
			<point x="1404" y="1500"/>
			<point x="1394" y="1486"/>
			<point x="1382" y="1472" type="curve" smooth="yes"/>
			<point x="1294" y="1360"/>
			<point x="1166" y="1278"/>
			<point x="982" y="1278" type="curve" smooth="yes"/>
			<point x="906" y="1278"/>
			<point x="744" y="1296"/>
			<point x="586" y="1430" type="curve" smooth="yes"/>
			<point x="550" y="1462"/>
			<point x="506" y="1500"/>
			<point x="428" y="1500" type="curve" smooth="yes"/>
			<point x="266" y="1500"/>
			<point x="118" y="1330"/>
			<point x="118" y="1098" type="curve" smooth="yes"/>
			<point x="118" y="860"/>
			<point x="270" y="694"/>
			<point x="428" y="694" type="curve" smooth="yes"/>
			<point x="586" y="694"/>
			<point x="706" y="874"/>
			<point x="706" y="1096" type="curve" smooth="yes"/>
			<point x="706" y="1192"/>
			<point x="684" y="1266"/>
			<point x="668" y="1306" type="curve"/>
			<point x="820" y="1222"/>
			<point x="960" y="1222"/>
			<point x="984" y="1222" type="curve" smooth="yes"/>
			<point x="1032" y="1222"/>
			<point x="1146" y="1230"/>
			<point x="1244" y="1284" type="curve"/>
			<point x="1246" y="1282" type="line"/>
			<point x="318" y="-22" type="line" smooth="yes"/>
			<point x="296" y="-50"/>
			<point x="296" y="-54"/>
			<point x="296" y="-66" type="curve" smooth="yes"/>
			<point x="296" y="-92"/>
			<point x="316" y="-112"/>
			<point x="342" y="-112" type="curve" smooth="yes"/>
			<point x="360" y="-112"/>
			<point x="372" y="-104"/>
			<point x="388" y="-82" type="curve" smooth="yes"/>
		</contour>
		<contour>
			<point x="432" y="750" type="curve" smooth="yes"/>
			<point x="396" y="750"/>
			<point x="254" y="768"/>
			<point x="254" y="1096" type="curve" smooth="yes"/>
			<point x="254" y="1426"/>
			<point x="394" y="1444"/>
			<point x="432" y="1444" type="curve" smooth="yes"/>
			<point x="536" y="1444"/>
			<point x="644" y="1304"/>
			<point x="644" y="1098" type="curve" smooth="yes"/>
			<point x="644" y="886"/>
			<point x="534" y="750"/>
		</contour>
		<contour>
			<point x="1376" y="-56" type="curve" smooth="yes"/>
			<point x="1340" y="-56"/>
			<point x="1198" y="-38"/>
			<point x="1198" y="290" type="curve" smooth="yes"/>
			<point x="1198" y="620"/>
			<point x="1338" y="638"/>
			<point x="1376" y="638" type="curve" smooth="yes"/>
			<point x="1480" y="638"/>
			<point x="1588" y="498"/>
			<point x="1588" y="292" type="curve" smooth="yes"/>
			<point x="1588" y="80"/>
			<point x="1478" y="-56"/>
		</contour>
		<contour>
			<point x="1650" y="290" type="curve" smooth="yes"/>
			<point x="1650" y="520"/>
			<point x="1526" y="694"/>
			<point x="1372" y="694" type="curve" smooth="yes"/>
			<point x="1210" y="694"/>
			<point x="1062" y="524"/>
			<point x="1062" y="292" type="curve" smooth="yes"/>
			<point x="1062" y="54"/>
			<point x="1214" y="-112"/>
			<point x="1372" y="-112" type="curve" smooth="yes"/>
			<point x="1530" y="-112"/>
			<point x="1650" y="68"/>
		</contour>
	</outline>
</glyph>
<glyph name="parenleft" format="2">
	<unicode hex="0028"/>
	<advance width="826"/>
	<outline>
		<contour>
			<point x="206" y="500" type="curve" smooth="yes"/>
			<point x="206" y="126"/>
			<point x="338" y="-186"/>
			<point x="538" y="-392" type="curve" smooth="yes"/>
			<point x="578" y="-432"/>
			<point x="622" y="-468"/>
			<point x="666" y="-500" type="curve"/>
			<point x="682" y="-500"/>
			<point x="706" y="-500"/>
			<point x="706" y="-476" type="curve" smooth="yes"/>
			<point x="706" y="-468"/>
			<point x="704" y="-466"/>
			<point x="678" y="-440" type="curve" smooth="yes"/>
			<point x="404" y="-182"/>
			<point x="336" y="190"/>
			<point x="336" y="500" type="curve" smooth="yes"/>
			<point x="336" y="1076"/>
			<point x="574" y="1346"/>
			<point x="676" y="1438" type="curve" smooth="yes"/>
			<point x="704" y="1464"/>
			<point x="706" y="1466"/>
			<point x="706" y="1476" type="curve" smooth="yes"/>
			<point x="706" y="1486"/>
			<point x="698" y="1500"/>
			<point x="678" y="1500" type="curve" smooth="yes"/>
			<point x="646" y="1500"/>
			<point x="546" y="1398"/>
			<point x="530" y="1380" type="curve" smooth="yes"/>
			<point x="262" y="1100"/>
			<point x="206" y="740"/>
		</contour>
	</outline>
</glyph>
<glyph name="parenright" format="2">
	<unicode hex="0029"/>
	<advance width="413"/>
	<outline>
		<contour>
			<point x="309" y="250" type="curve" smooth="yes"/>
			<point x="309" y="345"/>
			<point x="293" y="459"/>
			<point x="231" y="577" type="curve" smooth="yes"/>
			<point x="182" y="669"/>
			<point x="91" y="750"/>
			<point x="73" y="750" type="curve" smooth="yes"/>
			<point x="63" y="750"/>
			<point x="60" y="743"/>
			<point x="60" y="738" type="curve" smooth="yes"/>
			<point x="60" y="734"/>
			<point x="60" y="732"/>
			<point x="72" y="720" type="curve" smooth="yes"/>
			<point x="212" y="587"/>
			<point x="244" y="404"/>
			<point x="244" y="250" type="curve" smooth="yes"/>
			<point x="244" y="-37"/>
			<point x="125" y="-173"/>
			<point x="74" y="-219" type="curve"/>
			<point x="61" y="-232"/>
			<point x="60" y="-233"/>
			<point x="60" y="-238" type="curve" smooth="yes"/>
			<point x="60" y="-243"/>
			<point x="63" y="-250"/>
			<point x="73" y="-250" type="curve" smooth="yes"/>
			<point x="89" y="-250"/>
			<point x="139" y="-199"/>
			<point x="147" y="-190" type="curve" smooth="yes"/>
			<point x="281" y="-50"/>
			<point x="309" y="130"/>
		</contour>
	</outline>
</glyph>
<glyph name="asterisk" format="2">
	<unicode hex="002A"/>
	<advance width="1062"/>
	<outline>
		<contour>
			<point x="530" y="638" type="curve" smooth="yes"/>
			<point x="584" y="638"/>
			<point x="592" y="682"/>
			<point x="588" y="716" type="curve" smooth="yes"/>
			<point x="578" y="817"/>
			<point x="568" y="918"/>
			<point x="558" y="1020" type="curve"/>
			<point x="816" y="840" type="line" smooth="yes"/>
			<point x="842" y="822"/>
			<point x="854" y="822"/>
			<point x="862" y="822" type="curve" smooth="yes"/>
			<point x="898" y="822"/>
			<point x="922" y="854"/>
			<point x="922" y="884" type="curve" smooth="yes"/>
			<point x="922" y="922"/>
			<point x="896" y="934"/>
			<point x="876" y="942" type="curve" smooth="yes"/>
			<point x="588" y="1068" type="line"/>
			<point x="876" y="1196" type="line" smooth="yes"/>
			<point x="896" y="1204"/>
			<point x="922" y="1216"/>
			<point x="922" y="1254" type="curve" smooth="yes"/>
			<point x="922" y="1284"/>
			<point x="898" y="1316"/>
			<point x="862" y="1316" type="curve" smooth="yes"/>
			<point x="848" y="1316"/>
			<point x="842" y="1314"/>
			<point x="818" y="1298" type="curve" smooth="yes"/>
			<point x="558" y="1118" type="line"/>
			<point x="568" y="1219"/>
			<point x="578" y="1319"/>
			<point x="588" y="1420" type="curve" smooth="yes"/>
			<point x="592" y="1454"/>
			<point x="586" y="1500"/>
			<point x="530" y="1500" type="curve" smooth="yes"/>
			<point x="494" y="1500"/>
			<point x="468" y="1470"/>
			<point x="470" y="1442" type="curve" smooth="yes"/>
			<point x="481" y="1334"/>
			<point x="491" y="1226"/>
			<point x="502" y="1118" type="curve"/>
			<point x="244" y="1298" type="line" smooth="yes"/>
			<point x="218" y="1316"/>
			<point x="206" y="1316"/>
			<point x="198" y="1316" type="curve" smooth="yes"/>
			<point x="162" y="1316"/>
			<point x="138" y="1284"/>
			<point x="138" y="1254" type="curve" smooth="yes"/>
			<point x="138" y="1216"/>
			<point x="164" y="1204"/>
			<point x="184" y="1196" type="curve" smooth="yes"/>
			<point x="472" y="1070" type="line"/>
			<point x="184" y="942" type="line" smooth="yes"/>
			<point x="164" y="934"/>
			<point x="138" y="922"/>
			<point x="138" y="884" type="curve" smooth="yes"/>
			<point x="138" y="872"/>
			<point x="142" y="822"/>
			<point x="212" y="822" type="curve" smooth="yes"/>
			<point x="212" y="822"/>
			<point x="212" y="822"/>
			<point x="212" y="822" type="curve"/>
			<point x="502" y="1020" type="line"/>
			<point x="492" y="913"/>
			<point x="482" y="806"/>
			<point x="472" y="698" type="curve" smooth="yes"/>
			<point x="470" y="674"/>
			<point x="484" y="638"/>
		</contour>
	</outline>
</glyph>
<glyph name="plus" format="2">
	<unicode hex="002B"/>
	<advance width="826"/>
	<outline>
		<contour>
			<point x="436" y="227" type="line"/>
			<point x="730" y="227" type="line" smooth="yes"/>
			<point x="744" y="227"/>
			<point x="766" y="227"/>
			<point x="766" y="250" type="curve" smooth="yes"/>
			<point x="766" y="273"/>
			<point x="744" y="273"/>
			<point x="730" y="273" type="curve" smooth="yes"/>
			<point x="436" y="273" type="line"/>
			<point x="436" y="568" type="line" smooth="yes"/>
			<point x="436" y="582"/>
			<point x="436" y="604"/>
			<point x="413" y="604" type="curve" smooth="yes"/>
			<point x="390" y="604"/>
			<point x="390" y="582"/>
			<point x="390" y="568" type="curve" smooth="yes"/>
			<point x="390" y="273" type="line"/>
			<point x="95" y="273" type="line" smooth="yes"/>
			<point x="81" y="273"/>
			<point x="59" y="273"/>
			<point x="59" y="250" type="curve" smooth="yes"/>
			<point x="59" y="227"/>
			<point x="81" y="227"/>
			<point x="95" y="227" type="curve" smooth="yes"/>
			<point x="390" y="227" type="line"/>
			<point x="390" y="-68" type="line" smooth="yes"/>
			<point x="390" y="-82"/>
			<point x="390" y="-104"/>
			<point x="413" y="-104" type="curve" smooth="yes"/>
			<point x="436" y="-104"/>
			<point x="436" y="-82"/>
			<point x="436" y="-68" type="curve" smooth="yes"/>
		</contour>
	</outline>
</glyph>
<glyph name="comma" format="2">
	<unicode hex="002C"/>
	<advance width="590"/>
	<outline>
		<contour>
			<point x="184" y="112" type="curve" smooth="yes"/>
			<point x="184" y="52"/>
			<point x="226" y="0"/>
			<point x="296" y="0" type="curve" smooth="yes"/>
			<point x="340" y="0"/>
			<point x="368" y="24"/>
			<point x="374" y="30" type="curve"/>
			<point x="374" y="-30"/>
			<point x="374" y="-194"/>
			<point x="222" y="-336" type="curve" smooth="yes"/>
			<point x="216" y="-342"/>
			<point x="210" y="-346"/>
			<point x="210" y="-358" type="curve" smooth="yes"/>
			<point x="210" y="-376"/>
			<point x="228" y="-388"/>
			<point x="238" y="-388" type="curve" smooth="yes"/>
			<point x="264" y="-388"/>
			<point x="430" y="-232"/>
			<point x="430" y="8" type="curve" smooth="yes"/>
			<point x="430" y="118"/>
			<point x="390" y="222"/>
			<point x="294" y="222" type="curve" smooth="yes"/>
			<point x="228" y="222"/>
			<point x="184" y="170"/>
		</contour>
	</outline>
</glyph>
<glyph name="hyphen" format="2">
  <advance width="354"/>
  <unicode hex="002D"/>
  <outline>
    <contour>
      <point x="294" y="183" type="line"/>
      <point x="294" y="248" type="line"/>
      <point x="12" y="248" type="line"/>
      <point x="12" y="183" type="line"/>
    </contour>
  </outline>
</glyph>
<glyph name="period" format="2">
  <advance width="295"/>
  <unicode hex="002E"/>
  <outline>
    <contour>
      <point x="203" y="55" type="curve" smooth="yes"/>
      <point x="203" y="89"/>
      <point x="176" y="111"/>
      <point x="148" y="111" type="curve" smooth="yes"/>
      <point x="114" y="111"/>
      <point x="92" y="84"/>
      <point x="92" y="56" type="curve" smooth="yes"/>
      <point x="92" y="22"/>
      <point x="119" y="0"/>
      <point x="147" y="0" type="curve" smooth="yes"/>
      <point x="181" y="0"/>
      <point x="203" y="27"/>
    </contour>
  </outline>
</glyph>
<glyph name="zero" format="2">
	<unicode hex="0030"/>
	<advance width="1062"/>
	<outline>
		<contour>
			<point x="530" y="-42" type="curve" smooth="yes"/>
			<point x="626" y="-42"/>
			<point x="798" y="-12"/>
			<point x="898" y="186" type="curve" smooth="yes"/>
			<point x="972" y="330"/>
			<point x="978" y="508"/>
			<point x="978" y="638" type="curve" smooth="yes"/>
			<point x="978" y="852"/>
			<point x="956" y="982"/>
			<point x="890" y="1110" type="curve" smooth="yes"/>
			<point x="802" y="1286"/>
			<point x="640" y="1330"/>
			<point x="530" y="1330" type="curve" smooth="yes"/>
			<point x="278" y="1330"/>
			<point x="186" y="1142"/>
			<point x="158" y="1086" type="curve" smooth="yes"/>
			<point x="86" y="940"/>
			<point x="82" y="742"/>
			<point x="82" y="638" type="curve" smooth="yes"/>
			<point x="82" y="506"/>
			<point x="88" y="304"/>
			<point x="184" y="144" type="curve" smooth="yes"/>
			<point x="276" y="-4"/>
			<point x="424" y="-42"/>
		</contour>
		<contour>
			<point x="530" y="14" type="curve" smooth="yes"/>
			<point x="462" y="14"/>
			<point x="324" y="46"/>
			<point x="282" y="256" type="curve" smooth="yes"/>
			<point x="260" y="370"/>
			<point x="260" y="558"/>
			<point x="260" y="662" type="curve" smooth="yes"/>
			<point x="260" y="800"/>
			<point x="260" y="940"/>
			<point x="282" y="1050" type="curve" smooth="yes"/>
			<point x="324" y="1254"/>
			<point x="480" y="1274"/>
			<point x="530" y="1274" type="curve" smooth="yes"/>
			<point x="598" y="1274"/>
			<point x="736" y="1240"/>
			<point x="776" y="1058" type="curve" smooth="yes"/>
			<point x="800" y="948"/>
			<point x="800" y="798"/>
			<point x="800" y="662" type="curve" smooth="yes"/>
			<point x="800" y="544"/>
			<point x="800" y="364"/>
			<point x="776" y="252" type="curve" smooth="yes"/>
			<point x="734" y="42"/>
			<point x="596" y="14"/>
		</contour>
	</outline>
</glyph>
<glyph name="one" format="2">
  <advance width="531"/>
  <unicode hex="0031"/>
  <outline>
    <contour>
      <point x="235" y="595" type="curve"/>
      <point x="235" y="82" type="line" smooth="yes"/>
      <point x="235" y="45"/>
      <point x="232" y="33"/>
      <point x="137" y="33" type="curve" smooth="yes"/>
      <point x="102" y="33" type="line"/>
      <point x="102" y="0" type="line"/>
      <point x="143" y="3"/>
      <point x="229" y="3"/>
      <point x="274" y="3" type="curve" smooth="yes"/>
      <point x="319" y="3"/>
      <point x="406" y="3"/>
      <point x="447" y="0" type="curve"/>
      <point x="447" y="33" type="line"/>
      <point x="412" y="33" type="line" smooth="yes"/>
      <point x="317" y="33"/>
      <point x="314" y="45"/>
      <point x="314" y="82" type="curve" smooth="yes"/>
      <point x="314" y="637" type="line" smooth="yes"/>
      <point x="314" y="664"/>
      <point x="312" y="665"/>
      <point x="285" y="665" type="curve"/>
      <point x="285.0" y="665.0"/>
      <point x="285.0" y="665.0"/>
      <point x="285" y="665" type="curve"/>
      <point x="244" y="625"/>
      <point x="191" y="601"/>
      <point x="96" y="601" type="curve" smooth="yes"/>
      <point x="96" y="601"/>
      <point x="96" y="601"/>
      <point x="96" y="601" type="curve"/>
      <point x="96.0" y="590.011"/>
      <point x="96.0" y="579.022"/>
      <point x="96" y="568" type="curve"/>
      <point x="96" y="568" type="line"/>
      <point x="123" y="568"/>
      <point x="177" y="568"/>
    </contour>
  </outline>
</glyph>
<glyph name="two" format="2">
	<unicode hex="0032"/>
	<advance width="1062"/>
	<outline>
		<contour>
			<point x="764" y="938" type="curve" smooth="yes"/>
			<point x="764" y="730"/>
			<point x="618" y="578"/>
			<point x="382" y="336" type="curve" smooth="yes"/>
			<point x="130" y="76" type="line"/>
			<point x="106" y="54"/>
			<point x="106" y="50"/>
			<point x="106" y="0" type="curve"/>
			<point x="106" y="0" type="line"/>
			<point x="896" y="0" type="line"/>
			<point x="954" y="358" type="line"/>
			<point x="892" y="358" type="line"/>
			<point x="886" y="318"/>
			<point x="870" y="218"/>
			<point x="846" y="180" type="curve"/>
			<point x="834" y="164"/>
			<point x="682" y="164"/>
			<point x="650" y="164" type="curve" smooth="yes"/>
			<point x="294" y="164" type="line"/>
			<point x="431" y="285"/>
			<point x="567" y="405"/>
			<point x="704" y="526" type="curve" smooth="yes"/>
			<point x="838" y="644"/>
			<point x="954" y="756"/>
			<point x="954" y="938" type="curve" smooth="yes"/>
			<point x="954" y="1176"/>
			<point x="754" y="1330"/>
			<point x="504" y="1330" type="curve" smooth="yes"/>
			<point x="264" y="1330"/>
			<point x="106" y="1148"/>
			<point x="106" y="970" type="curve" smooth="yes"/>
			<point x="106" y="872"/>
			<point x="184" y="858"/>
			<point x="212" y="858" type="curve" smooth="yes"/>
			<point x="254" y="858"/>
			<point x="316" y="888"/>
			<point x="316" y="964" type="curve" smooth="yes"/>
			<point x="316" y="1068"/>
			<point x="216" y="1068"/>
			<point x="192" y="1068" type="curve"/>
			<point x="250" y="1214"/>
			<point x="384" y="1264"/>
			<point x="482" y="1264" type="curve" smooth="yes"/>
			<point x="668" y="1264"/>
			<point x="764" y="1106"/>
		</contour>
	</outline>
</glyph>
<glyph name="three" format="2">
	<unicode hex="0033"/>
	<advance width="1062"/>
	<outline>
		<contour>
			<point x="520" y="-42" type="curve" smooth="yes"/>
			<point x="786" y="-42"/>
			<point x="972" y="142"/>
			<point x="972" y="342" type="curve" smooth="yes"/>
			<point x="972" y="508"/>
			<point x="840" y="660"/>
			<point x="636" y="704" type="curve"/>
			<point x="794" y="760"/>
			<point x="912" y="896"/>
			<point x="912" y="1056" type="curve" smooth="yes"/>
			<point x="912" y="1216"/>
			<point x="732" y="1330"/>
			<point x="524" y="1330" type="curve" smooth="yes"/>
			<point x="310" y="1330"/>
			<point x="148" y="1214"/>
			<point x="148" y="1062" type="curve" smooth="yes"/>
			<point x="148" y="988"/>
			<point x="198" y="956"/>
			<point x="250" y="956" type="curve" smooth="yes"/>
			<point x="312" y="956"/>
			<point x="352" y="1000"/>
			<point x="352" y="1058" type="curve" smooth="yes"/>
			<point x="352" y="1132"/>
			<point x="288" y="1160"/>
			<point x="244" y="1162" type="curve"/>
			<point x="328" y="1272"/>
			<point x="482" y="1278"/>
			<point x="518" y="1278" type="curve" smooth="yes"/>
			<point x="570" y="1278"/>
			<point x="722" y="1262"/>
			<point x="722" y="1056" type="curve" smooth="yes"/>
			<point x="722" y="884"/>
			<point x="642" y="752"/>
			<point x="508" y="734" type="curve" smooth="yes"/>
			<point x="444" y="726"/>
			<point x="420" y="726"/>
			<point x="408" y="726" type="curve" smooth="yes"/>
			<point x="370" y="724"/>
			<point x="354" y="722"/>
			<point x="354" y="696" type="curve" smooth="yes"/>
			<point x="354" y="668"/>
			<point x="372" y="668"/>
			<point x="406" y="668" type="curve" smooth="yes"/>
			<point x="506" y="668" type="line" smooth="yes"/>
			<point x="664" y="668"/>
			<point x="764" y="552"/>
			<point x="764" y="342" type="curve" smooth="yes"/>
			<point x="764" y="92"/>
			<point x="622" y="18"/>
			<point x="516" y="18" type="curve" smooth="yes"/>
			<point x="406" y="18"/>
			<point x="256" y="58"/>
			<point x="186" y="164" type="curve"/>
			<point x="258" y="164"/>
			<point x="308" y="210"/>
			<point x="308" y="276" type="curve" smooth="yes"/>
			<point x="308" y="340"/>
			<point x="262" y="386"/>
			<point x="198" y="386" type="curve" smooth="yes"/>
			<point x="144" y="386"/>
			<point x="88" y="352"/>
			<point x="88" y="272" type="curve" smooth="yes"/>
			<point x="88" y="82"/>
			<point x="292" y="-42"/>
		</contour>
	</outline>
</glyph>
<glyph name="four" format="2">
	<unicode hex="0034"/>
	<advance width="1062"/>
	<outline>
		<contour>
			<point x="624" y="328" type="line"/>
			<point x="624" y="162" type="line" smooth="yes"/>
			<point x="624" y="88"/>
			<point x="618" y="66"/>
			<point x="464" y="66" type="curve" smooth="yes"/>
			<point x="418" y="66" type="line"/>
			<point x="418" y="0" type="line"/>
			<point x="588" y="6"/>
			<point x="592" y="6"/>
			<point x="706" y="6" type="curve" smooth="yes"/>
			<point x="820" y="6"/>
			<point x="824" y="6"/>
			<point x="994" y="0" type="curve"/>
			<point x="994" y="66" type="line"/>
			<point x="948" y="66" type="line" smooth="yes"/>
			<point x="794" y="66"/>
			<point x="788" y="88"/>
			<point x="788" y="162" type="curve" smooth="yes"/>
			<point x="788" y="328" type="line"/>
			<point x="1000" y="328" type="line"/>
			<point x="1000" y="394" type="line"/>
			<point x="788" y="394" type="line"/>
			<point x="788" y="1294" type="line" smooth="yes"/>
			<point x="788" y="1334"/>
			<point x="788" y="1350"/>
			<point x="746" y="1350" type="curve" smooth="yes"/>
			<point x="720" y="1350"/>
			<point x="718" y="1348"/>
			<point x="698" y="1320" type="curve" smooth="yes"/>
			<point x="60" y="394" type="line"/>
			<point x="60" y="328" type="line"/>
		</contour>
		<contour>
			<point x="130" y="394" type="line"/>
			<point x="638" y="1132" type="line"/>
			<point x="638" y="394" type="line"/>
		</contour>
	</outline>
</glyph>
<glyph name="five" format="2">
	<unicode hex="0035"/>
	<advance width="531"/>
	<outline>
		<contour>
			<point x="246" y="-21" type="curve" smooth="yes"/>
			<point x="371" y="-21"/>
			<point x="477" y="76"/>
			<point x="477" y="200" type="curve" smooth="yes"/>
			<point x="477" y="316"/>
			<point x="393" y="419"/>
			<point x="275" y="419" type="curve" smooth="yes"/>
			<point x="225" y="419"/>
			<point x="178" y="403"/>
			<point x="140" y="369" type="curve"/>
			<point x="140" y="562" type="line"/>
			<point x="153" y="558"/>
			<point x="193" y="548"/>
			<point x="235" y="548" type="curve" smooth="yes"/>
			<point x="282.26375" y="548"/>
			<point x="322.5221085671" y="560.5811111448"/>
			<point x="354.3155281303" y="577.0401053261" type="curve" smooth="yes"/>
			<point x="406.6072149204" y="604.1107564367"/>
			<point x="436" y="641.67165"/>
			<point x="436" y="651" type="curve" smooth="yes"/>
			<point x="436" y="662"/>
			<point x="429" y="665"/>
			<point x="424" y="665" type="curve" smooth="yes"/>
			<point x="422" y="665"/>
			<point x="420" y="665"/>
			<point x="411" y="660" type="curve"/>
			<point x="372" y="645"/>
			<point x="326" y="633"/>
			<point x="272" y="633" type="curve" smooth="yes"/>
			<point x="213" y="633"/>
			<point x="164" y="648"/>
			<point x="133" y="660" type="curve"/>
			<point x="123" y="665"/>
			<point x="121" y="665"/>
			<point x="120" y="665" type="curve" smooth="yes"/>
			<point x="107" y="665"/>
			<point x="107" y="654"/>
			<point x="107" y="636" type="curve" smooth="yes"/>
			<point x="107" y="343" type="line" smooth="yes"/>
			<point x="107" y="325"/>
			<point x="107" y="313"/>
			<point x="123" y="313" type="curve" smooth="yes"/>
			<point x="131" y="313"/>
			<point x="134" y="317"/>
			<point x="139" y="325" type="curve"/>
			<point x="151" y="340"/>
			<point x="189" y="391"/>
			<point x="274" y="391" type="curve" smooth="yes"/>
			<point x="330" y="391"/>
			<point x="357" y="345"/>
			<point x="366" y="326" type="curve" smooth="yes"/>
			<point x="383" y="290"/>
			<point x="385" y="244"/>
			<point x="385" y="205" type="curve" smooth="yes"/>
			<point x="385" y="168"/>
			<point x="384" y="114"/>
			<point x="356" y="70" type="curve" smooth="yes"/>
			<point x="337" y="40"/>
			<point x="297" y="9"/>
			<point x="244" y="9" type="curve" smooth="yes"/>
			<point x="179" y="9"/>
			<point x="115" y="50"/>
			<point x="92" y="115" type="curve"/>
			<point x="129" y="110"/>
			<point x="152" y="130.89286"/>
			<point x="152" y="163" type="curve" smooth="yes"/>
			<point x="152" y="200"/>
			<point x="123" y="213"/>
			<point x="103" y="213" type="curve" smooth="yes"/>
			<point x="85" y="213"/>
			<point x="53" y="203"/>
			<point x="53" y="160" type="curve" smooth="yes"/>
			<point x="53" y="70"/>
			<point x="131" y="-21"/>
		</contour>
	</outline>
</glyph>
<glyph name="six" format="2">
	<unicode hex="0036"/>
	<advance width="1062"/>
	<outline>
		<contour>
			<point x="88" y="634" type="curve" smooth="yes"/>
			<point x="88" y="357"/>
			<point x="154" y="186"/>
			<point x="244" y="86" type="curve" smooth="yes"/>
			<point x="330" y="-10"/>
			<point x="439" y="-42"/>
			<point x="534" y="-42" type="curve" smooth="yes"/>
			<point x="580" y="-42"/>
			<point x="626" y="-36"/>
			<point x="672" y="-21" type="curve" smooth="yes"/>
			<point x="725" y="-4"/>
			<point x="776" y="24"/>
			<point x="824" y="70" type="curve" smooth="yes"/>
			<point x="904" y="148"/>
			<point x="972" y="232"/>
			<point x="972" y="406" type="curve" smooth="yes"/>
			<point x="972" y="668"/>
			<point x="774" y="852"/>
			<point x="552" y="852" type="curve" smooth="yes"/>
			<point x="408" y="852"/>
			<point x="322" y="760"/>
			<point x="276" y="662" type="curve"/>
			<point x="276" y="828"/>
			<point x="290" y="974"/>
			<point x="362" y="1096" type="curve" smooth="yes"/>
			<point x="422" y="1196"/>
			<point x="524" y="1278"/>
			<point x="650" y="1278" type="curve" smooth="yes"/>
			<point x="690" y="1278"/>
			<point x="782" y="1272"/>
			<point x="828" y="1202" type="curve"/>
			<point x="738" y="1198"/>
			<point x="730" y="1130"/>
			<point x="730" y="1108" type="curve" smooth="yes"/>
			<point x="730" y="1048"/>
			<point x="776" y="1014"/>
			<point x="824" y="1014" type="curve" smooth="yes"/>
			<point x="860" y="1014"/>
			<point x="918" y="1036"/>
			<point x="918" y="1112" type="curve" smooth="yes"/>
			<point x="918" y="1232"/>
			<point x="828" y="1330"/>
			<point x="648" y="1330" type="curve" smooth="yes"/>
			<point x="370" y="1330"/>
			<point x="88" y="1066"/>
		</contour>
		<contour>
			<point x="534" y="18" type="curve" smooth="yes"/>
			<point x="428" y="18"/>
			<point x="362" y="92"/>
			<point x="332" y="148" type="curve" smooth="yes"/>
			<point x="286" y="238"/>
			<point x="282" y="374"/>
			<point x="282" y="450" type="curve" smooth="yes"/>
			<point x="282" y="648"/>
			<point x="390" y="796"/>
			<point x="544" y="796" type="curve" smooth="yes"/>
			<point x="644" y="796"/>
			<point x="704" y="744"/>
			<point x="742" y="674" type="curve" smooth="yes"/>
			<point x="784" y="600"/>
			<point x="784" y="510"/>
			<point x="784" y="408" type="curve" smooth="yes"/>
			<point x="784" y="306"/>
			<point x="784" y="218"/>
			<point x="744" y="146" type="curve" smooth="yes"/>
			<point x="692" y="54"/>
			<point x="622" y="18"/>
		</contour>
	</outline>
</glyph>
<glyph name="seven" format="2">
  <advance width="531"/>
  <unicode hex="0037"/>
  <outline>
    <contour>
      <point x="236" y="-21" type="curve" smooth="yes"/>
      <point x="283" y="-21"/>
      <point x="283" y="24"/>
      <point x="283" y="36" type="curve" smooth="yes"/>
      <point x="283.0" y="51.984"/>
      <point x="283.0" y="67.968"/>
      <point x="283" y="84" type="curve" smooth="yes"/>
      <point x="283" y="228"/>
      <point x="307" y="346"/>
      <point x="356" y="411" type="curve" smooth="yes"/>
      <point x="405.95" y="476.93399999999997"/>
      <point x="455.9" y="542.8679999999999"/>
      <point x="506" y="609" type="curve" smooth="yes"/>
      <point x="515" y="620"/>
      <point x="515" y="622"/>
      <point x="515" y="644" type="curve"/>
      <point x="515" y="644" type="line"/>
      <point x="261" y="644" type="line" smooth="yes"/>
      <point x="236" y="644"/>
      <point x="205" y="645"/>
      <point x="180" y="647" type="curve" smooth="yes"/>
      <point x="128" y="651"/>
      <point x="127" y="660"/>
      <point x="124" y="676" type="curve"/>
      <point x="93" y="676" type="line"/>
      <point x="59" y="465" type="line"/>
      <point x="90" y="465" type="line"/>
      <point x="92" y="480"/>
      <point x="103" y="549"/>
      <point x="117" y="557" type="curve"/>
      <point x="128" y="562"/>
      <point x="203" y="562"/>
      <point x="218" y="562" type="curve" smooth="yes"/>
      <point x="430" y="562" type="line"/>
      <point x="395.701" y="516.046"/>
      <point x="361.402" y="470.092"/>
      <point x="327" y="424" type="curve" smooth="yes"/>
      <point x="213" y="272"/>
      <point x="189" y="114"/>
      <point x="189" y="35" type="curve" smooth="yes"/>
      <point x="189" y="25"/>
      <point x="189" y="-21"/>
    </contour>
  </outline>
</glyph>
<glyph name="eight" format="2">
  <advance width="531"/>
  <unicode hex="0038"/>
  <outline>
    <contour>
      <point x="264" y="-21" type="curve" smooth="yes"/>
      <point x="387" y="-21"/>
      <point x="486" y="62"/>
      <point x="486" y="168" type="curve" smooth="yes"/>
      <point x="486" y="259"/>
      <point x="430" y="304"/>
      <point x="332" y="361" type="curve"/>
      <point x="388" y="388"/>
      <point x="456" y="438"/>
      <point x="456" y="516" type="curve" smooth="yes"/>
      <point x="456" y="611"/>
      <point x="359" y="665"/>
      <point x="266" y="665" type="curve" smooth="yes"/>
      <point x="160" y="665"/>
      <point x="74" y="592"/>
      <point x="74" y="498" type="curve" smooth="yes"/>
      <point x="74" y="461"/>
      <point x="87" y="427"/>
      <point x="112" y="398" type="curve" smooth="yes"/>
      <point x="129" y="377"/>
      <point x="133" y="375"/>
      <point x="195" y="336" type="curve"/>
      <point x="71" y="281"/>
      <point x="44" y="208"/>
      <point x="44" y="152" type="curve" smooth="yes"/>
      <point x="44" y="42"/>
      <point x="155" y="-21"/>
    </contour>
    <contour>
      <point x="266" y="9" type="curve" smooth="yes"/>
      <point x="177" y="9"/>
      <point x="101" y="70"/>
      <point x="101" y="152" type="curve" smooth="yes"/>
      <point x="101" y="227"/>
      <point x="157" y="286"/>
      <point x="226" y="318" type="curve"/>
      <point x="270.955" y="290.361"/>
      <point x="315.91" y="262.722"/>
      <point x="361" y="235" type="curve" smooth="yes"/>
      <point x="377" y="225"/>
      <point x="429" y="194"/>
      <point x="429" y="134" type="curve" smooth="yes"/>
      <point x="429" y="57"/>
      <point x="348" y="9"/>
    </contour>
    <contour>
      <point x="302" y="380" type="curve"/>
      <point x="260.375" y="404.975"/>
      <point x="218.75" y="429.95"/>
      <point x="177" y="455" type="curve" smooth="yes"/>
      <point x="148" y="472"/>
      <point x="124" y="501"/>
      <point x="124" y="536" type="curve" smooth="yes"/>
      <point x="124" y="599"/>
      <point x="193" y="639"/>
      <point x="264" y="639" type="curve" smooth="yes"/>
      <point x="342" y="639"/>
      <point x="406" y="586"/>
      <point x="406" y="516" type="curve" smooth="yes"/>
      <point x="406" y="458"/>
      <point x="361" y="409"/>
    </contour>
  </outline>
</glyph>
<glyph name="nine" format="2">
	<unicode hex="0039"/>
	<advance width="1062"/>
	<outline>
		<contour>
			<point x="438" y="-42" type="curve" smooth="yes"/>
			<point x="712" y="-42"/>
			<point x="972" y="230"/>
			<point x="972" y="658" type="curve" smooth="yes"/>
			<point x="972" y="1178"/>
			<point x="742" y="1328"/>
			<point x="536" y="1328" type="curve" smooth="yes"/>
			<point x="415" y="1328"/>
			<point x="300" y="1280"/>
			<point x="217" y="1197" type="curve" smooth="yes"/>
			<point x="138" y="1119"/>
			<point x="88" y="1010"/>
			<point x="88" y="882" type="curve" smooth="yes"/>
			<point x="88" y="752"/>
			<point x="137" y="640"/>
			<point x="215" y="561" type="curve" smooth="yes"/>
			<point x="292" y="484"/>
			<point x="396" y="438"/>
			<point x="508" y="438" type="curve" smooth="yes"/>
			<point x="650" y="438"/>
			<point x="736" y="528"/>
			<point x="784" y="630" type="curve"/>
			<point x="788" y="332"/>
			<point x="719" y="187"/>
			<point x="641" y="107" type="curve" smooth="yes"/>
			<point x="571" y="37"/>
			<point x="491" y="18"/>
			<point x="436" y="18" type="curve" smooth="yes"/>
			<point x="394" y="18"/>
			<point x="290" y="24"/>
			<point x="236" y="86" type="curve"/>
			<point x="324" y="94"/>
			<point x="330" y="160"/>
			<point x="330" y="180" type="curve" smooth="yes"/>
			<point x="330" y="240"/>
			<point x="284" y="274"/>
			<point x="236" y="274" type="curve" smooth="yes"/>
			<point x="200" y="274"/>
			<point x="142" y="252"/>
			<point x="142" y="176" type="curve" smooth="yes"/>
			<point x="142" y="40"/>
			<point x="254" y="-42"/>
		</contour>
		<contour>
			<point x="516" y="494" type="curve" smooth="yes"/>
			<point x="424" y="494"/>
			<point x="366" y="536"/>
			<point x="322" y="610" type="curve" smooth="yes"/>
			<point x="276" y="684"/>
			<point x="276" y="780"/>
			<point x="276" y="882" type="curve" smooth="yes"/>
			<point x="276" y="1000"/>
			<point x="276" y="1084"/>
			<point x="330" y="1166" type="curve" smooth="yes"/>
			<point x="380" y="1238"/>
			<point x="444" y="1278"/>
			<point x="538" y="1278" type="curve" smooth="yes"/>
			<point x="602" y="1278"/>
			<point x="684" y="1244"/>
			<point x="736" y="1136" type="curve" smooth="yes"/>
			<point x="764" y="1070"/>
			<point x="780" y="976"/>
			<point x="780" y="842" type="curve" smooth="yes"/>
			<point x="780" y="684"/>
			<point x="694" y="494"/>
		</contour>
	</outline>
</glyph>
<glyph name="colon" format="2">
	<unicode hex="003A"/>
	<advance width="590"/>
	<outline>
		<contour>
			<point x="406" y="750" type="curve" smooth="yes"/>
			<point x="406" y="818"/>
			<point x="352" y="862"/>
			<point x="296" y="862" type="curve" smooth="yes"/>
			<point x="228" y="862"/>
			<point x="184" y="808"/>
			<point x="184" y="752" type="curve" smooth="yes"/>
			<point x="184" y="684"/>
			<point x="238" y="640"/>
			<point x="294" y="640" type="curve" smooth="yes"/>
			<point x="362" y="640"/>
			<point x="406" y="694"/>
		</contour>
		<contour>
			<point x="406" y="110" type="curve" smooth="yes"/>
			<point x="406" y="178"/>
			<point x="352" y="222"/>
			<point x="296" y="222" type="curve" smooth="yes"/>
			<point x="228" y="222"/>
			<point x="184" y="168"/>
			<point x="184" y="112" type="curve" smooth="yes"/>
			<point x="184" y="44"/>
			<point x="238" y="0"/>
			<point x="294" y="0" type="curve" smooth="yes"/>
			<point x="362" y="0"/>
			<point x="406" y="54"/>
		</contour>
	</outline>
</glyph>
<glyph name="semicolon" format="2">
	<unicode hex="003B"/>
	<advance width="590"/>
	<outline>
		<contour>
			<point x="294" y="640" type="curve" smooth="yes"/>
			<point x="362" y="640"/>
			<point x="406" y="694"/>
			<point x="406" y="750" type="curve" smooth="yes"/>
			<point x="406" y="818"/>
			<point x="352" y="862"/>
			<point x="296" y="862" type="curve" smooth="yes"/>
			<point x="228" y="862"/>
			<point x="184" y="808"/>
			<point x="184" y="752" type="curve" smooth="yes"/>
			<point x="184" y="684"/>
			<point x="238" y="640"/>
		</contour>
		<contour>
			<point x="238" y="-388" type="curve" smooth="yes"/>
			<point x="264" y="-388"/>
			<point x="412" y="-226"/>
			<point x="412" y="12" type="curve" smooth="yes"/>
			<point x="412" y="78"/>
			<point x="404" y="222"/>
			<point x="294" y="222" type="curve" smooth="yes"/>
			<point x="228" y="222"/>
			<point x="184" y="170"/>
			<point x="184" y="112" type="curve" smooth="yes"/>
			<point x="184" y="52"/>
			<point x="226" y="0"/>
			<point x="296" y="0" type="curve" smooth="yes"/>
			<point x="330" y="0"/>
			<point x="342" y="6"/>
			<point x="356" y="16" type="curve"/>
			<point x="356" y="-114"/>
			<point x="314" y="-230"/>
			<point x="226" y="-330" type="curve"/>
			<point x="214" y="-346"/>
			<point x="210" y="-348"/>
			<point x="210" y="-358" type="curve" smooth="yes"/>
			<point x="210" y="-376"/>
			<point x="228" y="-388"/>
		</contour>
	</outline>
</glyph>
<glyph name="equal" format="2">
	<unicode hex="003D"/>
	<advance width="1652"/>
	<outline>
		<contour>
			<point x="1462" y="666" type="line" smooth="yes"/>
			<point x="1492" y="666"/>
			<point x="1532" y="666"/>
			<point x="1532" y="712" type="curve" smooth="yes"/>
			<point x="1532" y="758"/>
			<point x="1484" y="758"/>
			<point x="1454" y="758" type="curve" smooth="yes"/>
			<point x="196" y="758" type="line" smooth="yes"/>
			<point x="166" y="758"/>
			<point x="118" y="758"/>
			<point x="118" y="712" type="curve" smooth="yes"/>
			<point x="118" y="666"/>
			<point x="158" y="666"/>
			<point x="188" y="666" type="curve" smooth="yes"/>
		</contour>
		<contour>
			<point x="1454" y="242" type="line" smooth="yes"/>
			<point x="1484" y="242"/>
			<point x="1532" y="242"/>
			<point x="1532" y="288" type="curve" smooth="yes"/>
			<point x="1532" y="334"/>
			<point x="1492" y="334"/>
			<point x="1462" y="334" type="curve" smooth="yes"/>
			<point x="188" y="334" type="line" smooth="yes"/>
			<point x="158" y="334"/>
			<point x="118" y="334"/>
			<point x="118" y="288" type="curve" smooth="yes"/>
			<point x="118" y="242"/>
			<point x="166" y="242"/>
			<point x="196" y="242" type="curve" smooth="yes"/>
		</contour>
	</outline>
</glyph>
<glyph name="question" format="2">
	<unicode hex="003F"/>
	<advance width="1002"/>
	<outline>
		<contour>
			<point x="884" y="1136" type="curve" smooth="yes"/>
			<point x="884" y="1248"/>
			<point x="804" y="1408"/>
			<point x="480" y="1408" type="curve" smooth="yes"/>
			<point x="248" y="1408"/>
			<point x="118" y="1274"/>
			<point x="118" y="1142" type="curve" smooth="yes"/>
			<point x="118" y="1052"/>
			<point x="190" y="1042"/>
			<point x="212" y="1042" type="curve" smooth="yes"/>
			<point x="258" y="1042"/>
			<point x="306" y="1074"/>
			<point x="306" y="1136" type="curve" smooth="yes"/>
			<point x="306" y="1158"/>
			<point x="298" y="1226"/>
			<point x="208" y="1230" type="curve"/>
			<point x="250" y="1300"/>
			<point x="350" y="1352"/>
			<point x="476" y="1352" type="curve" smooth="yes"/>
			<point x="702" y="1352"/>
			<point x="706" y="1226"/>
			<point x="706" y="1144" type="curve" smooth="yes"/>
			<point x="706" y="1038"/>
			<point x="668" y="998"/>
			<point x="638" y="968" type="curve" smooth="yes"/>
			<point x="448" y="778"/>
			<point x="440" y="592"/>
			<point x="440" y="470" type="curve" smooth="yes"/>
			<point x="440" y="450"/>
			<point x="440" y="430"/>
			<point x="440" y="410" type="curve"/>
			<point x="442" y="382"/>
			<point x="458" y="382"/>
			<point x="472" y="382" type="curve" smooth="yes"/>
			<point x="502" y="382"/>
			<point x="502" y="394"/>
			<point x="502" y="434" type="curve" smooth="yes"/>
			<point x="502" y="494" type="line" smooth="yes"/>
			<point x="502" y="690"/>
			<point x="618" y="828"/>
			<point x="764" y="928" type="curve" smooth="yes"/>
			<point x="796" y="950"/>
			<point x="884" y="1010"/>
		</contour>
		<contour>
			<point x="582" y="110" type="curve" smooth="yes"/>
			<point x="582" y="178"/>
			<point x="528" y="222"/>
			<point x="472" y="222" type="curve" smooth="yes"/>
			<point x="406" y="222"/>
			<point x="360" y="168"/>
			<point x="360" y="112" type="curve" smooth="yes"/>
			<point x="360" y="50"/>
			<point x="410" y="0"/>
			<point x="472" y="0" type="curve" smooth="yes"/>
			<point x="532" y="0"/>
			<point x="582" y="48"/>
		</contour>
	</outline>
</glyph>
<glyph name="at" format="2">
	<unicode hex="0040"/>
	<advance width="1652"/>
	<outline>
		<contour>
			<point x="836" y="-20" type="curve" smooth="yes"/>
			<point x="1027" y="-20"/>
			<point x="1198" y="16"/>
			<point x="1323" y="53" type="curve" smooth="yes"/>
			<point x="1414" y="79"/>
			<point x="1482" y="107"/>
			<point x="1516" y="122" type="curve" smooth="yes"/>
			<point x="1524" y="126"/>
			<point x="1532" y="134"/>
			<point x="1532" y="144" type="curve" smooth="yes"/>
			<point x="1532" y="168"/>
			<point x="1510" y="168"/>
			<point x="1480" y="168" type="curve" smooth="yes"/>
			<point x="1462" y="168" type="line" smooth="yes"/>
			<point x="1432" y="168"/>
			<point x="1428" y="168"/>
			<point x="1394" y="152" type="curve" smooth="yes"/>
			<point x="1156" y="50"/>
			<point x="942" y="36"/>
			<point x="834" y="36" type="curve" smooth="yes"/>
			<point x="448" y="36"/>
			<point x="180" y="348"/>
			<point x="180" y="694" type="curve" smooth="yes"/>
			<point x="180" y="1060"/>
			<point x="474" y="1352"/>
			<point x="824" y="1352" type="curve" smooth="yes"/>
			<point x="1144" y="1352"/>
			<point x="1470" y="1102"/>
			<point x="1470" y="676" type="curve" smooth="yes"/>
			<point x="1470" y="474"/>
			<point x="1442" y="310"/>
			<point x="1318" y="310" type="curve" smooth="yes"/>
			<point x="1256" y="310"/>
			<point x="1248" y="390"/>
			<point x="1248" y="436" type="curve" smooth="yes"/>
			<point x="1248" y="912" type="line" smooth="yes"/>
			<point x="1248" y="962"/>
			<point x="1248" y="966"/>
			<point x="1192" y="966" type="curve" smooth="yes"/>
			<point x="1168" y="966"/>
			<point x="1146" y="966"/>
			<point x="1122" y="966" type="curve"/>
			<point x="1032" y="1096"/>
			<point x="914" y="1134"/>
			<point x="824" y="1134" type="curve" smooth="yes"/>
			<point x="596" y="1134"/>
			<point x="402" y="940"/>
			<point x="402" y="694" type="curve" smooth="yes"/>
			<point x="402" y="446"/>
			<point x="596" y="254"/>
			<point x="824" y="254" type="curve" smooth="yes"/>
			<point x="934" y="254"/>
			<point x="1028" y="308"/>
			<point x="1100" y="390" type="curve"/>
			<point x="1126" y="274"/>
			<point x="1256" y="254"/>
			<point x="1308" y="254" type="curve" smooth="yes"/>
			<point x="1488" y="254"/>
			<point x="1532" y="458"/>
			<point x="1532" y="682" type="curve" smooth="yes"/>
			<point x="1532" y="1120"/>
			<point x="1188" y="1408"/>
			<point x="826" y="1408" type="curve" smooth="yes"/>
			<point x="432" y="1408"/>
			<point x="118" y="1086"/>
			<point x="118" y="694" type="curve" smooth="yes"/>
			<point x="118" y="322"/>
			<point x="408" y="-20"/>
		</contour>
		<contour>
			<point x="826" y="310" type="curve" smooth="yes"/>
			<point x="684" y="310"/>
			<point x="554" y="472"/>
			<point x="554" y="694" type="curve" smooth="yes"/>
			<point x="554" y="916"/>
			<point x="682" y="1078"/>
			<point x="826" y="1078" type="curve" smooth="yes"/>
			<point x="928" y="1078"/>
			<point x="1016" y="1016"/>
			<point x="1066" y="940" type="curve"/>
			<point x="1096" y="900"/>
			<point x="1096" y="896"/>
			<point x="1096" y="858" type="curve" smooth="yes"/>
			<point x="1096" y="508" type="line" smooth="yes"/>
			<point x="1096" y="460"/>
			<point x="978" y="310"/>
		</contour>
	</outline>
</glyph>
<glyph name="A" format="2">
	<unicode hex="0041"/>
	<advance width="1590"/>
	<outline>
		<contour>
			<point x="796" y="1428" type="curve" smooth="yes"/>
			<point x="760" y="1428"/>
			<point x="754" y="1412"/>
			<point x="744" y="1384" type="curve" smooth="yes"/>
			<point x="298" y="206" type="line" smooth="yes"/>
			<point x="278" y="152"/>
			<point x="236" y="66"/>
			<point x="72" y="66" type="curve"/>
			<point x="72" y="0" type="line"/>
			<point x="136" y="6"/>
			<point x="242" y="6"/>
			<point x="278" y="6" type="curve" smooth="yes"/>
			<point x="342" y="6"/>
			<point x="402" y="6"/>
			<point x="500" y="0" type="curve"/>
			<point x="500" y="66" type="line"/>
			<point x="412" y="68"/>
			<point x="360" y="108"/>
			<point x="360" y="166" type="curve" smooth="yes"/>
			<point x="360" y="180"/>
			<point x="360" y="184"/>
			<point x="370" y="208" type="curve" smooth="yes"/>
			<point x="464" y="458" type="line"/>
			<point x="1008" y="458" type="line"/>
			<point x="1120" y="162" type="line" smooth="yes"/>
			<point x="1130" y="138"/>
			<point x="1130" y="130"/>
			<point x="1130" y="126" type="curve" smooth="yes"/>
			<point x="1130" y="66"/>
			<point x="1026" y="66"/>
			<point x="970" y="66" type="curve"/>
			<point x="970" y="0" type="line"/>
			<point x="1140" y="6"/>
			<point x="1144" y="6"/>
			<point x="1254" y="6" type="curve" smooth="yes"/>
			<point x="1366" y="6"/>
			<point x="1402" y="6"/>
			<point x="1518" y="0" type="curve"/>
			<point x="1518" y="66" type="line"/>
			<point x="1484" y="66" type="line" smooth="yes"/>
			<point x="1358" y="66"/>
			<point x="1338" y="84"/>
			<point x="1314" y="148" type="curve" smooth="yes"/>
			<point x="846" y="1384" type="line" smooth="yes"/>
			<point x="836" y="1410"/>
			<point x="830" y="1428"/>
		</contour>
		<contour>
			<point x="736" y="1178" type="line"/>
			<point x="982" y="524" type="line"/>
			<point x="488" y="524" type="line"/>
		</contour>
	</outline>
</glyph>
<glyph name="B" format="2">
	<unicode hex="0042"/>
	<advance width="1504"/>
	<outline>
		<contour>
			<point x="1384" y="366" type="curve" smooth="yes"/>
			<point x="1384" y="528"/>
			<point x="1230" y="686"/>
			<point x="980" y="714" type="curve"/>
			<point x="1198" y="760"/>
			<point x="1324" y="892"/>
			<point x="1324" y="1028" type="curve" smooth="yes"/>
			<point x="1324" y="1206"/>
			<point x="1124" y="1366"/>
			<point x="856" y="1366" type="curve" smooth="yes"/>
			<point x="96" y="1366" type="line"/>
			<point x="96" y="1300" type="line"/>
			<point x="140" y="1300" type="line" smooth="yes"/>
			<point x="294" y="1300"/>
			<point x="298" y="1278"/>
			<point x="298" y="1204" type="curve" smooth="yes"/>
			<point x="298" y="162" type="line" smooth="yes"/>
			<point x="298" y="88"/>
			<point x="294" y="66"/>
			<point x="140" y="66" type="curve" smooth="yes"/>
			<point x="96" y="66" type="line"/>
			<point x="96" y="0" type="line"/>
			<point x="912" y="0" type="line" smooth="yes"/>
			<point x="1188" y="0"/>
			<point x="1384" y="176"/>
		</contour>
		<contour>
			<point x="468" y="738" type="line"/>
			<point x="468" y="1218" type="line" smooth="yes"/>
			<point x="468" y="1286"/>
			<point x="472" y="1300"/>
			<point x="564" y="1300" type="curve" smooth="yes"/>
			<point x="842" y="1300" type="line" smooth="yes"/>
			<point x="1040" y="1300"/>
			<point x="1130" y="1146"/>
			<point x="1130" y="1028" type="curve" smooth="yes"/>
			<point x="1130" y="892"/>
			<point x="1010" y="738"/>
			<point x="782" y="738" type="curve" smooth="yes"/>
		</contour>
		<contour>
			<point x="844" y="66" type="curve" smooth="yes"/>
			<point x="564" y="66" type="line" smooth="yes"/>
			<point x="472" y="66"/>
			<point x="468" y="80"/>
			<point x="468" y="148" type="curve" smooth="yes"/>
			<point x="468" y="682" type="line"/>
			<point x="874" y="682" type="line" smooth="yes"/>
			<point x="1068" y="682"/>
			<point x="1182" y="526"/>
			<point x="1182" y="368" type="curve" smooth="yes"/>
			<point x="1182" y="206"/>
			<point x="1048" y="66"/>
		</contour>
	</outline>
</glyph>
<glyph name="C" format="2">
	<unicode hex="0043"/>
	<advance width="1534"/>
	<outline>
		<contour>
			<point x="118" y="684" type="curve" smooth="yes"/>
			<point x="118" y="280"/>
			<point x="452" y="-42"/>
			<point x="858" y="-42" type="curve" smooth="yes"/>
			<point x="1194" y="-42"/>
			<point x="1414" y="224"/>
			<point x="1414" y="468" type="curve" smooth="yes"/>
			<point x="1414" y="488"/>
			<point x="1414" y="506"/>
			<point x="1382" y="506" type="curve" smooth="yes"/>
			<point x="1360" y="506"/>
			<point x="1354" y="496"/>
			<point x="1352" y="476" type="curve" smooth="yes"/>
			<point x="1336" y="168"/>
			<point x="1088" y="24"/>
			<point x="876" y="24" type="curve" smooth="yes"/>
			<point x="783" y="24"/>
			<point x="626" y="55"/>
			<point x="504" y="176" type="curve" smooth="yes"/>
			<point x="403" y="274"/>
			<point x="326" y="433"/>
			<point x="326" y="684" type="curve" smooth="yes"/>
			<point x="326" y="928"/>
			<point x="400" y="1087"/>
			<point x="499" y="1187" type="curve" smooth="yes"/>
			<point x="618" y="1306"/>
			<point x="772" y="1342"/>
			<point x="876" y="1342" type="curve" smooth="yes"/>
			<point x="1064" y="1342"/>
			<point x="1296" y="1208"/>
			<point x="1348" y="864" type="curve" smooth="yes"/>
			<point x="1350" y="848"/>
			<point x="1352" y="834"/>
			<point x="1380" y="834" type="curve" smooth="yes"/>
			<point x="1414" y="834"/>
			<point x="1414" y="848"/>
			<point x="1414" y="886" type="curve" smooth="yes"/>
			<point x="1414" y="1356" type="line" smooth="yes"/>
			<point x="1414" y="1388"/>
			<point x="1414" y="1408"/>
			<point x="1388" y="1408" type="curve" smooth="yes"/>
			<point x="1374" y="1408"/>
			<point x="1372" y="1406"/>
			<point x="1354" y="1380" type="curve" smooth="yes"/>
			<point x="1252" y="1232" type="line"/>
			<point x="1180" y="1310"/>
			<point x="1048" y="1408"/>
			<point x="856" y="1408" type="curve" smooth="yes"/>
			<point x="454" y="1408"/>
			<point x="118" y="1086"/>
		</contour>
	</outline>
</glyph>
<glyph name="D" format="2">
	<unicode hex="0044"/>
	<advance width="1622"/>
	<outline>
		<contour>
			<point x="1502" y="670" type="curve" smooth="yes"/>
			<point x="1502" y="1056"/>
			<point x="1210" y="1366"/>
			<point x="852" y="1366" type="curve" smooth="yes"/>
			<point x="92" y="1366" type="line"/>
			<point x="92" y="1300" type="line"/>
			<point x="106" y="1300"/>
			<point x="122" y="1300"/>
			<point x="136" y="1300" type="curve" smooth="yes"/>
			<point x="290" y="1300"/>
			<point x="294" y="1278"/>
			<point x="294" y="1204" type="curve" smooth="yes"/>
			<point x="294" y="162" type="line" smooth="yes"/>
			<point x="294" y="88"/>
			<point x="290" y="66"/>
			<point x="136" y="66" type="curve" smooth="yes"/>
			<point x="122" y="66"/>
			<point x="106" y="66"/>
			<point x="92" y="66" type="curve"/>
			<point x="92" y="0" type="line"/>
			<point x="852" y="0" type="line" smooth="yes"/>
			<point x="1212" y="0"/>
			<point x="1502" y="300"/>
		</contour>
		<contour>
			<point x="568" y="66" type="line" smooth="yes"/>
			<point x="476" y="66"/>
			<point x="472" y="80"/>
			<point x="472" y="148" type="curve" smooth="yes"/>
			<point x="472" y="1218" type="line" smooth="yes"/>
			<point x="472" y="1286"/>
			<point x="476" y="1300"/>
			<point x="568" y="1300" type="curve" smooth="yes"/>
			<point x="798" y="1300" type="line" smooth="yes"/>
			<point x="954" y="1300"/>
			<point x="1084" y="1236"/>
			<point x="1172" y="1136" type="curve" smooth="yes"/>
			<point x="1300" y="984"/>
			<point x="1300" y="770"/>
			<point x="1300" y="672" type="curve" smooth="yes"/>
			<point x="1300" y="570"/>
			<point x="1300" y="374"/>
			<point x="1174" y="226" type="curve" smooth="yes"/>
			<point x="1104" y="144"/>
			<point x="976" y="66"/>
			<point x="798" y="66" type="curve" smooth="yes"/>
		</contour>
	</outline>
</glyph>
<glyph name="E" format="2">
	<unicode hex="0045"/>
	<advance width="1444"/>
	<outline>
		<contour>
			<point x="1384" y="520" type="line"/>
			<point x="1322" y="520" type="line"/>
			<point x="1270" y="220"/>
			<point x="1228" y="66"/>
			<point x="868" y="66" type="curve" smooth="yes"/>
			<point x="570" y="66" type="line" smooth="yes"/>
			<point x="478" y="66"/>
			<point x="474" y="80"/>
			<point x="474" y="148" type="curve" smooth="yes"/>
			<point x="474" y="674" type="line"/>
			<point x="668" y="674" type="line" smooth="yes"/>
			<point x="866" y="674"/>
			<point x="894" y="614"/>
			<point x="894" y="440" type="curve"/>
			<point x="956" y="440" type="line"/>
			<point x="956" y="974" type="line"/>
			<point x="894" y="974" type="line"/>
			<point x="894" y="800"/>
			<point x="866" y="740"/>
			<point x="668" y="740" type="curve" smooth="yes"/>
			<point x="474" y="740" type="line"/>
			<point x="474" y="1212" type="line" smooth="yes"/>
			<point x="474" y="1280"/>
			<point x="478" y="1294"/>
			<point x="570" y="1294" type="curve" smooth="yes"/>
			<point x="854" y="1294" type="line" smooth="yes"/>
			<point x="1186" y="1294"/>
			<point x="1228" y="1174"/>
			<point x="1264" y="906" type="curve"/>
			<point x="1326" y="906" type="line"/>
			<point x="1268" y="1360" type="line"/>
			<point x="88" y="1360" type="line"/>
			<point x="88" y="1294" type="line"/>
			<point x="132" y="1294" type="line" smooth="yes"/>
			<point x="286" y="1294"/>
			<point x="290" y="1272"/>
			<point x="290" y="1198" type="curve" smooth="yes"/>
			<point x="290" y="162" type="line" smooth="yes"/>
			<point x="290" y="88"/>
			<point x="286" y="66"/>
			<point x="132" y="66" type="curve" smooth="yes"/>
			<point x="88" y="66" type="line"/>
			<point x="88" y="0" type="line"/>
			<point x="1296" y="0" type="line"/>
		</contour>
	</outline>
</glyph>
<glyph name="F" format="2">
	<unicode hex="0046"/>
	<advance width="1386"/>
	<outline>
		<contour>
			<point x="1238" y="1360" type="line"/>
			<point x="88" y="1360" type="line"/>
			<point x="88" y="1294" type="line"/>
			<point x="132" y="1294" type="line" smooth="yes"/>
			<point x="286" y="1294"/>
			<point x="290" y="1272"/>
			<point x="290" y="1198" type="curve" smooth="yes"/>
			<point x="290" y="162" type="line" smooth="yes"/>
			<point x="290" y="88"/>
			<point x="286" y="66"/>
			<point x="132" y="66" type="curve" smooth="yes"/>
			<point x="88" y="66" type="line"/>
			<point x="88" y="0" type="line"/>
			<point x="258" y="6"/>
			<point x="262" y="6"/>
			<point x="396" y="6" type="curve" smooth="yes"/>
			<point x="490" y="6"/>
			<point x="636" y="6"/>
			<point x="726" y="0" type="curve"/>
			<point x="726" y="66" type="line"/>
			<point x="662" y="66" type="line" smooth="yes"/>
			<point x="474" y="66"/>
			<point x="474" y="94"/>
			<point x="474" y="164" type="curve" smooth="yes"/>
			<point x="474" y="648" type="line"/>
			<point x="660" y="648" type="line" smooth="yes"/>
			<point x="856" y="648"/>
			<point x="880" y="586"/>
			<point x="880" y="414" type="curve"/>
			<point x="942" y="414" type="line"/>
			<point x="942" y="948" type="line"/>
			<point x="880" y="948" type="line"/>
			<point x="880" y="778"/>
			<point x="856" y="714"/>
			<point x="660" y="714" type="curve" smooth="yes"/>
			<point x="474" y="714" type="line"/>
			<point x="474" y="1212" type="line" smooth="yes"/>
			<point x="474" y="1280"/>
			<point x="478" y="1294"/>
			<point x="570" y="1294" type="curve" smooth="yes"/>
			<point x="836" y="1294" type="line" smooth="yes"/>
			<point x="1162" y="1294"/>
			<point x="1200" y="1168"/>
			<point x="1234" y="906" type="curve"/>
			<point x="1296" y="906" type="line"/>
		</contour>
	</outline>
</glyph>
<glyph name="G" format="2">
	<unicode hex="0047"/>
	<advance width="1666"/>
	<outline>
		<contour>
			<point x="862" y="-42" type="curve" smooth="yes"/>
			<point x="955" y="-42"/>
			<point x="1054" y="-25"/>
			<point x="1135" y="13" type="curve" smooth="yes"/>
			<point x="1190" y="39"/>
			<point x="1236" y="75"/>
			<point x="1268" y="122" type="curve"/>
			<point x="1304" y="66"/>
			<point x="1372" y="0"/>
			<point x="1392" y="0" type="curve" smooth="yes"/>
			<point x="1416" y="0"/>
			<point x="1416" y="22"/>
			<point x="1416" y="52" type="curve" smooth="yes"/>
			<point x="1416" y="167"/>
			<point x="1416" y="281"/>
			<point x="1416" y="396" type="curve" smooth="yes"/>
			<point x="1416" y="476"/>
			<point x="1424" y="486"/>
			<point x="1564" y="486" type="curve"/>
			<point x="1564" y="486"/>
			<point x="1564" y="486"/>
			<point x="1564" y="486" type="curve"/>
			<point x="1564" y="508"/>
			<point x="1564" y="530"/>
			<point x="1564" y="552" type="curve"/>
			<point x="1462" y="546"/>
			<point x="1406" y="546"/>
			<point x="1292" y="546" type="curve" smooth="yes"/>
			<point x="1206" y="546"/>
			<point x="1044" y="546"/>
			<point x="966" y="552" type="curve"/>
			<point x="966" y="530"/>
			<point x="966" y="508"/>
			<point x="966" y="486" type="curve"/>
			<point x="989" y="486"/>
			<point x="1013" y="486"/>
			<point x="1036" y="486" type="curve" smooth="yes"/>
			<point x="1226" y="486"/>
			<point x="1232" y="462"/>
			<point x="1232" y="388" type="curve" smooth="yes"/>
			<point x="1232" y="345"/>
			<point x="1232" y="303"/>
			<point x="1232" y="260" type="curve" smooth="yes"/>
			<point x="1232" y="220"/>
			<point x="1232" y="138"/>
			<point x="1126" y="80" type="curve" smooth="yes"/>
			<point x="1026" y="24"/>
			<point x="914" y="24"/>
			<point x="890" y="24" type="curve" smooth="yes"/>
			<point x="779" y="24"/>
			<point x="621" y="61"/>
			<point x="500" y="182" type="curve" smooth="yes"/>
			<point x="400" y="282"/>
			<point x="326" y="441"/>
			<point x="326" y="684" type="curve" smooth="yes"/>
			<point x="326" y="932"/>
			<point x="403" y="1091"/>
			<point x="504" y="1191" type="curve" smooth="yes"/>
			<point x="623" y="1308"/>
			<point x="776" y="1342"/>
			<point x="876" y="1342" type="curve" smooth="yes"/>
			<point x="1076" y="1342"/>
			<point x="1300" y="1196"/>
			<point x="1350" y="866" type="curve" smooth="yes"/>
			<point x="1352" y="846"/>
			<point x="1354" y="834"/>
			<point x="1382" y="834" type="curve" smooth="yes"/>
			<point x="1416" y="834"/>
			<point x="1416" y="848"/>
			<point x="1416" y="886" type="curve" smooth="yes"/>
			<point x="1416" y="1043"/>
			<point x="1416" y="1199"/>
			<point x="1416" y="1356" type="curve" smooth="yes"/>
			<point x="1416" y="1388"/>
			<point x="1416" y="1408"/>
			<point x="1390" y="1408" type="curve" smooth="yes"/>
			<point x="1376" y="1408"/>
			<point x="1374" y="1406"/>
			<point x="1356" y="1380" type="curve" smooth="yes"/>
			<point x="1322" y="1331"/>
			<point x="1288" y="1281"/>
			<point x="1254" y="1232" type="curve"/>
			<point x="1168" y="1324"/>
			<point x="1036" y="1408"/>
			<point x="856" y="1408" type="curve" smooth="yes"/>
			<point x="456" y="1408"/>
			<point x="118" y="1086"/>
			<point x="118" y="684" type="curve" smooth="yes"/>
			<point x="118" y="286"/>
			<point x="446" y="-42"/>
		</contour>
	</outline>
</glyph>
<glyph name="H" format="2">
	<unicode hex="0048"/>
	<advance width="1590"/>
	<outline>
		<contour>
			<point x="88" y="0" type="line"/>
			<point x="258" y="6"/>
			<point x="262" y="6"/>
			<point x="382" y="6" type="curve" smooth="yes"/>
			<point x="502" y="6"/>
			<point x="506" y="6"/>
			<point x="676" y="0" type="curve"/>
			<point x="676" y="66" type="line"/>
			<point x="632" y="66" type="line" smooth="yes"/>
			<point x="478" y="66"/>
			<point x="474" y="88"/>
			<point x="474" y="162" type="curve" smooth="yes"/>
			<point x="474" y="678" type="line"/>
			<point x="1116" y="678" type="line"/>
			<point x="1116" y="162" type="line" smooth="yes"/>
			<point x="1116" y="88"/>
			<point x="1112" y="66"/>
			<point x="958" y="66" type="curve" smooth="yes"/>
			<point x="914" y="66" type="line"/>
			<point x="914" y="0" type="line"/>
			<point x="1084" y="6"/>
			<point x="1088" y="6"/>
			<point x="1208" y="6" type="curve" smooth="yes"/>
			<point x="1328" y="6"/>
			<point x="1332" y="6"/>
			<point x="1502" y="0" type="curve"/>
			<point x="1502" y="66" type="line"/>
			<point x="1458" y="66" type="line" smooth="yes"/>
			<point x="1304" y="66"/>
			<point x="1300" y="88"/>
			<point x="1300" y="162" type="curve" smooth="yes"/>
			<point x="1300" y="1204" type="line" smooth="yes"/>
			<point x="1300" y="1278"/>
			<point x="1304" y="1300"/>
			<point x="1458" y="1300" type="curve" smooth="yes"/>
			<point x="1502" y="1300" type="line"/>
			<point x="1502" y="1366" type="line"/>
			<point x="1332" y="1360"/>
			<point x="1328" y="1360"/>
			<point x="1208" y="1360" type="curve" smooth="yes"/>
			<point x="1088" y="1360"/>
			<point x="1084" y="1360"/>
			<point x="914" y="1366" type="curve"/>
			<point x="914" y="1300" type="line"/>
			<point x="958" y="1300" type="line" smooth="yes"/>
			<point x="1112" y="1300"/>
			<point x="1116" y="1278"/>
			<point x="1116" y="1204" type="curve" smooth="yes"/>
			<point x="1116" y="744" type="line"/>
			<point x="474" y="744" type="line"/>
			<point x="474" y="1204" type="line" smooth="yes"/>
			<point x="474" y="1278"/>
			<point x="478" y="1300"/>
			<point x="632" y="1300" type="curve" smooth="yes"/>
			<point x="676" y="1300" type="line"/>
			<point x="676" y="1366" type="line"/>
			<point x="506" y="1360"/>
			<point x="502" y="1360"/>
			<point x="382" y="1360" type="curve" smooth="yes"/>
			<point x="262" y="1360"/>
			<point x="258" y="1360"/>
			<point x="88" y="1366" type="curve"/>
			<point x="88" y="1300" type="line"/>
			<point x="132" y="1300" type="line" smooth="yes"/>
			<point x="286" y="1300"/>
			<point x="290" y="1278"/>
			<point x="290" y="1204" type="curve" smooth="yes"/>
			<point x="290" y="162" type="line" smooth="yes"/>
			<point x="290" y="88"/>
			<point x="286" y="66"/>
			<point x="132" y="66" type="curve" smooth="yes"/>
			<point x="88" y="66" type="line"/>
		</contour>
	</outline>
</glyph>
<glyph name="I" format="2">
	<unicode hex="0049"/>
	<advance width="764"/>
	<outline>
		<contour>
			<point x="78" y="0" type="line"/>
			<point x="238" y="6"/>
			<point x="242" y="6"/>
			<point x="382" y="6" type="curve" smooth="yes"/>
			<point x="522" y="6"/>
			<point x="526" y="6"/>
			<point x="686" y="0" type="curve"/>
			<point x="686" y="66" type="line"/>
			<point x="638" y="66" type="line" smooth="yes"/>
			<point x="480" y="66"/>
			<point x="474" y="86"/>
			<point x="474" y="162" type="curve" smooth="yes"/>
			<point x="474" y="1204" type="line" smooth="yes"/>
			<point x="474" y="1280"/>
			<point x="480" y="1300"/>
			<point x="638" y="1300" type="curve" smooth="yes"/>
			<point x="686" y="1300" type="line"/>
			<point x="686" y="1366" type="line"/>
			<point x="526" y="1360"/>
			<point x="522" y="1360"/>
			<point x="382" y="1360" type="curve" smooth="yes"/>
			<point x="242" y="1360"/>
			<point x="238" y="1360"/>
			<point x="78" y="1366" type="curve"/>
			<point x="78" y="1300" type="line"/>
			<point x="126" y="1300" type="line" smooth="yes"/>
			<point x="284" y="1300"/>
			<point x="290" y="1280"/>
			<point x="290" y="1204" type="curve" smooth="yes"/>
			<point x="290" y="162" type="line" smooth="yes"/>
			<point x="290" y="86"/>
			<point x="284" y="66"/>
			<point x="126" y="66" type="curve" smooth="yes"/>
			<point x="78" y="66" type="line"/>
		</contour>
	</outline>
</glyph>
<glyph name="J" format="2">
	<unicode hex="004A"/>
	<advance width="1090"/>
	<outline>
		<contour>
			<point x="438" y="-42" type="curve" smooth="yes"/>
			<point x="622" y="-42"/>
			<point x="824" y="78"/>
			<point x="824" y="298" type="curve" smooth="yes"/>
			<point x="824" y="1210" type="line" smooth="yes"/>
			<point x="824" y="1300"/>
			<point x="848" y="1300"/>
			<point x="976" y="1300" type="curve"/>
			<point x="976" y="1300" type="line"/>
			<point x="976" y="1366" type="line"/>
			<point x="874" y="1360"/>
			<point x="818" y="1360"/>
			<point x="706" y="1360" type="curve" smooth="yes"/>
			<point x="618" y="1360"/>
			<point x="466" y="1360"/>
			<point x="384" y="1366" type="curve"/>
			<point x="384" y="1300" type="line"/>
			<point x="452" y="1300" type="line" smooth="yes"/>
			<point x="640" y="1300"/>
			<point x="646" y="1276"/>
			<point x="646" y="1202" type="curve" smooth="yes"/>
			<point x="646" y="298" type="line" smooth="yes"/>
			<point x="646" y="114"/>
			<point x="538" y="14"/>
			<point x="432" y="14" type="curve" smooth="yes"/>
			<point x="346" y="14"/>
			<point x="254" y="54"/>
			<point x="208" y="116" type="curve"/>
			<point x="264" y="118"/>
			<point x="324" y="152"/>
			<point x="324" y="228" type="curve" smooth="yes"/>
			<point x="324" y="298"/>
			<point x="270" y="338"/>
			<point x="214" y="338" type="curve" smooth="yes"/>
			<point x="172" y="338"/>
			<point x="104" y="310"/>
			<point x="104" y="224" type="curve" smooth="yes"/>
			<point x="104" y="76"/>
			<point x="250" y="-42"/>
		</contour>
	</outline>
</glyph>
<glyph name="K" format="2">
	<unicode hex="004B"/>
	<advance width="1650"/>
	<outline>
		<contour>
			<point x="88" y="0" type="line"/>
			<point x="258" y="6"/>
			<point x="262" y="6"/>
			<point x="382" y="6" type="curve" smooth="yes"/>
			<point x="502" y="6"/>
			<point x="506" y="6"/>
			<point x="676" y="0" type="curve"/>
			<point x="676" y="66" type="line"/>
			<point x="632" y="66" type="line" smooth="yes"/>
			<point x="478" y="66"/>
			<point x="474" y="88"/>
			<point x="474" y="162" type="curve" smooth="yes"/>
			<point x="474" y="496" type="line"/>
			<point x="732" y="724" type="line"/>
			<point x="1122" y="190" type="line" smooth="yes"/>
			<point x="1142" y="164"/>
			<point x="1154" y="146"/>
			<point x="1154" y="122" type="curve" smooth="yes"/>
			<point x="1154" y="66"/>
			<point x="1084" y="66"/>
			<point x="1048" y="66" type="curve"/>
			<point x="1048" y="0" type="line"/>
			<point x="1218" y="6"/>
			<point x="1222" y="6"/>
			<point x="1322" y="6" type="curve" smooth="yes"/>
			<point x="1376" y="6"/>
			<point x="1488" y="6"/>
			<point x="1558" y="0" type="curve"/>
			<point x="1558" y="66" type="line"/>
			<point x="1486" y="66"/>
			<point x="1418" y="66"/>
			<point x="1360" y="146" type="curve" smooth="yes"/>
			<point x="854" y="832" type="line"/>
			<point x="1246" y="1178" type="line" smooth="yes"/>
			<point x="1378" y="1296"/>
			<point x="1484" y="1298"/>
			<point x="1530" y="1300" type="curve"/>
			<point x="1530" y="1366" type="line"/>
			<point x="1452" y="1360"/>
			<point x="1448" y="1360"/>
			<point x="1344" y="1360" type="curve" smooth="yes"/>
			<point x="1242" y="1360"/>
			<point x="1236" y="1360"/>
			<point x="1104" y="1366" type="curve"/>
			<point x="1104" y="1300" type="line"/>
			<point x="1144" y="1298"/>
			<point x="1180" y="1280"/>
			<point x="1180" y="1240" type="curve" smooth="yes"/>
			<point x="1180" y="1224"/>
			<point x="1174" y="1198"/>
			<point x="1136" y="1164" type="curve" smooth="yes"/>
			<point x="474" y="578" type="line"/>
			<point x="474" y="1204" type="line" smooth="yes"/>
			<point x="474" y="1278"/>
			<point x="478" y="1300"/>
			<point x="632" y="1300" type="curve" smooth="yes"/>
			<point x="676" y="1300" type="line"/>
			<point x="676" y="1366" type="line"/>
			<point x="506" y="1360"/>
			<point x="502" y="1360"/>
			<point x="382" y="1360" type="curve" smooth="yes"/>
			<point x="262" y="1360"/>
			<point x="258" y="1360"/>
			<point x="88" y="1366" type="curve"/>
			<point x="88" y="1300" type="line"/>
			<point x="132" y="1300" type="line" smooth="yes"/>
			<point x="286" y="1300"/>
			<point x="290" y="1278"/>
			<point x="290" y="1204" type="curve" smooth="yes"/>
			<point x="290" y="162" type="line" smooth="yes"/>
			<point x="290" y="88"/>
			<point x="286" y="66"/>
			<point x="132" y="66" type="curve" smooth="yes"/>
			<point x="88" y="66" type="line"/>
		</contour>
	</outline>
</glyph>
<glyph name="L" format="2">
	<unicode hex="004C"/>
	<advance width="1326"/>
	<outline>
		<contour>
			<point x="1238" y="520" type="line"/>
			<point x="1176" y="520" type="line"/>
			<point x="1152" y="312"/>
			<point x="1122" y="66"/>
			<point x="756" y="66" type="curve" smooth="yes"/>
			<point x="570" y="66" type="line" smooth="yes"/>
			<point x="478" y="66"/>
			<point x="474" y="80"/>
			<point x="474" y="148" type="curve" smooth="yes"/>
			<point x="474" y="1202" type="line" smooth="yes"/>
			<point x="474" y="1272"/>
			<point x="474" y="1300"/>
			<point x="662" y="1300" type="curve" smooth="yes"/>
			<point x="726" y="1300" type="line"/>
			<point x="726" y="1366" type="line"/>
			<point x="636" y="1360"/>
			<point x="490" y="1360"/>
			<point x="396" y="1360" type="curve" smooth="yes"/>
			<point x="262" y="1360"/>
			<point x="258" y="1360"/>
			<point x="88" y="1366" type="curve"/>
			<point x="88" y="1300" type="line"/>
			<point x="132" y="1300" type="line" smooth="yes"/>
			<point x="286" y="1300"/>
			<point x="290" y="1278"/>
			<point x="290" y="1204" type="curve" smooth="yes"/>
			<point x="290" y="162" type="line" smooth="yes"/>
			<point x="290" y="88"/>
			<point x="286" y="66"/>
			<point x="132" y="66" type="curve" smooth="yes"/>
			<point x="88" y="66" type="line"/>
			<point x="88" y="0" type="line"/>
			<point x="1180" y="0" type="line"/>
		</contour>
	</outline>
</glyph>
<glyph name="M" format="2">
	<unicode hex="004D"/>
	<advance width="1944"/>
	<outline>
		<contour>
			<point x="972" y="190" type="line"/>
			<point x="508" y="1320" type="line" smooth="yes"/>
			<point x="492" y="1360"/>
			<point x="490" y="1366"/>
			<point x="434" y="1366" type="curve" smooth="yes"/>
			<point x="98" y="1366" type="line"/>
			<point x="98" y="1300" type="line"/>
			<point x="142" y="1300" type="line" smooth="yes"/>
			<point x="296" y="1300"/>
			<point x="300" y="1278"/>
			<point x="300" y="1204" type="curve" smooth="yes"/>
			<point x="300" y="214" type="line" smooth="yes"/>
			<point x="300" y="162"/>
			<point x="300" y="66"/>
			<point x="98" y="66" type="curve"/>
			<point x="98" y="66" type="line"/>
			<point x="98" y="0" type="line"/>
			<point x="188" y="6"/>
			<point x="282" y="6"/>
			<point x="334" y="6" type="curve" smooth="yes"/>
			<point x="386" y="6"/>
			<point x="480" y="6"/>
			<point x="570" y="0" type="curve"/>
			<point x="570" y="66" type="line"/>
			<point x="570" y="66" type="line"/>
			<point x="368" y="66"/>
			<point x="368" y="162"/>
			<point x="368" y="214" type="curve" smooth="yes"/>
			<point x="368" y="1276" type="line"/>
			<point x="370" y="1278" type="line"/>
			<point x="874" y="48" type="line" smooth="yes"/>
			<point x="886" y="22"/>
			<point x="894" y="0"/>
			<point x="922" y="0" type="curve" smooth="yes"/>
			<point x="948" y="0"/>
			<point x="958" y="24"/>
			<point x="968" y="48" type="curve" smooth="yes"/>
			<point x="1478" y="1294" type="line"/>
			<point x="1480" y="1292" type="line"/>
			<point x="1480" y="162" type="line" smooth="yes"/>
			<point x="1480" y="88"/>
			<point x="1476" y="66"/>
			<point x="1322" y="66" type="curve" smooth="yes"/>
			<point x="1278" y="66" type="line"/>
			<point x="1278" y="0" type="line"/>
			<point x="1436" y="6"/>
			<point x="1440" y="6"/>
			<point x="1562" y="6" type="curve" smooth="yes"/>
			<point x="1684" y="6"/>
			<point x="1688" y="6"/>
			<point x="1846" y="0" type="curve"/>
			<point x="1846" y="66" type="line"/>
			<point x="1802" y="66" type="line" smooth="yes"/>
			<point x="1648" y="66"/>
			<point x="1644" y="88"/>
			<point x="1644" y="162" type="curve" smooth="yes"/>
			<point x="1644" y="1204" type="line" smooth="yes"/>
			<point x="1644" y="1278"/>
			<point x="1648" y="1300"/>
			<point x="1802" y="1300" type="curve" smooth="yes"/>
			<point x="1846" y="1300" type="line"/>
			<point x="1846" y="1366" type="line"/>
			<point x="1508" y="1366" type="line" smooth="yes"/>
			<point x="1454" y="1366"/>
			<point x="1450" y="1360"/>
			<point x="1436" y="1324" type="curve" smooth="yes"/>
		</contour>
	</outline>
</glyph>
<glyph name="N" format="2">
	<unicode hex="004E"/>
	<advance width="1590"/>
	<outline>
		<contour>
			<point x="1232" y="298" type="line"/>
			<point x="486" y="1336" type="line" smooth="yes"/>
			<point x="464" y="1364"/>
			<point x="462" y="1366"/>
			<point x="422" y="1366" type="curve" smooth="yes"/>
			<point x="88" y="1366" type="line"/>
			<point x="88" y="1300" type="line"/>
			<point x="144" y="1300" type="line" smooth="yes"/>
			<point x="180" y="1300"/>
			<point x="196" y="1300"/>
			<point x="236" y="1296" type="curve" smooth="yes"/>
			<point x="288" y="1290"/>
			<point x="290" y="1288"/>
			<point x="290" y="1250" type="curve" smooth="yes"/>
			<point x="290" y="214" type="line" smooth="yes"/>
			<point x="290" y="162"/>
			<point x="290" y="66"/>
			<point x="88" y="66" type="curve"/>
			<point x="88" y="66" type="line"/>
			<point x="88" y="0" type="line"/>
			<point x="178" y="6"/>
			<point x="272" y="6"/>
			<point x="324" y="6" type="curve" smooth="yes"/>
			<point x="376" y="6"/>
			<point x="470" y="6"/>
			<point x="560" y="0" type="curve"/>
			<point x="560" y="66" type="line"/>
			<point x="560" y="66" type="line"/>
			<point x="358" y="66"/>
			<point x="358" y="162"/>
			<point x="358" y="214" type="curve" smooth="yes"/>
			<point x="358" y="1234" type="line"/>
			<point x="358" y="1234"/>
			<point x="358" y="1234"/>
			<point x="358" y="1234" type="curve"/>
			<point x="1224" y="30" type="line" smooth="yes"/>
			<point x="1242" y="6"/>
			<point x="1246" y="0"/>
			<point x="1266" y="0" type="curve" smooth="yes"/>
			<point x="1300" y="0"/>
			<point x="1300" y="20"/>
			<point x="1300" y="56" type="curve" smooth="yes"/>
			<point x="1300" y="1152" type="line" smooth="yes"/>
			<point x="1300" y="1204"/>
			<point x="1300" y="1300"/>
			<point x="1502" y="1300" type="curve"/>
			<point x="1502" y="1300" type="line"/>
			<point x="1502" y="1366" type="line"/>
			<point x="1412" y="1360"/>
			<point x="1318" y="1360"/>
			<point x="1266" y="1360" type="curve" smooth="yes"/>
			<point x="1214" y="1360"/>
			<point x="1120" y="1360"/>
			<point x="1030" y="1366" type="curve"/>
			<point x="1030" y="1300" type="line"/>
			<point x="1030" y="1300" type="line"/>
			<point x="1232" y="1300"/>
			<point x="1232" y="1204"/>
			<point x="1232" y="1152" type="curve" smooth="yes"/>
		</contour>
	</outline>
</glyph>
<glyph name="O" format="2">
	<unicode hex="004F"/>
	<advance width="1652"/>
	<outline>
		<contour>
			<point x="1532" y="678" type="curve" smooth="yes"/>
			<point x="1532" y="1080"/>
			<point x="1214" y="1408"/>
			<point x="826" y="1408" type="curve" smooth="yes"/>
			<point x="432" y="1408"/>
			<point x="118" y="1078"/>
			<point x="118" y="678" type="curve" smooth="yes"/>
			<point x="118" y="270"/>
			<point x="444" y="-42"/>
			<point x="824" y="-42" type="curve" smooth="yes"/>
			<point x="1212" y="-42"/>
			<point x="1532" y="274"/>
		</contour>
		<contour>
			<point x="826" y="24" type="curve" smooth="yes"/>
			<point x="722" y="24"/>
			<point x="602" y="66"/>
			<point x="506" y="165" type="curve" smooth="yes"/>
			<point x="402" y="272"/>
			<point x="326" y="447"/>
			<point x="326" y="708" type="curve" smooth="yes"/>
			<point x="326" y="950"/>
			<point x="401" y="1110"/>
			<point x="501" y="1210" type="curve" smooth="yes"/>
			<point x="599" y="1307"/>
			<point x="722" y="1346"/>
			<point x="824" y="1346" type="curve" smooth="yes"/>
			<point x="929" y="1346"/>
			<point x="1051" y="1306"/>
			<point x="1148" y="1210" type="curve" smooth="yes"/>
			<point x="1250" y="1110"/>
			<point x="1324" y="948"/>
			<point x="1324" y="708" type="curve" smooth="yes"/>
			<point x="1324" y="441"/>
			<point x="1244" y="265"/>
			<point x="1138" y="159" type="curve" smooth="yes"/>
			<point x="1043" y="64"/>
			<point x="926" y="24"/>
		</contour>
	</outline>
</glyph>
<glyph name="P" format="2">
	<unicode hex="0050"/>
	<advance width="1444"/>
	<outline>
		<contour>
			<point x="478" y="624" type="line"/>
			<point x="842" y="624" type="line" smooth="yes"/>
			<point x="1088" y="624"/>
			<point x="1326" y="782"/>
			<point x="1326" y="992" type="curve" smooth="yes"/>
			<point x="1326" y="1188"/>
			<point x="1114" y="1366"/>
			<point x="826" y="1366" type="curve" smooth="yes"/>
			<point x="92" y="1366" type="line"/>
			<point x="92" y="1300" type="line"/>
			<point x="136" y="1300" type="line" smooth="yes"/>
			<point x="290" y="1300"/>
			<point x="294" y="1278"/>
			<point x="294" y="1204" type="curve" smooth="yes"/>
			<point x="294" y="162" type="line" smooth="yes"/>
			<point x="294" y="88"/>
			<point x="290" y="66"/>
			<point x="136" y="66" type="curve" smooth="yes"/>
			<point x="92" y="66" type="line"/>
			<point x="92" y="0" type="line"/>
			<point x="262" y="6"/>
			<point x="266" y="6"/>
			<point x="386" y="6" type="curve" smooth="yes"/>
			<point x="506" y="6"/>
			<point x="510" y="6"/>
			<point x="680" y="0" type="curve"/>
			<point x="680" y="66" type="line"/>
			<point x="636" y="66" type="line" smooth="yes"/>
			<point x="482" y="66"/>
			<point x="478" y="88"/>
			<point x="478" y="162" type="curve" smooth="yes"/>
		</contour>
		<contour>
			<point x="472" y="684" type="line"/>
			<point x="472" y="1218" type="line" smooth="yes"/>
			<point x="472" y="1286"/>
			<point x="476" y="1300"/>
			<point x="568" y="1300" type="curve" smooth="yes"/>
			<point x="776" y="1300" type="line" smooth="yes"/>
			<point x="1118" y="1300"/>
			<point x="1118" y="1082"/>
			<point x="1118" y="992" type="curve" smooth="yes"/>
			<point x="1118" y="904"/>
			<point x="1118" y="684"/>
			<point x="776" y="684" type="curve" smooth="yes"/>
		</contour>
	</outline>
</glyph>
<glyph name="Q" format="2">
	<unicode hex="0051"/>
	<advance width="1652"/>
	<outline>
		<contour>
			<point x="1100" y="16" type="curve"/>
			<point x="1284" y="86"/>
			<point x="1532" y="318"/>
			<point x="1532" y="678" type="curve" smooth="yes"/>
			<point x="1532" y="1080"/>
			<point x="1214" y="1408"/>
			<point x="826" y="1408" type="curve" smooth="yes"/>
			<point x="432" y="1408"/>
			<point x="118" y="1078"/>
			<point x="118" y="678" type="curve" smooth="yes"/>
			<point x="118" y="274"/>
			<point x="438" y="-42"/>
			<point x="826" y="-42" type="curve" smooth="yes"/>
			<point x="890" y="-42"/>
			<point x="958" y="-32"/>
			<point x="1020" y="-14" type="curve"/>
			<point x="1062" y="-218"/>
			<point x="1098" y="-388"/>
			<point x="1284" y="-388" type="curve" smooth="yes"/>
			<point x="1492" y="-388"/>
			<point x="1544" y="-132"/>
			<point x="1544" y="-18" type="curve" smooth="yes"/>
			<point x="1544" y="0"/>
			<point x="1544" y="28"/>
			<point x="1516" y="28" type="curve" smooth="yes"/>
			<point x="1492" y="28"/>
			<point x="1490" y="6"/>
			<point x="1488" y="-8" type="curve" smooth="yes"/>
			<point x="1476" y="-130"/>
			<point x="1378" y="-180"/>
			<point x="1300" y="-180" type="curve" smooth="yes"/>
			<point x="1216" y="-180"/>
			<point x="1164" y="-132"/>
		</contour>
		<contour>
			<point x="672" y="48" type="curve"/>
			<point x="460" y="130"/>
			<point x="320" y="342"/>
			<point x="320" y="678" type="curve" smooth="yes"/>
			<point x="320" y="929"/>
			<point x="396" y="1099"/>
			<point x="501" y="1205" type="curve" smooth="yes"/>
			<point x="597" y="1303"/>
			<point x="718" y="1346"/>
			<point x="824" y="1346" type="curve" smooth="yes"/>
			<point x="933" y="1346"/>
			<point x="1053" y="1303"/>
			<point x="1148" y="1207" type="curve" smooth="yes"/>
			<point x="1254" y="1100"/>
			<point x="1330" y="928"/>
			<point x="1330" y="678" type="curve" smooth="yes"/>
			<point x="1330" y="428"/>
			<point x="1252" y="212"/>
			<point x="1068" y="92" type="curve"/>
			<point x="990" y="276"/>
			<point x="894" y="302"/>
			<point x="826" y="302" type="curve" smooth="yes"/>
			<point x="726" y="302"/>
			<point x="650" y="224"/>
			<point x="650" y="132" type="curve" smooth="yes"/>
			<point x="650" y="94"/>
			<point x="664" y="62"/>
		</contour>
		<contour>
			<point x="1004" y="58" type="curve"/>
			<point x="936" y="28"/>
			<point x="876" y="20"/>
			<point x="826" y="20" type="curve" smooth="yes"/>
			<point x="722" y="20"/>
			<point x="706" y="106"/>
			<point x="706" y="132" type="curve" smooth="yes"/>
			<point x="706" y="188"/>
			<point x="752" y="246"/>
			<point x="828" y="246" type="curve" smooth="yes"/>
			<point x="926" y="246"/>
			<point x="974" y="174"/>
		</contour>
	</outline>
</glyph>
<glyph name="R" format="2">
	<unicode hex="0052"/>
	<advance width="1562"/>
	<outline>
		<contour>
			<point x="948" y="680" type="curve"/>
			<point x="1104" y="720"/>
			<point x="1296" y="834"/>
			<point x="1296" y="1006" type="curve" smooth="yes"/>
			<point x="1296" y="1204"/>
			<point x="1042" y="1366"/>
			<point x="744" y="1366" type="curve" smooth="yes"/>
			<point x="92" y="1366" type="line"/>
			<point x="92" y="1300" type="line"/>
			<point x="136" y="1300" type="line" smooth="yes"/>
			<point x="290" y="1300"/>
			<point x="294" y="1278"/>
			<point x="294" y="1204" type="curve" smooth="yes"/>
			<point x="294" y="162" type="line" smooth="yes"/>
			<point x="294" y="88"/>
			<point x="290" y="66"/>
			<point x="136" y="66" type="curve" smooth="yes"/>
			<point x="92" y="66" type="line"/>
			<point x="92" y="0" type="line"/>
			<point x="262" y="6"/>
			<point x="266" y="6"/>
			<point x="382" y="6" type="curve" smooth="yes"/>
			<point x="500" y="6"/>
			<point x="504" y="6"/>
			<point x="674" y="0" type="curve"/>
			<point x="674" y="66" type="line"/>
			<point x="630" y="66" type="line" smooth="yes"/>
			<point x="476" y="66"/>
			<point x="472" y="88"/>
			<point x="472" y="162" type="curve" smooth="yes"/>
			<point x="472" y="656" type="line"/>
			<point x="724" y="656" type="line" smooth="yes"/>
			<point x="872" y="656"/>
			<point x="938" y="582"/>
			<point x="952" y="566" type="curve" smooth="yes"/>
			<point x="1010" y="502"/>
			<point x="1010" y="464"/>
			<point x="1010" y="328" type="curve" smooth="yes"/>
			<point x="1010" y="202"/>
			<point x="1010" y="116"/>
			<point x="1094" y="42" type="curve" smooth="yes"/>
			<point x="1180" y="-32"/>
			<point x="1292" y="-42"/>
			<point x="1350" y="-42" type="curve" smooth="yes"/>
			<point x="1516" y="-42"/>
			<point x="1556" y="122"/>
			<point x="1556" y="182" type="curve" smooth="yes"/>
			<point x="1556" y="194"/>
			<point x="1556" y="220"/>
			<point x="1524" y="220" type="curve" smooth="yes"/>
			<point x="1496" y="220"/>
			<point x="1496" y="198"/>
			<point x="1494" y="184" type="curve"/>
			<point x="1484" y="58"/>
			<point x="1414" y="14"/>
			<point x="1358" y="14" type="curve" smooth="yes"/>
			<point x="1285" y="14"/>
			<point x="1256" y="56"/>
			<point x="1233" y="163" type="curve" smooth="yes"/>
			<point x="1223" y="214"/>
			<point x="1214" y="279"/>
			<point x="1202" y="360" type="curve" smooth="yes"/>
			<point x="1188" y="474"/>
			<point x="1168" y="612"/>
		</contour>
		<contour>
			<point x="472" y="712" type="line"/>
			<point x="472" y="1218" type="line" smooth="yes"/>
			<point x="472" y="1270"/>
			<point x="474" y="1292"/>
			<point x="522" y="1298" type="curve" smooth="yes"/>
			<point x="540" y="1300"/>
			<point x="604" y="1300"/>
			<point x="644" y="1300" type="curve" smooth="yes"/>
			<point x="824" y="1300"/>
			<point x="1088" y="1300"/>
			<point x="1088" y="1006" type="curve" smooth="yes"/>
			<point x="1088" y="784"/>
			<point x="928" y="712"/>
			<point x="718" y="712" type="curve" smooth="yes"/>
		</contour>
	</outline>
</glyph>
<glyph name="S" format="2">
	<unicode hex="0053"/>
	<advance width="1180"/>
	<outline>
		<contour>
			<point x="934" y="308" type="curve" smooth="yes"/>
			<point x="934" y="170"/>
			<point x="828" y="24"/>
			<point x="640" y="24" type="curve" smooth="yes"/>
			<point x="420" y="24"/>
			<point x="192" y="130"/>
			<point x="180" y="408" type="curve" smooth="yes"/>
			<point x="178" y="440"/>
			<point x="178" y="454"/>
			<point x="150" y="454" type="curve" smooth="yes"/>
			<point x="118" y="454"/>
			<point x="118" y="438"/>
			<point x="118" y="400" type="curve" smooth="yes"/>
			<point x="118" y="10" type="line" smooth="yes"/>
			<point x="118" y="-22"/>
			<point x="118" y="-42"/>
			<point x="144" y="-42" type="curve" smooth="yes"/>
			<point x="160" y="-42"/>
			<point x="162" y="-38"/>
			<point x="176" y="-18" type="curve" smooth="yes"/>
			<point x="200" y="20"/>
			<point x="224" y="58"/>
			<point x="248" y="96" type="curve"/>
			<point x="374" y="-16"/>
			<point x="522" y="-42"/>
			<point x="642" y="-42" type="curve" smooth="yes"/>
			<point x="892" y="-42"/>
			<point x="1060" y="156"/>
			<point x="1060" y="370" type="curve" smooth="yes"/>
			<point x="1060" y="476"/>
			<point x="1018" y="584"/>
			<point x="938" y="662" type="curve" smooth="yes"/>
			<point x="887" y="713"/>
			<point x="822" y="751"/>
			<point x="742" y="770" type="curve" smooth="yes"/>
			<point x="650" y="792"/>
			<point x="558" y="812"/>
			<point x="466" y="834" type="curve" smooth="yes"/>
			<point x="338" y="864"/>
			<point x="244" y="966"/>
			<point x="244" y="1088" type="curve" smooth="yes"/>
			<point x="244" y="1222"/>
			<point x="360" y="1348"/>
			<point x="534" y="1348" type="curve" smooth="yes"/>
			<point x="880" y="1348"/>
			<point x="926" y="1024"/>
			<point x="936" y="948" type="curve" smooth="yes"/>
			<point x="940" y="926"/>
			<point x="942" y="912"/>
			<point x="968" y="912" type="curve" smooth="yes"/>
			<point x="1000" y="912"/>
			<point x="1000" y="926"/>
			<point x="1000" y="964" type="curve" smooth="yes"/>
			<point x="1000" y="1356" type="line" smooth="yes"/>
			<point x="1000" y="1388"/>
			<point x="1000" y="1408"/>
			<point x="974" y="1408" type="curve" smooth="yes"/>
			<point x="958" y="1408"/>
			<point x="954" y="1402"/>
			<point x="940" y="1380" type="curve" smooth="yes"/>
			<point x="917" y="1343"/>
			<point x="893" y="1305"/>
			<point x="870" y="1268" type="curve"/>
			<point x="770" y="1378"/>
			<point x="642" y="1408"/>
			<point x="532" y="1408" type="curve" smooth="yes"/>
			<point x="294" y="1408"/>
			<point x="118" y="1228"/>
			<point x="118" y="1024" type="curve" smooth="yes"/>
			<point x="118" y="872"/>
			<point x="204" y="788"/>
			<point x="242" y="750" type="curve" smooth="yes"/>
			<point x="314" y="678"/>
			<point x="380" y="662"/>
			<point x="596" y="612" type="curve" smooth="yes"/>
			<point x="768" y="572"/>
			<point x="798" y="566"/>
			<point x="864" y="496" type="curve" smooth="yes"/>
			<point x="884" y="474"/>
			<point x="934" y="406"/>
		</contour>
	</outline>
</glyph>
<glyph name="T" format="2">
	<unicode hex="0054"/>
	<advance width="1534"/>
	<outline>
		<contour>
			<point x="1416" y="1352" type="line"/>
			<point x="116" y="1352" type="line"/>
			<point x="76" y="898" type="line"/>
			<point x="138" y="898" type="line"/>
			<point x="166" y="1236"/>
			<point x="212" y="1286"/>
			<point x="518" y="1286" type="curve" smooth="yes"/>
			<point x="556" y="1286"/>
			<point x="618" y="1286"/>
			<point x="634" y="1282" type="curve" smooth="yes"/>
			<point x="672" y="1274"/>
			<point x="674" y="1254"/>
			<point x="674" y="1204" type="curve" smooth="yes"/>
			<point x="674" y="164" type="line" smooth="yes"/>
			<point x="674" y="94"/>
			<point x="674" y="66"/>
			<point x="466" y="66" type="curve" smooth="yes"/>
			<point x="390" y="66" type="line"/>
			<point x="390" y="0" type="line"/>
			<point x="464" y="6"/>
			<point x="680" y="6"/>
			<point x="766" y="6" type="curve" smooth="yes"/>
			<point x="852" y="6"/>
			<point x="1068" y="6"/>
			<point x="1142" y="0" type="curve"/>
			<point x="1142" y="66" type="line"/>
			<point x="1066" y="66" type="line" smooth="yes"/>
			<point x="858" y="66"/>
			<point x="858" y="94"/>
			<point x="858" y="164" type="curve" smooth="yes"/>
			<point x="858" y="1204" type="line" smooth="yes"/>
			<point x="858" y="1250"/>
			<point x="858" y="1274"/>
			<point x="900" y="1282" type="curve" smooth="yes"/>
			<point x="918" y="1286"/>
			<point x="976" y="1286"/>
			<point x="1014" y="1286" type="curve" smooth="yes"/>
			<point x="1320" y="1286"/>
			<point x="1366" y="1236"/>
			<point x="1394" y="898" type="curve"/>
			<point x="1456" y="898" type="line"/>
		</contour>
	</outline>
</glyph>
<glyph name="U" format="2">
  <advance width="795"/>
  <unicode hex="0055"/>
  <outline>
    <contour>
      <point x="413" y="12" type="curve" smooth="yes"/>
      <point x="359" y="12"/>
      <point x="237" y="43"/>
      <point x="237" y="226" type="curve" smooth="yes"/>
      <point x="237" y="602" type="line" smooth="yes"/>
      <point x="237" y="639"/>
      <point x="239" y="650"/>
      <point x="316" y="650" type="curve" smooth="yes"/>
      <point x="338" y="650" type="line"/>
      <point x="338" y="683" type="line"/>
      <point x="253" y="680"/>
      <point x="251" y="680"/>
      <point x="191" y="680" type="curve" smooth="yes"/>
      <point x="131" y="680"/>
      <point x="129" y="680"/>
      <point x="44" y="683" type="curve"/>
      <point x="44" y="650" type="line"/>
      <point x="66" y="650" type="line" smooth="yes"/>
      <point x="143" y="650"/>
      <point x="145" y="639"/>
      <point x="145" y="602" type="curve" smooth="yes"/>
      <point x="145" y="229" type="line" smooth="yes"/>
      <point x="145" y="86"/>
      <point x="269" y="-21"/>
      <point x="411" y="-21" type="curve" smooth="yes"/>
      <point x="545" y="-21"/>
      <point x="650" y="91"/>
      <point x="650" y="228" type="curve" smooth="yes"/>
      <point x="650" y="576" type="line" smooth="yes"/>
      <point x="650" y="602"/>
      <point x="650" y="650"/>
      <point x="751" y="650" type="curve"/>
      <point x="751" y="650" type="line"/>
      <point x="751" y="683" type="line"/>
      <point x="706" y="680"/>
      <point x="661" y="680"/>
      <point x="634" y="680" type="curve" smooth="yes"/>
      <point x="605" y="680"/>
      <point x="561" y="680"/>
      <point x="516" y="683" type="curve"/>
      <point x="516" y="650" type="line"/>
      <point x="516" y="650" type="line"/>
      <point x="617" y="650"/>
      <point x="617" y="602"/>
      <point x="617" y="576" type="curve" smooth="yes"/>
      <point x="617" y="231" type="line" smooth="yes"/>
      <point x="617" y="95"/>
      <point x="515" y="12"/>
    </contour>
  </outline>
</glyph>
<glyph name="V" format="2">
	<unicode hex="0056"/>
	<advance width="1590"/>
	<outline>
		<contour>
			<point x="794" y="-42" type="curve" smooth="yes"/>
			<point x="830" y="-42"/>
			<point x="836" y="-26"/>
			<point x="848" y="2" type="curve" smooth="yes"/>
			<point x="1326" y="1166" type="line" smooth="yes"/>
			<point x="1380" y="1298"/>
			<point x="1506" y="1300"/>
			<point x="1546" y="1300" type="curve"/>
			<point x="1546" y="1300" type="line"/>
			<point x="1546" y="1366" type="line"/>
			<point x="1488" y="1360"/>
			<point x="1386" y="1360"/>
			<point x="1348" y="1360" type="curve" smooth="yes"/>
			<point x="1310" y="1360"/>
			<point x="1218" y="1360"/>
			<point x="1128" y="1366" type="curve"/>
			<point x="1128" y="1300" type="line"/>
			<point x="1216" y="1300"/>
			<point x="1264" y="1256"/>
			<point x="1264" y="1202" type="curve" smooth="yes"/>
			<point x="1264" y="1186"/>
			<point x="1262" y="1180"/>
			<point x="1252" y="1158" type="curve" smooth="yes"/>
			<point x="856" y="190" type="line"/>
			<point x="438" y="1206" type="line" smooth="yes"/>
			<point x="430" y="1226"/>
			<point x="426" y="1234"/>
			<point x="426" y="1242" type="curve" smooth="yes"/>
			<point x="426" y="1300"/>
			<point x="532" y="1300"/>
			<point x="582" y="1300" type="curve"/>
			<point x="582" y="1366" type="line"/>
			<point x="412" y="1360"/>
			<point x="408" y="1360"/>
			<point x="302" y="1360" type="curve" smooth="yes"/>
			<point x="206" y="1360"/>
			<point x="146" y="1360"/>
			<point x="44" y="1366" type="curve"/>
			<point x="44" y="1300" type="line"/>
			<point x="44" y="1300" type="line"/>
			<point x="164" y="1300"/>
			<point x="208" y="1300"/>
			<point x="240" y="1224" type="curve" smooth="yes"/>
			<point x="740" y="2" type="line" smooth="yes"/>
			<point x="756" y="-36"/>
			<point x="772" y="-42"/>
		</contour>
	</outline>
</glyph>
<glyph name="W" format="2">
	<unicode hex="0057"/>
	<advance width="1091"/>
	<outline>
		<contour>
			<point x="375" y="115" type="line"/>
			<point x="207" y="602" type="line" smooth="yes"/>
			<point x="202" y="615"/>
			<point x="202" y="617"/>
			<point x="202" y="619" type="curve" smooth="yes"/>
			<point x="202" y="650"/>
			<point x="255" y="650"/>
			<point x="284" y="650" type="curve"/>
			<point x="284" y="683" type="line"/>
			<point x="198" y="680"/>
			<point x="196" y="680"/>
			<point x="145" y="680" type="curve" smooth="yes"/>
			<point x="107" y="680"/>
			<point x="65" y="680"/>
			<point x="20" y="683" type="curve"/>
			<point x="20" y="650" type="line"/>
			<point x="20" y="650" type="line"/>
			<point x="78" y="650"/>
			<point x="97" y="650"/>
			<point x="110" y="612" type="curve" smooth="yes"/>
			<point x="320" y="2" type="line" smooth="yes"/>
			<point x="325" y="-12"/>
			<point x="329" y="-21"/>
			<point x="345" y="-21" type="curve" smooth="yes"/>
			<point x="359" y="-21"/>
			<point x="365" y="-12"/>
			<point x="369" y="1" type="curve" smooth="yes"/>
			<point x="545" y="512" type="line"/>
			<point x="721" y="2" type="line" smooth="yes"/>
			<point x="725" y="-9"/>
			<point x="729" y="-21"/>
			<point x="745" y="-21" type="curve" smooth="yes"/>
			<point x="761" y="-21"/>
			<point x="765" y="-12"/>
			<point x="770" y="2" type="curve" smooth="yes"/>
			<point x="970" y="582" type="line" smooth="yes"/>
			<point x="984" y="624"/>
			<point x="1011" y="649"/>
			<point x="1070" y="650" type="curve"/>
			<point x="1070" y="650" type="line"/>
			<point x="1070" y="683" type="line"/>
			<point x="1038" y="680"/>
			<point x="1004" y="680"/>
			<point x="973" y="680" type="curve" smooth="yes"/>
			<point x="942" y="680"/>
			<point x="911" y="680"/>
			<point x="857" y="683" type="curve"/>
			<point x="857" y="650" type="line"/>
			<point x="911" y="650"/>
			<point x="940" y="624"/>
			<point x="940" y="597" type="curve" smooth="yes"/>
			<point x="940" y="592"/>
			<point x="940" y="590"/>
			<point x="935" y="577" type="curve" smooth="yes"/>
			<point x="776" y="115" type="line"/>
			<point x="608" y="601" type="line" smooth="yes"/>
			<point x="603" y="614"/>
			<point x="603" y="616"/>
			<point x="603" y="619" type="curve" smooth="yes"/>
			<point x="603" y="650"/>
			<point x="655" y="650"/>
			<point x="684" y="650" type="curve"/>
			<point x="684" y="683" type="line"/>
			<point x="599" y="680"/>
			<point x="597" y="680"/>
			<point x="546" y="680" type="curve" smooth="yes"/>
			<point x="508" y="680"/>
			<point x="466" y="680"/>
			<point x="421" y="683" type="curve"/>
			<point x="421" y="650" type="line"/>
			<point x="421" y="650" type="line"/>
			<point x="474" y="650"/>
			<point x="490" y="648"/>
			<point x="501" y="632" type="curve" smooth="yes"/>
			<point x="510" y="619"/>
			<point x="528" y="560"/>
			<point x="528" y="559" type="curve"/>
		</contour>
	</outline>
</glyph>
<glyph name="X" format="2">
	<unicode hex="0058"/>
	<advance width="1590"/>
	<outline>
		<contour>
			<point x="854" y="768" type="line"/>
			<point x="1150" y="1170" type="line" smooth="yes"/>
			<point x="1244" y="1298"/>
			<point x="1398" y="1300"/>
			<point x="1444" y="1300" type="curve"/>
			<point x="1444" y="1300" type="line"/>
			<point x="1444" y="1366" type="line"/>
			<point x="1374" y="1360"/>
			<point x="1266" y="1360"/>
			<point x="1220" y="1360" type="curve" smooth="yes"/>
			<point x="1112" y="1360"/>
			<point x="1094" y="1360"/>
			<point x="972" y="1366" type="curve"/>
			<point x="972" y="1300" type="line"/>
			<point x="1060" y="1296"/>
			<point x="1082" y="1242"/>
			<point x="1082" y="1214" type="curve" smooth="yes"/>
			<point x="1082" y="1194"/>
			<point x="1076" y="1178"/>
			<point x="1062" y="1160" type="curve" smooth="yes"/>
			<point x="814" y="824" type="line"/>
			<point x="532" y="1210" type="line" smooth="yes"/>
			<point x="526" y="1218"/>
			<point x="518" y="1230"/>
			<point x="518" y="1240" type="curve" smooth="yes"/>
			<point x="518" y="1264"/>
			<point x="556" y="1300"/>
			<point x="636" y="1300" type="curve"/>
			<point x="636" y="1366" type="line"/>
			<point x="470" y="1360"/>
			<point x="466" y="1360"/>
			<point x="350" y="1360" type="curve" smooth="yes"/>
			<point x="228" y="1360"/>
			<point x="202" y="1360"/>
			<point x="86" y="1366" type="curve"/>
			<point x="86" y="1300" type="line"/>
			<point x="120" y="1300" type="line" smooth="yes"/>
			<point x="240" y="1300"/>
			<point x="270" y="1282"/>
			<point x="308" y="1230" type="curve" smooth="yes"/>
			<point x="708" y="680" type="line"/>
			<point x="350" y="194" type="line" smooth="yes"/>
			<point x="256" y="66"/>
			<point x="98" y="66"/>
			<point x="56" y="66" type="curve"/>
			<point x="56" y="66" type="line"/>
			<point x="56" y="0" type="line"/>
			<point x="126" y="6"/>
			<point x="240" y="6"/>
			<point x="282" y="6" type="curve" smooth="yes"/>
			<point x="382" y="6"/>
			<point x="408" y="6"/>
			<point x="530" y="0" type="curve"/>
			<point x="530" y="66" type="line"/>
			<point x="434" y="70"/>
			<point x="418" y="132"/>
			<point x="418" y="152" type="curve" smooth="yes"/>
			<point x="418" y="158"/>
			<point x="418" y="178"/>
			<point x="442" y="210" type="curve" smooth="yes"/>
			<point x="748" y="624" type="line"/>
			<point x="1084" y="158" type="line"/>
			<point x="1102" y="136"/>
			<point x="1102" y="132"/>
			<point x="1102" y="126" type="curve" smooth="yes"/>
			<point x="1102" y="100"/>
			<point x="1064" y="68"/>
			<point x="984" y="66" type="curve"/>
			<point x="984" y="0" type="line"/>
			<point x="1156" y="6"/>
			<point x="1160" y="6"/>
			<point x="1270" y="6" type="curve" smooth="yes"/>
			<point x="1370" y="6"/>
			<point x="1426" y="6"/>
			<point x="1534" y="0" type="curve"/>
			<point x="1534" y="66" type="line"/>
			<point x="1500" y="66" type="line" smooth="yes"/>
			<point x="1378" y="66"/>
			<point x="1350" y="84"/>
			<point x="1310" y="138" type="curve" smooth="yes"/>
		</contour>
	</outline>
</glyph>
<glyph name="Y" format="2">
	<unicode hex="0059"/>
	<advance width="1590"/>
	<outline>
		<contour>
			<point x="706" y="546" type="line"/>
			<point x="706" y="162" type="line" smooth="yes"/>
			<point x="706" y="88"/>
			<point x="702" y="66"/>
			<point x="548" y="66" type="curve" smooth="yes"/>
			<point x="504" y="66" type="line"/>
			<point x="504" y="0" type="line"/>
			<point x="674" y="6"/>
			<point x="678" y="6"/>
			<point x="794" y="6" type="curve" smooth="yes"/>
			<point x="922" y="6"/>
			<point x="926" y="6"/>
			<point x="1084" y="0" type="curve"/>
			<point x="1084" y="66" type="line"/>
			<point x="1040" y="66" type="line" smooth="yes"/>
			<point x="884" y="66"/>
			<point x="884" y="90"/>
			<point x="884" y="156" type="curve" smooth="yes"/>
			<point x="884" y="548" type="line"/>
			<point x="1300" y="1166" type="line" smooth="yes"/>
			<point x="1330" y="1210"/>
			<point x="1390" y="1298"/>
			<point x="1560" y="1300" type="curve"/>
			<point x="1560" y="1300" type="line"/>
			<point x="1560" y="1366" type="line"/>
			<point x="1500" y="1360"/>
			<point x="1398" y="1360"/>
			<point x="1360" y="1360" type="curve" smooth="yes"/>
			<point x="1298" y="1360"/>
			<point x="1238" y="1360"/>
			<point x="1140" y="1366" type="curve"/>
			<point x="1140" y="1300" type="line"/>
			<point x="1212" y="1298"/>
			<point x="1242" y="1264"/>
			<point x="1242" y="1226" type="curve" smooth="yes"/>
			<point x="1242" y="1200"/>
			<point x="1228" y="1180"/>
			<point x="1216" y="1162" type="curve" smooth="yes"/>
			<point x="862" y="632" type="line"/>
			<point x="472" y="1214" type="line" smooth="yes"/>
			<point x="462" y="1228"/>
			<point x="454" y="1240"/>
			<point x="454" y="1254" type="curve" smooth="yes"/>
			<point x="454" y="1300"/>
			<point x="540" y="1300"/>
			<point x="584" y="1300" type="curve"/>
			<point x="584" y="1366" type="line"/>
			<point x="412" y="1360"/>
			<point x="408" y="1360"/>
			<point x="296" y="1360" type="curve" smooth="yes"/>
			<point x="186" y="1360"/>
			<point x="138" y="1360"/>
			<point x="30" y="1366" type="curve"/>
			<point x="30" y="1300" type="line"/>
			<point x="64" y="1300" type="line" smooth="yes"/>
			<point x="170" y="1300"/>
			<point x="210" y="1288"/>
			<point x="250" y="1228" type="curve" smooth="yes"/>
		</contour>
	</outline>
</glyph>
<glyph name="Z" format="2">
	<unicode hex="005A"/>
	<advance width="1298"/>
	<outline>
		<contour>
			<point x="174" y="0" type="curve" smooth="yes"/>
			<point x="1154" y="0" type="line"/>
			<point x="1190" y="538" type="line"/>
			<point x="1128" y="538" type="line"/>
			<point x="1112" y="260"/>
			<point x="1068" y="72"/>
			<point x="690" y="72" type="curve" smooth="yes"/>
			<point x="336" y="72" type="line"/>
			<point x="1162" y="1288" type="line" smooth="yes"/>
			<point x="1178" y="1312"/>
			<point x="1178" y="1320"/>
			<point x="1178" y="1330" type="curve" smooth="yes"/>
			<point x="1178" y="1366"/>
			<point x="1158" y="1366"/>
			<point x="1122" y="1366" type="curve" smooth="yes"/>
			<point x="172" y="1366" type="line"/>
			<point x="148" y="912" type="line"/>
			<point x="210" y="912" type="line"/>
			<point x="226" y="1208"/>
			<point x="364" y="1300"/>
			<point x="628" y="1300" type="curve" smooth="yes"/>
			<point x="962" y="1300" type="line"/>
			<point x="134" y="82" type="line" smooth="yes"/>
			<point x="118" y="58"/>
			<point x="118" y="48"/>
			<point x="118" y="38" type="curve" smooth="yes"/>
			<point x="118" y="0"/>
			<point x="136" y="0"/>
		</contour>
	</outline>
</glyph>
<glyph name="bracketleft" format="2">
	<unicode hex="005B"/>
	<advance width="590"/>
	<outline>
		<contour>
			<point x="542" y="1408" type="line"/>
			<point x="542" y="1500" type="line"/>
			<point x="248" y="1500" type="line"/>
			<point x="248" y="-500" type="line"/>
			<point x="542" y="-500" type="line"/>
			<point x="542" y="-408" type="line"/>
			<point x="340" y="-408" type="line"/>
			<point x="340" y="1408" type="line"/>
		</contour>
	</outline>
</glyph>
<glyph name="bracketright" format="2">
	<unicode hex="005D"/>
	<advance width="590"/>
	<outline>
		<contour>
			<point x="340" y="1500" type="line"/>
			<point x="46" y="1500" type="line"/>
			<point x="46" y="1408" type="line"/>
			<point x="248" y="1408" type="line"/>
			<point x="248" y="-408" type="line"/>
			<point x="46" y="-408" type="line"/>
			<point x="46" y="-500" type="line"/>
			<point x="340" y="-500" type="line"/>
		</contour>
	</outline>
</glyph>
<glyph name="grave" format="2">
	<unicode hex="0060"/>
	<advance width="1062"/>
	<outline>
		<contour>
			<point x="582" y="1014" type="line"/>
			<point x="624" y="1060" type="line"/>
			<point x="372" y="1356" type="line" smooth="yes"/>
			<point x="348" y="1384"/>
			<point x="338" y="1396"/>
			<point x="306" y="1396" type="curve" smooth="yes"/>
			<point x="270" y="1396"/>
			<point x="228" y="1362"/>
			<point x="228" y="1316" type="curve" smooth="yes"/>
			<point x="228" y="1286"/>
			<point x="244" y="1268"/>
			<point x="268" y="1250" type="curve" smooth="yes"/>
		</contour>
	</outline>
</glyph>
<glyph name="a" format="2">
	<unicode hex="0061"/>
	<advance width="1062"/>
	<outline>
		<contour>
			<point x="88" y="204" type="curve" smooth="yes"/>
			<point x="88" y="32"/>
			<point x="290" y="-20"/>
			<point x="428" y="-20" type="curve" smooth="yes"/>
			<point x="574" y="-20"/>
			<point x="664" y="62"/>
			<point x="708" y="142" type="curve"/>
			<point x="718" y="66"/>
			<point x="770" y="-10"/>
			<point x="858" y="-10" type="curve" smooth="yes"/>
			<point x="878" y="-10"/>
			<point x="1048" y="-2"/>
			<point x="1048" y="180" type="curve" smooth="yes"/>
			<point x="1048" y="290" type="line"/>
			<point x="986" y="290" type="line"/>
			<point x="986" y="180" type="line" smooth="yes"/>
			<point x="986" y="98"/>
			<point x="956" y="66"/>
			<point x="914" y="66" type="curve" smooth="yes"/>
			<point x="840" y="66"/>
			<point x="840" y="158"/>
			<point x="840" y="180" type="curve" smooth="yes"/>
			<point x="840" y="596" type="line" smooth="yes"/>
			<point x="840" y="699"/>
			<point x="787" y="776"/>
			<point x="711" y="825" type="curve" smooth="yes"/>
			<point x="642" y="870"/>
			<point x="554" y="892"/>
			<point x="468" y="892" type="curve" smooth="yes"/>
			<point x="302" y="892"/>
			<point x="154" y="828"/>
			<point x="154" y="696" type="curve" smooth="yes"/>
			<point x="154" y="636"/>
			<point x="196" y="600"/>
			<point x="248" y="600" type="curve" smooth="yes"/>
			<point x="304" y="600"/>
			<point x="342" y="640"/>
			<point x="342" y="694" type="curve" smooth="yes"/>
			<point x="342" y="742"/>
			<point x="312" y="776"/>
			<point x="268" y="786" type="curve"/>
			<point x="342" y="836"/>
			<point x="450" y="836"/>
			<point x="464" y="836" type="curve" smooth="yes"/>
			<point x="576" y="836"/>
			<point x="688" y="758"/>
			<point x="688" y="594" type="curve" smooth="yes"/>
			<point x="688" y="532" type="line"/>
			<point x="572" y="526"/>
			<point x="438" y="520"/>
			<point x="298" y="462" type="curve" smooth="yes"/>
			<point x="122" y="386"/>
			<point x="88" y="270"/>
		</contour>
		<contour>
			<point x="252" y="202" type="curve" smooth="yes"/>
			<point x="252" y="334"/>
			<point x="376" y="470"/>
			<point x="688" y="480" type="curve"/>
			<point x="688" y="282" type="line" smooth="yes"/>
			<point x="688" y="202"/>
			<point x="660" y="147"/>
			<point x="622" y="109" type="curve" smooth="yes"/>
			<point x="568" y="54"/>
			<point x="491" y="36"/>
			<point x="444" y="36" type="curve" smooth="yes"/>
			<point x="340" y="36"/>
			<point x="252" y="106"/>
		</contour>
	</outline>
</glyph>
<glyph name="b" format="2">
	<unicode hex="0062"/>
	<advance width="1180"/>
	<outline>
		<contour>
			<point x="222" y="0" type="line"/>
			<point x="284" y="0" type="line"/>
			<point x="308" y="41"/>
			<point x="332" y="83"/>
			<point x="356" y="124" type="curve"/>
			<point x="404" y="56"/>
			<point x="498" y="-20"/>
			<point x="634" y="-20" type="curve" smooth="yes"/>
			<point x="888" y="-20"/>
			<point x="1108" y="176"/>
			<point x="1108" y="432" type="curve" smooth="yes"/>
			<point x="1108" y="684"/>
			<point x="902" y="882"/>
			<point x="658" y="882" type="curve" smooth="yes"/>
			<point x="500" y="882"/>
			<point x="402" y="796"/>
			<point x="368" y="760" type="curve"/>
			<point x="368" y="1388" type="line"/>
			<point x="70" y="1366" type="line"/>
			<point x="70" y="1300" type="line"/>
			<point x="206" y="1300"/>
			<point x="222" y="1286"/>
			<point x="222" y="1188" type="curve" smooth="yes"/>
		</contour>
		<contour>
			<point x="626" y="36" type="curve" smooth="yes"/>
			<point x="530" y="36"/>
			<point x="450" y="86"/>
			<point x="398" y="164" type="curve" smooth="yes"/>
			<point x="374" y="202"/>
			<point x="374" y="204"/>
			<point x="374" y="242" type="curve" smooth="yes"/>
			<point x="374" y="632" type="line" smooth="yes"/>
			<point x="374" y="670"/>
			<point x="374" y="674"/>
			<point x="404" y="710" type="curve" smooth="yes"/>
			<point x="462" y="784"/>
			<point x="556" y="826"/>
			<point x="646" y="826" type="curve" smooth="yes"/>
			<point x="750" y="826"/>
			<point x="828" y="764"/>
			<point x="868" y="704" type="curve" smooth="yes"/>
			<point x="902" y="650"/>
			<point x="930" y="580"/>
			<point x="930" y="434" type="curve" smooth="yes"/>
			<point x="930" y="388"/>
			<point x="930" y="246"/>
			<point x="858" y="152" type="curve" smooth="yes"/>
			<point x="786" y="62"/>
			<point x="692" y="36"/>
		</contour>
	</outline>
</glyph>
<glyph name="c" format="2">
	<unicode hex="0063"/>
	<advance width="944"/>
	<outline>
		<contour>
			<point x="248" y="434" type="curve" smooth="yes"/>
			<point x="248" y="722"/>
			<point x="396" y="830"/>
			<point x="542" y="830" type="curve" smooth="yes"/>
			<point x="560" y="830"/>
			<point x="666" y="830"/>
			<point x="736" y="794" type="curve"/>
			<point x="680" y="776"/>
			<point x="672" y="730"/>
			<point x="672" y="706" type="curve" smooth="yes"/>
			<point x="672" y="652"/>
			<point x="710" y="612"/>
			<point x="766" y="612" type="curve" smooth="yes"/>
			<point x="818" y="612"/>
			<point x="860" y="648"/>
			<point x="860" y="708" type="curve" smooth="yes"/>
			<point x="860" y="832"/>
			<point x="724" y="892"/>
			<point x="536" y="892" type="curve" smooth="yes"/>
			<point x="258" y="892"/>
			<point x="70" y="670"/>
			<point x="70" y="432" type="curve" smooth="yes"/>
			<point x="70" y="178"/>
			<point x="278" y="-20"/>
			<point x="530" y="-20" type="curve" smooth="yes"/>
			<point x="812" y="-20"/>
			<point x="882" y="216"/>
			<point x="882" y="240" type="curve" smooth="yes"/>
			<point x="882" y="264"/>
			<point x="856" y="264"/>
			<point x="850" y="264" type="curve" smooth="yes"/>
			<point x="836" y="264"/>
			<point x="826" y="262"/>
			<point x="820" y="242" type="curve" smooth="yes"/>
			<point x="806" y="200"/>
			<point x="750" y="42"/>
			<point x="550" y="42" type="curve" smooth="yes"/>
			<point x="426" y="42"/>
			<point x="248" y="138"/>
		</contour>
	</outline>
</glyph>
<glyph name="d" format="2">
	<unicode hex="0064"/>
	<advance width="1180"/>
	<outline>
		<contour>
			<point x="804" y="106" type="curve"/>
			<point x="804" y="-20" type="line"/>
			<point x="1108" y="0" type="line"/>
			<point x="1108" y="66" type="line"/>
			<point x="972" y="66"/>
			<point x="956" y="80"/>
			<point x="956" y="178" type="curve" smooth="yes"/>
			<point x="956" y="1388" type="line"/>
			<point x="658" y="1366" type="line"/>
			<point x="658" y="1300" type="line"/>
			<point x="794" y="1300"/>
			<point x="810" y="1286"/>
			<point x="810" y="1188" type="curve" smooth="yes"/>
			<point x="810" y="766" type="line"/>
			<point x="740" y="842"/>
			<point x="646" y="882"/>
			<point x="542" y="882" type="curve" smooth="yes"/>
			<point x="292" y="882"/>
			<point x="70" y="688"/>
			<point x="70" y="430" type="curve" smooth="yes"/>
			<point x="70" y="184"/>
			<point x="270" y="-20"/>
			<point x="522" y="-20" type="curve" smooth="yes"/>
			<point x="640" y="-20"/>
			<point x="738" y="36"/>
		</contour>
		<contour>
			<point x="248" y="428" type="curve" smooth="yes"/>
			<point x="248" y="544"/>
			<point x="266" y="626"/>
			<point x="312" y="696" type="curve" smooth="yes"/>
			<point x="360" y="770"/>
			<point x="450" y="826"/>
			<point x="552" y="826" type="curve" smooth="yes"/>
			<point x="648" y="826"/>
			<point x="744" y="778"/>
			<point x="804" y="674" type="curve"/>
			<point x="804" y="674"/>
			<point x="804" y="674"/>
			<point x="804" y="674" type="curve"/>
			<point x="804" y="248" type="line" smooth="yes"/>
			<point x="802" y="212"/>
			<point x="804" y="204"/>
			<point x="774" y="164" type="curve" smooth="yes"/>
			<point x="718" y="84"/>
			<point x="626" y="36"/>
			<point x="532" y="36" type="curve" smooth="yes"/>
			<point x="440" y="36"/>
			<point x="360" y="84"/>
			<point x="312" y="158" type="curve" smooth="yes"/>
			<point x="258" y="236"/>
			<point x="248" y="334"/>
		</contour>
	</outline>
</glyph>
<glyph name="e" format="2">
  <advance width="472"/>
  <unicode hex="0065"/>
  <outline>
    <contour>
      <point x="119" y="228" type="curve"/>
      <point x="413" y="228" type="line" smooth="yes"/>
      <point x="435" y="228"/>
      <point x="441" y="228"/>
      <point x="441" y="251" type="curve" smooth="yes"/>
      <point x="441" y="340"/>
      <point x="392" y="446"/>
      <point x="251" y="446" type="curve" smooth="yes"/>
      <point x="127" y="446"/>
      <point x="30" y="343"/>
      <point x="30" y="219" type="curve" smooth="yes"/>
      <point x="30" y="90"/>
      <point x="138" y="-10"/>
      <point x="264" y="-10" type="curve" smooth="yes"/>
      <point x="391" y="-10"/>
      <point x="441" y="97"/>
      <point x="441" y="120" type="curve" smooth="yes"/>
      <point x="441" y="124"/>
      <point x="438" y="134"/>
      <point x="425" y="134" type="curve" smooth="yes"/>
      <point x="414" y="134"/>
      <point x="412" y="127"/>
      <point x="410" y="121" type="curve" smooth="yes"/>
      <point x="374" y="24"/>
      <point x="288" y="21"/>
      <point x="270" y="21" type="curve" smooth="yes"/>
      <point x="225" y="21"/>
      <point x="179" y="42"/>
      <point x="149" y="88" type="curve" smooth="yes"/>
      <point x="119" y="134"/>
      <point x="119" y="198"/>
    </contour>
    <contour>
      <point x="120" y="254" type="line"/>
      <point x="129" y="394"/>
      <point x="214" y="418"/>
      <point x="251" y="418" type="curve" smooth="yes"/>
      <point x="368" y="418"/>
      <point x="372" y="277"/>
      <point x="373" y="254" type="curve"/>
    </contour>
  </outline>
</glyph>
<glyph name="f" format="2">
	<unicode hex="0066"/>
	<advance width="324"/>
	<outline>
		<contour>
			<point x="118" y="78" type="line" smooth="yes"/>
			<point x="118" y="33"/>
			<point x="106" y="33"/>
			<point x="42" y="33" type="curve"/>
			<point x="42" y="33" type="line"/>
			<point x="42" y="0" type="line"/>
			<point x="81" y="3"/>
			<point x="136" y="3"/>
			<point x="160" y="3" type="curve" smooth="yes"/>
			<point x="219" y="3"/>
			<point x="221" y="3"/>
			<point x="286" y="0" type="curve"/>
			<point x="286" y="33" type="line"/>
			<point x="266" y="33" type="line" smooth="yes"/>
			<point x="193" y="33"/>
			<point x="191" y="44"/>
			<point x="191" y="80" type="curve" smooth="yes"/>
			<point x="191" y="398" type="line"/>
			<point x="311" y="398" type="line"/>
			<point x="311" y="431" type="line"/>
			<point x="188" y="431" type="line"/>
			<point x="188" y="544" type="line" smooth="yes"/>
			<point x="188" y="631"/>
			<point x="237" y="676"/>
			<point x="281" y="676" type="curve" smooth="yes"/>
			<point x="297" y="676"/>
			<point x="306" y="672"/>
			<point x="310" y="671" type="curve"/>
			<point x="292" y="662"/>
			<point x="287" y="645"/>
			<point x="287" y="632" type="curve" smooth="yes"/>
			<point x="287" y="606"/>
			<point x="306" y="587"/>
			<point x="332" y="587" type="curve" smooth="yes"/>
			<point x="359" y="587"/>
			<point x="377" y="606"/>
			<point x="377" y="632" type="curve" smooth="yes"/>
			<point x="377" y="675"/>
			<point x="335" y="704"/>
			<point x="282" y="704" type="curve" smooth="yes"/>
			<point x="207" y="704"/>
			<point x="118" y="650"/>
			<point x="118" y="543" type="curve" smooth="yes"/>
			<point x="118" y="431" type="line"/>
			<point x="36" y="431" type="line"/>
			<point x="36" y="398" type="line"/>
			<point x="118" y="398" type="line"/>
		</contour>
	</outline>
</glyph>
<glyph name="g" format="2">
	<unicode hex="0067"/>
	<advance width="1062"/>
	<outline>
		<contour>
			<point x="530" y="-410" type="curve" smooth="yes"/>
			<point x="780" y="-410"/>
			<point x="1000" y="-308"/>
			<point x="1000" y="-150" type="curve" smooth="yes"/>
			<point x="1000" y="-42"/>
			<point x="936" y="42"/>
			<point x="870" y="76" type="curve" smooth="yes"/>
			<point x="752" y="138"/>
			<point x="654" y="138"/>
			<point x="458" y="138" type="curve" smooth="yes"/>
			<point x="420" y="138"/>
			<point x="384" y="138"/>
			<point x="346" y="138" type="curve"/>
			<point x="284" y="144"/>
			<point x="234" y="198"/>
			<point x="234" y="270" type="curve" smooth="yes"/>
			<point x="234" y="318"/>
			<point x="246" y="336"/>
			<point x="260" y="354" type="curve"/>
			<point x="344" y="304"/>
			<point x="422" y="294"/>
			<point x="470" y="294" type="curve" smooth="yes"/>
			<point x="668" y="294"/>
			<point x="814" y="432"/>
			<point x="814" y="588" type="curve" smooth="yes"/>
			<point x="814" y="664"/>
			<point x="780" y="728"/>
			<point x="732" y="780" type="curve"/>
			<point x="760" y="804"/>
			<point x="826" y="846"/>
			<point x="924" y="848" type="curve"/>
			<point x="916" y="842"/>
			<point x="906" y="832"/>
			<point x="906" y="800" type="curve" smooth="yes"/>
			<point x="906" y="764"/>
			<point x="932" y="738"/>
			<point x="968" y="738" type="curve" smooth="yes"/>
			<point x="996" y="738"/>
			<point x="1030" y="756"/>
			<point x="1030" y="802" type="curve" smooth="yes"/>
			<point x="1030" y="836"/>
			<point x="1004" y="904"/>
			<point x="916" y="904" type="curve" smooth="yes"/>
			<point x="882" y="904"/>
			<point x="786" y="896"/>
			<point x="694" y="812" type="curve"/>
			<point x="644" y="848"/>
			<point x="566" y="882"/>
			<point x="472" y="882" type="curve" smooth="yes"/>
			<point x="274" y="882"/>
			<point x="128" y="744"/>
			<point x="128" y="588" type="curve" smooth="yes"/>
			<point x="128" y="494"/>
			<point x="180" y="424"/>
			<point x="222" y="384" type="curve"/>
			<point x="178" y="334"/>
			<point x="162" y="270"/>
			<point x="162" y="222" type="curve" smooth="yes"/>
			<point x="162" y="140"/>
			<point x="202" y="78"/>
			<point x="246" y="44" type="curve"/>
			<point x="142" y="16"/>
			<point x="60" y="-62"/>
			<point x="60" y="-154" type="curve" smooth="yes"/>
			<point x="60" y="-298"/>
			<point x="266" y="-410"/>
		</contour>
		<contour>
			<point x="472" y="352" type="curve" smooth="yes"/>
			<point x="286" y="352"/>
			<point x="286" y="544"/>
			<point x="286" y="588" type="curve" smooth="yes"/>
			<point x="286" y="662"/>
			<point x="296" y="714"/>
			<point x="326" y="754" type="curve" smooth="yes"/>
			<point x="360" y="800"/>
			<point x="416" y="824"/>
			<point x="470" y="824" type="curve" smooth="yes"/>
			<point x="656" y="824"/>
			<point x="656" y="632"/>
			<point x="656" y="588" type="curve" smooth="yes"/>
			<point x="656" y="514"/>
			<point x="646" y="462"/>
			<point x="616" y="422" type="curve" smooth="yes"/>
			<point x="572" y="366"/>
			<point x="508" y="352"/>
		</contour>
		<contour>
			<point x="530" y="-352" type="curve" smooth="yes"/>
			<point x="330" y="-352"/>
			<point x="178" y="-260"/>
			<point x="178" y="-152" type="curve" smooth="yes"/>
			<point x="178" y="-125"/>
			<point x="191" y="-67"/>
			<point x="244" y="-28" type="curve" smooth="yes"/>
			<point x="274" y="-7"/>
			<point x="315" y="8"/>
			<point x="374" y="8" type="curve" smooth="yes"/>
			<point x="566" y="8" type="line" smooth="yes"/>
			<point x="620" y="8"/>
			<point x="882" y="8"/>
			<point x="882" y="-152" type="curve" smooth="yes"/>
			<point x="882" y="-260"/>
			<point x="728" y="-352"/>
		</contour>
	</outline>
</glyph>
<glyph name="h" format="2">
	<unicode hex="0068"/>
	<advance width="1180"/>
	<outline>
		<contour>
			<point x="234" y="156" type="line" smooth="yes"/>
			<point x="234" y="66"/>
			<point x="210" y="66"/>
			<point x="82" y="66" type="curve"/>
			<point x="82" y="66" type="line"/>
			<point x="82" y="0" type="line"/>
			<point x="168" y="6"/>
			<point x="256" y="6"/>
			<point x="310" y="6" type="curve" smooth="yes"/>
			<point x="368" y="6"/>
			<point x="452" y="6"/>
			<point x="538" y="0" type="curve"/>
			<point x="538" y="66" type="line"/>
			<point x="538" y="66" type="line"/>
			<point x="410" y="66"/>
			<point x="386" y="66"/>
			<point x="386" y="156" type="curve" smooth="yes"/>
			<point x="386" y="518" type="line" smooth="yes"/>
			<point x="386" y="728"/>
			<point x="546" y="826"/>
			<point x="668" y="826" type="curve" smooth="yes"/>
			<point x="790" y="826"/>
			<point x="820" y="740"/>
			<point x="820" y="614" type="curve" smooth="yes"/>
			<point x="820" y="156" type="line" smooth="yes"/>
			<point x="820" y="66"/>
			<point x="796" y="66"/>
			<point x="668" y="66" type="curve"/>
			<point x="668" y="66" type="line"/>
			<point x="668" y="0" type="line"/>
			<point x="754" y="6"/>
			<point x="842" y="6"/>
			<point x="896" y="6" type="curve" smooth="yes"/>
			<point x="954" y="6"/>
			<point x="1038" y="6"/>
			<point x="1124" y="0" type="curve"/>
			<point x="1124" y="66" type="line"/>
			<point x="1124" y="66" type="line"/>
			<point x="996" y="66"/>
			<point x="972" y="66"/>
			<point x="972" y="156" type="curve" smooth="yes"/>
			<point x="972" y="606" type="line" smooth="yes"/>
			<point x="972" y="692"/>
			<point x="952" y="762"/>
			<point x="905" y="810" type="curve" smooth="yes"/>
			<point x="859" y="856"/>
			<point x="789" y="882"/>
			<point x="686" y="882" type="curve" smooth="yes"/>
			<point x="510" y="882"/>
			<point x="418" y="770"/>
			<point x="382" y="706" type="curve"/>
			<point x="380" y="706" type="line"/>
			<point x="380" y="1388" type="line"/>
			<point x="82" y="1366" type="line"/>
			<point x="82" y="1300" type="line"/>
			<point x="218" y="1300"/>
			<point x="234" y="1286"/>
			<point x="234" y="1188" type="curve" smooth="yes"/>
		</contour>
	</outline>
</glyph>
<glyph name="i" format="2">
	<unicode hex="0069"/>
	<advance width="590"/>
	<outline>
		<contour>
			<point x="236" y="156" type="line" smooth="yes"/>
			<point x="236" y="66"/>
			<point x="212" y="66"/>
			<point x="84" y="66" type="curve"/>
			<point x="84" y="66" type="line"/>
			<point x="84" y="0" type="line"/>
			<point x="162" y="6"/>
			<point x="274" y="6"/>
			<point x="304" y="6" type="curve" smooth="yes"/>
			<point x="330" y="6"/>
			<point x="450" y="6"/>
			<point x="520" y="0" type="curve"/>
			<point x="520" y="66" type="line"/>
			<point x="390" y="66"/>
			<point x="382" y="76"/>
			<point x="382" y="154" type="curve" smooth="yes"/>
			<point x="382" y="882" type="line"/>
			<point x="90" y="860" type="line"/>
			<point x="90" y="794" type="line"/>
			<point x="218" y="794"/>
			<point x="236" y="782"/>
			<point x="236" y="684" type="curve" smooth="yes"/>
		</contour>
		<contour>
			<point x="390" y="1232" type="curve" smooth="yes"/>
			<point x="390" y="1290"/>
			<point x="344" y="1344"/>
			<point x="278" y="1344" type="curve" smooth="yes"/>
			<point x="220" y="1344"/>
			<point x="168" y="1298"/>
			<point x="168" y="1234" type="curve" smooth="yes"/>
			<point x="168" y="1164"/>
			<point x="226" y="1122"/>
			<point x="278" y="1122" type="curve" smooth="yes"/>
			<point x="348" y="1122"/>
			<point x="390" y="1180"/>
		</contour>
	</outline>
</glyph>
<glyph name="j" format="2">
	<unicode hex="006A"/>
	<advance width="648"/>
	<outline>
		<contour>
			<point x="308" y="682" type="curve" smooth="yes"/>
			<point x="308" y="-96" type="line" smooth="yes"/>
			<point x="308" y="-150"/>
			<point x="300" y="-352"/>
			<point x="162" y="-352" type="curve" smooth="yes"/>
			<point x="132" y="-352"/>
			<point x="88" y="-344"/>
			<point x="62" y="-334" type="curve"/>
			<point x="74" y="-330"/>
			<point x="116" y="-304"/>
			<point x="116" y="-248" type="curve" smooth="yes"/>
			<point x="116" y="-194"/>
			<point x="78" y="-154"/>
			<point x="22" y="-154" type="curve" smooth="yes"/>
			<point x="-28" y="-154"/>
			<point x="-72" y="-188"/>
			<point x="-72" y="-250" type="curve" smooth="yes"/>
			<point x="-72" y="-352"/>
			<point x="40" y="-408"/>
			<point x="164" y="-408" type="curve" smooth="yes"/>
			<point x="324" y="-408"/>
			<point x="454" y="-280"/>
			<point x="454" y="-92" type="curve" smooth="yes"/>
			<point x="454" y="882" type="line"/>
			<point x="140" y="860" type="line"/>
			<point x="140" y="794" type="line"/>
			<point x="290" y="794"/>
			<point x="308" y="780"/>
		</contour>
		<contour>
			<point x="454" y="1232" type="curve" smooth="yes"/>
			<point x="454" y="1294"/>
			<point x="404" y="1344"/>
			<point x="342" y="1344" type="curve" smooth="yes"/>
			<point x="282" y="1344"/>
			<point x="232" y="1296"/>
			<point x="232" y="1234" type="curve" smooth="yes"/>
			<point x="232" y="1166"/>
			<point x="286" y="1122"/>
			<point x="342" y="1122" type="curve" smooth="yes"/>
			<point x="408" y="1122"/>
			<point x="454" y="1176"/>
		</contour>
	</outline>
</glyph>
<glyph name="k" format="2">
	<unicode hex="006B"/>
	<advance width="1120"/>
	<outline>
		<contour>
			<point x="602" y="544" type="line"/>
			<point x="772" y="680" type="line" smooth="yes"/>
			<point x="904" y="784"/>
			<point x="988" y="794"/>
			<point x="1038" y="796" type="curve"/>
			<point x="1038" y="862" type="line"/>
			<point x="990" y="856"/>
			<point x="962" y="856"/>
			<point x="880" y="856" type="curve" smooth="yes"/>
			<point x="782" y="856"/>
			<point x="754" y="858"/>
			<point x="666" y="862" type="curve"/>
			<point x="666" y="796" type="line"/>
			<point x="704" y="794"/>
			<point x="712" y="768"/>
			<point x="712" y="756" type="curve" smooth="yes"/>
			<point x="712" y="714"/>
			<point x="672" y="680"/>
			<point x="656" y="668" type="curve" smooth="yes"/>
			<point x="368" y="436" type="line"/>
			<point x="368" y="1388" type="line"/>
			<point x="70" y="1366" type="line"/>
			<point x="70" y="1300" type="line"/>
			<point x="206" y="1300"/>
			<point x="222" y="1286"/>
			<point x="222" y="1188" type="curve" smooth="yes"/>
			<point x="222" y="156" type="line" smooth="yes"/>
			<point x="222" y="66"/>
			<point x="198" y="66"/>
			<point x="70" y="66" type="curve"/>
			<point x="70" y="66" type="line"/>
			<point x="70" y="0" type="line"/>
			<point x="148" y="6"/>
			<point x="256" y="6"/>
			<point x="290" y="6" type="curve" smooth="yes"/>
			<point x="330" y="6"/>
			<point x="434" y="6"/>
			<point x="512" y="0" type="curve"/>
			<point x="512" y="66" type="line"/>
			<point x="512" y="66" type="line"/>
			<point x="384" y="66"/>
			<point x="360" y="66"/>
			<point x="360" y="156" type="curve" smooth="yes"/>
			<point x="360" y="350" type="line"/>
			<point x="406" y="387"/>
			<point x="452" y="423"/>
			<point x="498" y="460" type="curve"/>
			<point x="650" y="266" type="line" smooth="yes"/>
			<point x="702" y="200"/>
			<point x="750" y="136"/>
			<point x="750" y="106" type="curve" smooth="yes"/>
			<point x="750" y="72"/>
			<point x="712" y="66"/>
			<point x="688" y="66" type="curve"/>
			<point x="688" y="0" type="line"/>
			<point x="774" y="6"/>
			<point x="864" y="6"/>
			<point x="898" y="6" type="curve" smooth="yes"/>
			<point x="974" y="6"/>
			<point x="1014" y="6"/>
			<point x="1084" y="0" type="curve"/>
			<point x="1084" y="66" type="line"/>
			<point x="1000" y="66"/>
			<point x="964" y="74"/>
			<point x="892" y="168" type="curve" smooth="yes"/>
		</contour>
	</outline>
</glyph>
<glyph name="l" format="2">
	<unicode hex="006C"/>
	<advance width="295"/>
	<outline>
		<contour>
			<point x="191" y="694" type="line"/>
			<point x="42" y="683" type="line"/>
			<point x="42" y="650" type="line"/>
			<point x="110" y="650"/>
			<point x="118" y="643"/>
			<point x="118" y="594" type="curve" smooth="yes"/>
			<point x="118" y="78" type="line" smooth="yes"/>
			<point x="118" y="33"/>
			<point x="106" y="33"/>
			<point x="42" y="33" type="curve"/>
			<point x="42" y="33" type="line"/>
			<point x="42" y="0" type="line"/>
			<point x="81" y="3"/>
			<point x="137" y="3"/>
			<point x="154" y="3" type="curve" smooth="yes"/>
			<point x="174" y="3"/>
			<point x="228" y="3"/>
			<point x="267" y="0" type="curve"/>
			<point x="267" y="33" type="line"/>
			<point x="267" y="33" type="line"/>
			<point x="203" y="33"/>
			<point x="191" y="33"/>
			<point x="191" y="78" type="curve" smooth="yes"/>
		</contour>
	</outline>
</glyph>
<glyph name="m" format="2">
	<unicode hex="006D"/>
	<advance width="1770"/>
	<outline>
		<contour>
			<point x="234" y="156" type="line" smooth="yes"/>
			<point x="234" y="66"/>
			<point x="210" y="66"/>
			<point x="82" y="66" type="curve"/>
			<point x="82" y="66" type="line"/>
			<point x="82" y="0" type="line"/>
			<point x="168" y="6"/>
			<point x="256" y="6"/>
			<point x="310" y="6" type="curve" smooth="yes"/>
			<point x="368" y="6"/>
			<point x="452" y="6"/>
			<point x="538" y="0" type="curve"/>
			<point x="538" y="66" type="line"/>
			<point x="538" y="66" type="line"/>
			<point x="410" y="66"/>
			<point x="386" y="66"/>
			<point x="386" y="156" type="curve" smooth="yes"/>
			<point x="386" y="518" type="line" smooth="yes"/>
			<point x="386" y="728"/>
			<point x="544" y="826"/>
			<point x="670" y="826" type="curve" smooth="yes"/>
			<point x="800" y="826"/>
			<point x="822" y="724"/>
			<point x="822" y="614" type="curve" smooth="yes"/>
			<point x="822" y="156" type="line" smooth="yes"/>
			<point x="822" y="66"/>
			<point x="798" y="66"/>
			<point x="670" y="66" type="curve"/>
			<point x="670" y="66" type="line"/>
			<point x="670" y="0" type="line"/>
			<point x="756" y="6"/>
			<point x="844" y="6"/>
			<point x="898" y="6" type="curve" smooth="yes"/>
			<point x="956" y="6"/>
			<point x="1040" y="6"/>
			<point x="1126" y="0" type="curve"/>
			<point x="1126" y="66" type="line"/>
			<point x="1126" y="66" type="line"/>
			<point x="998" y="66"/>
			<point x="974" y="66"/>
			<point x="974" y="156" type="curve" smooth="yes"/>
			<point x="974" y="518" type="line" smooth="yes"/>
			<point x="974" y="728"/>
			<point x="1132" y="826"/>
			<point x="1258" y="826" type="curve" smooth="yes"/>
			<point x="1388" y="826"/>
			<point x="1410" y="724"/>
			<point x="1410" y="614" type="curve" smooth="yes"/>
			<point x="1410" y="156" type="line" smooth="yes"/>
			<point x="1410" y="66"/>
			<point x="1386" y="66"/>
			<point x="1258" y="66" type="curve"/>
			<point x="1258" y="66" type="line"/>
			<point x="1258" y="0" type="line"/>
			<point x="1344" y="6"/>
			<point x="1432" y="6"/>
			<point x="1486" y="6" type="curve" smooth="yes"/>
			<point x="1544" y="6"/>
			<point x="1628" y="6"/>
			<point x="1714" y="0" type="curve"/>
			<point x="1714" y="66" type="line"/>
			<point x="1714" y="66" type="line"/>
			<point x="1586" y="66"/>
			<point x="1562" y="66"/>
			<point x="1562" y="156" type="curve" smooth="yes"/>
			<point x="1562" y="606" type="line" smooth="yes"/>
			<point x="1562" y="690"/>
			<point x="1544" y="762"/>
			<point x="1494" y="810" type="curve" smooth="yes"/>
			<point x="1448" y="856"/>
			<point x="1378" y="882"/>
			<point x="1274" y="882" type="curve" smooth="yes"/>
			<point x="1090" y="882"/>
			<point x="998" y="756"/>
			<point x="966" y="698" type="curve"/>
			<point x="930" y="842"/>
			<point x="816" y="882"/>
			<point x="686" y="882" type="curve" smooth="yes"/>
			<point x="492" y="882"/>
			<point x="400" y="744"/>
			<point x="374" y="690" type="curve"/>
			<point x="372" y="690" type="line"/>
			<point x="372" y="882" type="line"/>
			<point x="82" y="860" type="line"/>
			<point x="82" y="794" type="line"/>
			<point x="218" y="794"/>
			<point x="234" y="780"/>
			<point x="234" y="682" type="curve" smooth="yes"/>
		</contour>
	</outline>
</glyph>
<glyph name="n" format="2">
	<unicode hex="006E"/>
	<advance width="1180"/>
	<outline>
		<contour>
			<point x="234" y="156" type="line" smooth="yes"/>
			<point x="234" y="66"/>
			<point x="210" y="66"/>
			<point x="82" y="66" type="curve"/>
			<point x="82" y="66" type="line"/>
			<point x="82" y="0" type="line"/>
			<point x="168" y="6"/>
			<point x="256" y="6"/>
			<point x="310" y="6" type="curve" smooth="yes"/>
			<point x="368" y="6"/>
			<point x="452" y="6"/>
			<point x="538" y="0" type="curve"/>
			<point x="538" y="66" type="line"/>
			<point x="538" y="66" type="line"/>
			<point x="410" y="66"/>
			<point x="386" y="66"/>
			<point x="386" y="156" type="curve" smooth="yes"/>
			<point x="386" y="518" type="line" smooth="yes"/>
			<point x="386" y="728"/>
			<point x="546" y="826"/>
			<point x="668" y="826" type="curve" smooth="yes"/>
			<point x="790" y="826"/>
			<point x="820" y="740"/>
			<point x="820" y="614" type="curve" smooth="yes"/>
			<point x="820" y="156" type="line" smooth="yes"/>
			<point x="820" y="66"/>
			<point x="796" y="66"/>
			<point x="668" y="66" type="curve"/>
			<point x="668" y="66" type="line"/>
			<point x="668" y="0" type="line"/>
			<point x="754" y="6"/>
			<point x="842" y="6"/>
			<point x="896" y="6" type="curve" smooth="yes"/>
			<point x="954" y="6"/>
			<point x="1038" y="6"/>
			<point x="1124" y="0" type="curve"/>
			<point x="1124" y="66" type="line"/>
			<point x="1124" y="66" type="line"/>
			<point x="996" y="66"/>
			<point x="972" y="66"/>
			<point x="972" y="156" type="curve" smooth="yes"/>
			<point x="972" y="606" type="line" smooth="yes"/>
			<point x="972" y="693"/>
			<point x="952" y="764"/>
			<point x="903" y="812" type="curve" smooth="yes"/>
			<point x="857" y="857"/>
			<point x="787" y="882"/>
			<point x="686" y="882" type="curve" smooth="yes"/>
			<point x="488" y="882"/>
			<point x="398" y="738"/>
			<point x="374" y="690" type="curve"/>
			<point x="372" y="690" type="line"/>
			<point x="372" y="882" type="line"/>
			<point x="82" y="860" type="line"/>
			<point x="82" y="794" type="line"/>
			<point x="218" y="794"/>
			<point x="234" y="780"/>
			<point x="234" y="682" type="curve" smooth="yes"/>
		</contour>
	</outline>
</glyph>
<glyph name="o" format="2">
	<unicode hex="006F"/>
	<advance width="531"/>
	<outline>
		<contour>
			<point x="500" y="213" type="curve" smooth="yes"/>
			<point x="500" y="338"/>
			<point x="397" y="446"/>
			<point x="265" y="446" type="curve" smooth="yes"/>
			<point x="133" y="446"/>
			<point x="30" y="338"/>
			<point x="30" y="213" type="curve" smooth="yes"/>
			<point x="30" y="88"/>
			<point x="137" y="-10"/>
			<point x="265" y="-10" type="curve" smooth="yes"/>
			<point x="394" y="-10"/>
			<point x="500" y="88"/>
		</contour>
		<contour>
			<point x="265" y="21" type="curve" smooth="yes"/>
			<point x="211" y="21"/>
			<point x="169" y="47"/>
			<point x="147" y="82" type="curve" smooth="yes"/>
			<point x="122" y="123"/>
			<point x="119" y="172"/>
			<point x="119" y="222" type="curve" smooth="yes"/>
			<point x="119" y="260"/>
			<point x="119" y="320"/>
			<point x="150" y="363" type="curve" smooth="yes"/>
			<point x="176" y="398"/>
			<point x="218" y="418"/>
			<point x="265" y="418" type="curve" smooth="yes"/>
			<point x="317" y="418"/>
			<point x="360" y="393"/>
			<point x="383" y="358" type="curve" smooth="yes"/>
			<point x="410" y="316"/>
			<point x="411" y="262"/>
			<point x="411" y="222" type="curve" smooth="yes"/>
			<point x="411" y="176"/>
			<point x="409" y="121"/>
			<point x="381" y="79" type="curve" smooth="yes"/>
			<point x="354" y="39"/>
			<point x="309" y="21"/>
		</contour>
	</outline>
</glyph>
<glyph name="p" format="2">
	<unicode hex="0070"/>
	<advance width="1180"/>
	<outline>
		<contour>
			<point x="70" y="794" type="line"/>
			<point x="70" y="794" type="line"/>
			<point x="212" y="794"/>
			<point x="222" y="782"/>
			<point x="222" y="698" type="curve" smooth="yes"/>
			<point x="222" y="-232" type="line" smooth="yes"/>
			<point x="222" y="-322"/>
			<point x="198" y="-322"/>
			<point x="70" y="-322" type="curve"/>
			<point x="70" y="-322" type="line"/>
			<point x="70" y="-388" type="line"/>
			<point x="156" y="-382"/>
			<point x="244" y="-382"/>
			<point x="298" y="-382" type="curve" smooth="yes"/>
			<point x="356" y="-382"/>
			<point x="440" y="-382"/>
			<point x="526" y="-388" type="curve"/>
			<point x="526" y="-322" type="line"/>
			<point x="398" y="-322"/>
			<point x="374" y="-322"/>
			<point x="374" y="-232" type="curve" smooth="yes"/>
			<point x="374" y="98" type="line"/>
			<point x="468" y="-4"/>
			<point x="570" y="-20"/>
			<point x="634" y="-20" type="curve" smooth="yes"/>
			<point x="888" y="-20"/>
			<point x="1108" y="176"/>
			<point x="1108" y="432" type="curve" smooth="yes"/>
			<point x="1108" y="682"/>
			<point x="906" y="882"/>
			<point x="664" y="882" type="curve" smooth="yes"/>
			<point x="586" y="882"/>
			<point x="470" y="862"/>
			<point x="368" y="758" type="curve"/>
			<point x="368" y="882" type="line"/>
			<point x="70" y="860" type="line"/>
		</contour>
		<contour>
			<point x="930" y="432" type="curve" smooth="yes"/>
			<point x="930" y="202"/>
			<point x="786" y="36"/>
			<point x="624" y="36" type="curve" smooth="yes"/>
			<point x="554" y="36"/>
			<point x="462" y="66"/>
			<point x="398" y="166" type="curve" smooth="yes"/>
			<point x="374" y="200"/>
			<point x="372" y="202"/>
			<point x="374" y="240" type="curve" smooth="yes"/>
			<point x="374" y="666" type="line"/>
			<point x="374" y="666"/>
			<point x="374" y="666"/>
			<point x="374" y="666" type="curve"/>
			<point x="420" y="746"/>
			<point x="520" y="820"/>
			<point x="646" y="820" type="curve" smooth="yes"/>
			<point x="800" y="820"/>
			<point x="930" y="650"/>
		</contour>
	</outline>
</glyph>
<glyph name="q" format="2">
	<unicode hex="0071"/>
	<advance width="1120"/>
	<outline>
		<contour>
			<point x="70" y="430" type="curve" smooth="yes"/>
			<point x="70" y="180"/>
			<point x="276" y="-20"/>
			<point x="522" y="-20" type="curve" smooth="yes"/>
			<point x="666" y="-20"/>
			<point x="758" y="60"/>
			<point x="806" y="120" type="curve"/>
			<point x="806" y="-232" type="line" smooth="yes"/>
			<point x="806" y="-322"/>
			<point x="782" y="-322"/>
			<point x="654" y="-322" type="curve"/>
			<point x="654" y="-322" type="line"/>
			<point x="654" y="-388" type="line"/>
			<point x="740" y="-382"/>
			<point x="828" y="-382"/>
			<point x="882" y="-382" type="curve" smooth="yes"/>
			<point x="940" y="-382"/>
			<point x="1024" y="-382"/>
			<point x="1110" y="-388" type="curve"/>
			<point x="1110" y="-322" type="line"/>
			<point x="1110" y="-322" type="line"/>
			<point x="982" y="-322"/>
			<point x="958" y="-322"/>
			<point x="958" y="-232" type="curve" smooth="yes"/>
			<point x="958" y="882" type="line"/>
			<point x="902" y="882" type="line"/>
			<point x="828" y="708" type="line"/>
			<point x="762" y="814"/>
			<point x="666" y="882"/>
			<point x="540" y="882" type="curve" smooth="yes"/>
			<point x="290" y="882"/>
			<point x="70" y="688"/>
		</contour>
		<contour>
			<point x="248" y="430" type="curve" smooth="yes"/>
			<point x="248" y="658"/>
			<point x="396" y="820"/>
			<point x="554" y="820" type="curve" smooth="yes"/>
			<point x="716" y="820"/>
			<point x="812" y="658"/>
			<point x="812" y="548" type="curve" smooth="yes"/>
			<point x="812" y="284" type="line" smooth="yes"/>
			<point x="812" y="252"/>
			<point x="812" y="240"/>
			<point x="782" y="188" type="curve" smooth="yes"/>
			<point x="708" y="66"/>
			<point x="602" y="36"/>
			<point x="534" y="36" type="curve" smooth="yes"/>
			<point x="374" y="36"/>
			<point x="248" y="214"/>
		</contour>
	</outline>
</glyph>
<glyph name="r" format="2">
	<unicode hex="0072"/>
	<advance width="828"/>
	<outline>
		<contour>
			<point x="222" y="156" type="line" smooth="yes"/>
			<point x="222" y="66"/>
			<point x="198" y="66"/>
			<point x="70" y="66" type="curve"/>
			<point x="70" y="66" type="line"/>
			<point x="70" y="0" type="line"/>
			<point x="148" y="6"/>
			<point x="258" y="6"/>
			<point x="306" y="6" type="curve" smooth="yes"/>
			<point x="424" y="6"/>
			<point x="428" y="6"/>
			<point x="558" y="0" type="curve"/>
			<point x="558" y="66" type="line"/>
			<point x="518" y="66" type="line" smooth="yes"/>
			<point x="372" y="66"/>
			<point x="368" y="88"/>
			<point x="368" y="160" type="curve" smooth="yes"/>
			<point x="368" y="456" type="line" smooth="yes"/>
			<point x="368" y="604"/>
			<point x="430" y="822"/>
			<point x="622" y="826" type="curve"/>
			<point x="622" y="826"/>
			<point x="622" y="826"/>
			<point x="622" y="826" type="curve"/>
			<point x="610" y="818"/>
			<point x="590" y="802"/>
			<point x="590" y="756" type="curve" smooth="yes"/>
			<point x="590" y="694"/>
			<point x="638" y="666"/>
			<point x="678" y="666" type="curve" smooth="yes"/>
			<point x="726" y="666"/>
			<point x="768" y="698"/>
			<point x="768" y="756" type="curve" smooth="yes"/>
			<point x="768" y="826"/>
			<point x="704" y="882"/>
			<point x="616" y="882" type="curve" smooth="yes"/>
			<point x="486" y="882"/>
			<point x="398" y="784"/>
			<point x="356" y="672" type="curve"/>
			<point x="354" y="672" type="line"/>
			<point x="354" y="882" type="line"/>
			<point x="70" y="860" type="line"/>
			<point x="70" y="794" type="line"/>
			<point x="206" y="794"/>
			<point x="222" y="780"/>
			<point x="222" y="682" type="curve" smooth="yes"/>
		</contour>
	</outline>
</glyph>
<glyph name="s" format="2">
	<unicode hex="0073"/>
	<advance width="838"/>
	<outline>
		<contour>
			<point x="766" y="258" type="curve" smooth="yes"/>
			<point x="766" y="311"/>
			<point x="748" y="378"/>
			<point x="692" y="434" type="curve" smooth="yes"/>
			<point x="638" y="488"/>
			<point x="572" y="526"/>
			<point x="350" y="560" type="curve" smooth="yes"/>
			<point x="272" y="572"/>
			<point x="178" y="618"/>
			<point x="178" y="698" type="curve" smooth="yes"/>
			<point x="178" y="758"/>
			<point x="222" y="842"/>
			<point x="412" y="842" type="curve" smooth="yes"/>
			<point x="636" y="842"/>
			<point x="646" y="678"/>
			<point x="650" y="622" type="curve" smooth="yes"/>
			<point x="652" y="606"/>
			<point x="666" y="600"/>
			<point x="680" y="600" type="curve" smooth="yes"/>
			<point x="712" y="600"/>
			<point x="712" y="614"/>
			<point x="712" y="652" type="curve" smooth="yes"/>
			<point x="712" y="840" type="line" smooth="yes"/>
			<point x="712" y="872"/>
			<point x="712" y="892"/>
			<point x="686" y="892" type="curve" smooth="yes"/>
			<point x="676" y="892"/>
			<point x="670" y="892"/>
			<point x="638" y="860" type="curve" smooth="yes"/>
			<point x="632" y="854"/>
			<point x="616" y="840"/>
			<point x="610" y="840" type="curve" smooth="yes"/>
			<point x="592" y="840"/>
			<point x="554" y="892"/>
			<point x="412" y="892" type="curve" smooth="yes"/>
			<point x="132" y="892"/>
			<point x="70" y="740"/>
			<point x="70" y="644" type="curve" smooth="yes"/>
			<point x="70" y="544"/>
			<point x="144" y="486"/>
			<point x="150" y="480" type="curve" smooth="yes"/>
			<point x="230" y="420"/>
			<point x="276" y="412"/>
			<point x="410" y="388" type="curve" smooth="yes"/>
			<point x="474" y="376"/>
			<point x="565" y="359"/>
			<point x="617" y="307" type="curve" smooth="yes"/>
			<point x="642" y="283"/>
			<point x="658" y="250"/>
			<point x="658" y="206" type="curve" smooth="yes"/>
			<point x="658" y="128"/>
			<point x="606" y="36"/>
			<point x="422" y="36" type="curve" smooth="yes"/>
			<point x="220" y="36"/>
			<point x="162" y="192"/>
			<point x="136" y="298" type="curve"/>
			<point x="128" y="324"/>
			<point x="126" y="334"/>
			<point x="102" y="334" type="curve" smooth="yes"/>
			<point x="70" y="334"/>
			<point x="70" y="318"/>
			<point x="70" y="280" type="curve" smooth="yes"/>
			<point x="70" y="32" type="line" smooth="yes"/>
			<point x="70" y="0"/>
			<point x="70" y="-20"/>
			<point x="96" y="-20" type="curve" smooth="yes"/>
			<point x="108" y="-20"/>
			<point x="110" y="-18"/>
			<point x="146" y="20" type="curve" smooth="yes"/>
			<point x="160" y="35"/>
			<point x="174" y="51"/>
			<point x="188" y="66" type="curve"/>
			<point x="278" y="-16"/>
			<point x="372" y="-20"/>
			<point x="424" y="-20" type="curve" smooth="yes"/>
			<point x="678" y="-20"/>
			<point x="766" y="126"/>
		</contour>
	</outline>
</glyph>
<glyph name="t" format="2">
	<unicode hex="0074"/>
	<advance width="826"/>
	<outline>
		<contour>
			<point x="372" y="796" type="line"/>
			<point x="670" y="796" type="line"/>
			<point x="670" y="862" type="line"/>
			<point x="372" y="862" type="line"/>
			<point x="372" y="1230" type="line"/>
			<point x="310" y="1230" type="line"/>
			<point x="308" y="1048"/>
			<point x="226" y="858"/>
			<point x="40" y="852" type="curve"/>
			<point x="40" y="796" type="line"/>
			<point x="220" y="796" type="line"/>
			<point x="220" y="250" type="line" smooth="yes"/>
			<point x="220" y="16"/>
			<point x="400" y="-20"/>
			<point x="492" y="-20" type="curve" smooth="yes"/>
			<point x="626" y="-20"/>
			<point x="706" y="100"/>
			<point x="706" y="250" type="curve" smooth="yes"/>
			<point x="706" y="362" type="line"/>
			<point x="644" y="362" type="line"/>
			<point x="644" y="254" type="line" smooth="yes"/>
			<point x="644" y="116"/>
			<point x="582" y="42"/>
			<point x="506" y="42" type="curve" smooth="yes"/>
			<point x="372" y="42"/>
			<point x="372" y="214"/>
			<point x="372" y="246" type="curve" smooth="yes"/>
		</contour>
	</outline>
</glyph>
<glyph name="u" format="2">
	<unicode hex="0075"/>
	<advance width="1180"/>
	<outline>
		<contour>
			<point x="234" y="610" type="curve" smooth="yes"/>
			<point x="234" y="310" type="line" smooth="yes"/>
			<point x="234" y="225"/>
			<point x="234" y="124"/>
			<point x="301" y="57" type="curve" smooth="yes"/>
			<point x="347" y="11"/>
			<point x="424" y="-20"/>
			<point x="554" y="-20" type="curve" smooth="yes"/>
			<point x="742" y="-20"/>
			<point x="814" y="124"/>
			<point x="824" y="142" type="curve"/>
			<point x="826" y="142" type="line"/>
			<point x="826" y="-20" type="line"/>
			<point x="1124" y="0" type="line"/>
			<point x="1124" y="66" type="line"/>
			<point x="988" y="66"/>
			<point x="972" y="80"/>
			<point x="972" y="178" type="curve" smooth="yes"/>
			<point x="972" y="882" type="line"/>
			<point x="668" y="860" type="line"/>
			<point x="668" y="794" type="line"/>
			<point x="804" y="794"/>
			<point x="820" y="780"/>
			<point x="820" y="682" type="curve" smooth="yes"/>
			<point x="820" y="334" type="line" smooth="yes"/>
			<point x="820" y="162"/>
			<point x="716" y="36"/>
			<point x="566" y="36" type="curve" smooth="yes"/>
			<point x="394" y="36"/>
			<point x="386" y="122"/>
			<point x="386" y="222" type="curve" smooth="yes"/>
			<point x="386" y="882" type="line"/>
			<point x="82" y="860" type="line"/>
			<point x="82" y="794" type="line"/>
			<point x="234" y="794"/>
			<point x="234" y="788"/>
		</contour>
	</outline>
</glyph>
<glyph name="v" format="2">
  <advance width="560"/>
  <unicode hex="0076"/>
  <outline>
    <contour>
      <point x="280" y="-10" type="curve" smooth="yes"/>
      <point x="294" y="-10"/>
      <point x="301" y="-2"/>
      <point x="306" y="10" type="curve" smooth="yes"/>
      <point x="351.621" y="115.894"/>
      <point x="397.242" y="221.788"/>
      <point x="443" y="328" type="curve" smooth="yes"/>
      <point x="467" y="384"/>
      <point x="501" y="397"/>
      <point x="538" y="398" type="curve"/>
      <point x="538.0" y="408.989"/>
      <point x="538.0" y="419.978"/>
      <point x="538" y="431" type="curve"/>
      <point x="503" y="428"/>
      <point x="501" y="428"/>
      <point x="460" y="428" type="curve" smooth="yes"/>
      <point x="451" y="428"/>
      <point x="404" y="428"/>
      <point x="373" y="431" type="curve"/>
      <point x="373.0" y="420.011"/>
      <point x="373.0" y="409.022"/>
      <point x="373" y="398" type="curve"/>
      <point x="408" y="396"/>
      <point x="417" y="374"/>
      <point x="417" y="357" type="curve" smooth="yes"/>
      <point x="417" y="347"/>
      <point x="415" y="342"/>
      <point x="411" y="333" type="curve" smooth="yes"/>
      <point x="375.036" y="249.084"/>
      <point x="339.072" y="165.16799999999998"/>
      <point x="303" y="81" type="curve"/>
      <point x="263.706" y="171.243"/>
      <point x="224.41199999999998" y="261.486"/>
      <point x="185" y="352" type="curve" smooth="yes"/>
      <point x="179" y="365"/>
      <point x="179" y="371"/>
      <point x="179" y="373" type="curve" smooth="yes"/>
      <point x="179" y="398"/>
      <point x="215" y="398"/>
      <point x="232" y="398" type="curve"/>
      <point x="232.0" y="408.989"/>
      <point x="232.0" y="419.978"/>
      <point x="232" y="431" type="curve"/>
      <point x="189" y="428"/>
      <point x="142" y="428"/>
      <point x="123" y="428" type="curve" smooth="yes"/>
      <point x="102" y="428"/>
      <point x="54" y="428"/>
      <point x="22" y="431" type="curve"/>
      <point x="22.0" y="420.011"/>
      <point x="22.0" y="409.022"/>
      <point x="22" y="398" type="curve"/>
      <point x="83" y="398"/>
      <point x="88" y="392"/>
      <point x="103" y="358" type="curve" smooth="yes"/>
      <point x="152.95" y="242.78199999999998"/>
      <point x="202.9" y="127.564"/>
      <point x="253" y="12" type="curve" smooth="yes"/>
      <point x="260" y="-3"/>
      <point x="266" y="-10"/>
    </contour>
  </outline>
</glyph>
<glyph name="w" format="2">
	<unicode hex="0077"/>
	<advance width="767"/>
	<outline>
		<contour>
			<point x="660" y="330" type="line" smooth="yes"/>
			<point x="669" y="353"/>
			<point x="686" y="397"/>
			<point x="745" y="398" type="curve"/>
			<point x="745" y="408.989"/>
			<point x="745" y="419.978"/>
			<point x="745" y="431" type="curve"/>
			<point x="712" y="428"/>
			<point x="710" y="428"/>
			<point x="667" y="428" type="curve" smooth="yes"/>
			<point x="635" y="428"/>
			<point x="608" y="428"/>
			<point x="576" y="431" type="curve"/>
			<point x="576" y="420.011"/>
			<point x="576" y="409.022"/>
			<point x="576" y="398" type="curve"/>
			<point x="620" y="396"/>
			<point x="631" y="370"/>
			<point x="631" y="352" type="curve" smooth="yes"/>
			<point x="631" y="340"/>
			<point x="628" y="334"/>
			<point x="626" y="327" type="curve"/>
			<point x="531" y="78" type="line"/>
			<point x="428" y="351" type="line" smooth="yes"/>
			<point x="423" y="364"/>
			<point x="423" y="367"/>
			<point x="423" y="371" type="curve" smooth="yes"/>
			<point x="423" y="397"/>
			<point x="455" y="398"/>
			<point x="479" y="398" type="curve"/>
			<point x="479" y="431" type="line"/>
			<point x="440" y="428"/>
			<point x="387" y="428"/>
			<point x="377" y="428" type="curve" smooth="yes"/>
			<point x="355" y="428"/>
			<point x="314" y="428"/>
			<point x="284" y="431" type="curve"/>
			<point x="284" y="398" type="line"/>
			<point x="316.33" y="398"/>
			<point x="332.0869" y="396.5955"/>
			<point x="342.585352" y="387.384789" type="curve" smooth="yes"/>
			<point x="351.8953" y="379.2168"/>
			<point x="357.07" y="364.91"/>
			<point x="366" y="340" type="curve"/>
			<point x="274" y="93" type="line"/>
			<point x="175" y="352" type="line"/>
			<point x="174" y="356"/>
			<point x="170" y="367"/>
			<point x="170" y="371" type="curve" smooth="yes"/>
			<point x="170" y="398"/>
			<point x="208" y="398"/>
			<point x="226" y="398" type="curve"/>
			<point x="226" y="431" type="line"/>
			<point x="183" y="428"/>
			<point x="138" y="428"/>
			<point x="119" y="428" type="curve" smooth="yes"/>
			<point x="101" y="428"/>
			<point x="50" y="428"/>
			<point x="21" y="431" type="curve"/>
			<point x="21" y="398" type="line"/>
			<point x="71" y="398"/>
			<point x="81" y="394"/>
			<point x="92" y="366" type="curve" smooth="yes"/>
			<point x="226" y="14" type="line" smooth="yes"/>
			<point x="232" y="-1"/>
			<point x="235" y="-10"/>
			<point x="251" y="-10" type="curve" smooth="yes"/>
			<point x="268" y="-10"/>
			<point x="272" y="1"/>
			<point x="277" y="14" type="curve" smooth="yes"/>
			<point x="383" y="295" type="line"/>
			<point x="489" y="14" type="line" smooth="yes"/>
			<point x="494" y="1"/>
			<point x="498" y="-10"/>
			<point x="515" y="-10" type="curve" smooth="yes"/>
			<point x="531" y="-10"/>
			<point x="535" y="0"/>
			<point x="539" y="11" type="curve" smooth="yes"/>
		</contour>
	</outline>
</glyph>
<glyph name="x" format="2">
	<unicode hex="0078"/>
	<advance width="560"/>
	<outline>
		<contour>
			<point x="246" y="211" type="line"/>
			<point x="155" y="104" type="line" smooth="yes"/>
			<point x="130" y="76"/>
			<point x="93" y="35"/>
			<point x="17" y="33" type="curve"/>
			<point x="17" y="0" type="line"/>
			<point x="54" y="3"/>
			<point x="61" y="3"/>
			<point x="103" y="3" type="curve" smooth="yes"/>
			<point x="105" y="3"/>
			<point x="166" y="3"/>
			<point x="198" y="0" type="curve"/>
			<point x="198" y="33" type="line"/>
			<point x="185" y="35"/>
			<point x="174" y="42"/>
			<point x="174" y="60" type="curve" smooth="yes"/>
			<point x="174" y="78"/>
			<point x="185" y="93"/>
			<point x="201" y="111" type="curve" smooth="yes"/>
			<point x="222.978" y="135.975"/>
			<point x="244.956" y="160.95"/>
			<point x="267" y="186" type="curve"/>
			<point x="349" y="88" type="line" smooth="yes"/>
			<point x="369" y="65"/>
			<point x="369" y="63"/>
			<point x="369" y="56" type="curve" smooth="yes"/>
			<point x="369" y="48"/>
			<point x="362" y="34"/>
			<point x="338" y="33" type="curve"/>
			<point x="338" y="0" type="line"/>
			<point x="381" y="3"/>
			<point x="426" y="3"/>
			<point x="445" y="3" type="curve" smooth="yes"/>
			<point x="463" y="3"/>
			<point x="514" y="3"/>
			<point x="544" y="0" type="curve"/>
			<point x="544" y="33" type="line"/>
			<point x="482" y="33"/>
			<point x="472" y="38"/>
			<point x="446" y="69" type="curve" smooth="yes"/>
			<point x="308" y="234" type="line"/>
			<point x="395" y="336" type="line" smooth="yes"/>
			<point x="426" y="373"/>
			<point x="463" y="397"/>
			<point x="526" y="398" type="curve"/>
			<point x="526" y="431" type="line"/>
			<point x="487" y="428"/>
			<point x="485" y="428"/>
			<point x="440" y="428" type="curve" smooth="yes"/>
			<point x="435" y="428"/>
			<point x="376" y="428"/>
			<point x="345" y="431" type="curve"/>
			<point x="345" y="398" type="line"/>
			<point x="364" y="396"/>
			<point x="368" y="384"/>
			<point x="368" y="371" type="curve" smooth="yes"/>
			<point x="368" y="358"/>
			<point x="363" y="346"/>
			<point x="351" y="332" type="curve" smooth="yes"/>
			<point x="288" y="258" type="line"/>
			<point x="209" y="352" type="line" smooth="yes"/>
			<point x="197" y="366"/>
			<point x="197" y="373"/>
			<point x="197" y="375" type="curve" smooth="yes"/>
			<point x="197" y="382"/>
			<point x="203" y="397"/>
			<point x="228" y="398" type="curve"/>
			<point x="228" y="431" type="line"/>
			<point x="188" y="428"/>
			<point x="132" y="428"/>
			<point x="121" y="428" type="curve" smooth="yes"/>
			<point x="103" y="428"/>
			<point x="52" y="428"/>
			<point x="22" y="431" type="curve"/>
			<point x="22" y="398" type="line"/>
			<point x="90" y="398"/>
			<point x="91" y="397"/>
			<point x="143" y="336" type="curve" smooth="yes"/>
		</contour>
	</outline>
</glyph>
<glyph name="y" format="2">
  <advance width="560"/>
  <unicode hex="0079"/>
  <outline>
    <contour>
      <point x="118" y="-204" type="curve" smooth="yes"/>
      <point x="207" y="-204"/>
      <point x="255" y="-97"/>
      <point x="259" y="-87" type="curve" smooth="yes"/>
      <point x="443" y="330" type="line" smooth="yes"/>
      <point x="468" y="387"/>
      <point x="505" y="397"/>
      <point x="538" y="398" type="curve"/>
      <point x="538" y="431" type="line"/>
      <point x="503" y="428"/>
      <point x="501" y="428"/>
      <point x="459" y="428" type="curve" smooth="yes"/>
      <point x="455" y="428"/>
      <point x="402" y="428"/>
      <point x="373" y="431" type="curve"/>
      <point x="373" y="398" type="line"/>
      <point x="402" y="396"/>
      <point x="416" y="380"/>
      <point x="416" y="357" type="curve" smooth="yes"/>
      <point x="416" y="351"/>
      <point x="415" y="344"/>
      <point x="410" y="332" type="curve" smooth="yes"/>
      <point x="303" y="90" type="line"/>
      <point x="187" y="352" type="line" smooth="yes"/>
      <point x="180" y="367"/>
      <point x="180" y="369"/>
      <point x="180" y="373" type="curve" smooth="yes"/>
      <point x="180" y="397"/>
      <point x="211" y="398"/>
      <point x="233" y="398" type="curve"/>
      <point x="233" y="431" type="line"/>
      <point x="188" y="428"/>
      <point x="145" y="428"/>
      <point x="123" y="428" type="curve" smooth="yes"/>
      <point x="102" y="428"/>
      <point x="54" y="428"/>
      <point x="22" y="431" type="curve"/>
      <point x="22" y="398" type="line"/>
      <point x="74" y="398"/>
      <point x="88" y="396"/>
      <point x="105" y="358" type="curve" smooth="yes"/>
      <point x="263" y="0" type="line"/>
      <point x="263" y="0" type="line"/>
      <point x="218" y="-106"/>
      <point x="188" y="-176"/>
      <point x="118" y="-176" type="curve" smooth="yes"/>
      <point x="93" y="-176"/>
      <point x="77" y="-164"/>
      <point x="77" y="-164" type="curve"/>
      <point x="84" y="-162"/>
      <point x="107" y="-151"/>
      <point x="107" y="-122" type="curve" smooth="yes"/>
      <point x="107" y="-94"/>
      <point x="86" y="-79"/>
      <point x="64" y="-79" type="curve" smooth="yes"/>
      <point x="44" y="-79"/>
      <point x="21" y="-92"/>
      <point x="21" y="-123" type="curve" smooth="yes"/>
      <point x="21" y="-167"/>
      <point x="64" y="-204"/>
    </contour>
  </outline>
</glyph>
<glyph name="z" format="2">
	<unicode hex="007A"/>
	<advance width="944"/>
	<outline>
		<contour>
			<point x="658" y="806" type="line"/>
			<point x="78" y="74" type="line" smooth="yes"/>
			<point x="64" y="56"/>
			<point x="60" y="52"/>
			<point x="60" y="34" type="curve" smooth="yes"/>
			<point x="60" y="0"/>
			<point x="82" y="0"/>
			<point x="116" y="0" type="curve" smooth="yes"/>
			<point x="818" y="0" type="line"/>
			<point x="854" y="386" type="line"/>
			<point x="792" y="386" type="line"/>
			<point x="772" y="154"/>
			<point x="734" y="62"/>
			<point x="488" y="62" type="curve" smooth="yes"/>
			<point x="250" y="62" type="line"/>
			<point x="830" y="792" type="line" smooth="yes"/>
			<point x="844" y="810"/>
			<point x="848" y="814"/>
			<point x="848" y="830" type="curve" smooth="yes"/>
			<point x="848" y="862"/>
			<point x="824" y="862"/>
			<point x="792" y="862" type="curve" smooth="yes"/>
			<point x="112" y="862" type="line"/>
			<point x="88" y="528" type="line"/>
			<point x="150" y="528" type="line"/>
			<point x="162" y="736"/>
			<point x="206" y="806"/>
			<point x="430" y="806" type="curve" smooth="yes"/>
		</contour>
	</outline>
</glyph>
<glyph name="exclamdown" format="2">
	<unicode hex="00A1"/>
	<advance width="590"/>
	<outline>
		<contour>
			<point x="294" y="-430" type="curve" smooth="yes"/>
			<point x="352" y="-430"/>
			<point x="406" y="-388"/>
			<point x="406" y="-324" type="curve"/>
			<point x="380" y="-24"/>
			<point x="354" y="275"/>
			<point x="328" y="576" type="curve"/>
			<point x="326" y="608"/>
			<point x="322" y="618"/>
			<point x="296" y="618" type="curve" smooth="yes"/>
			<point x="268" y="618"/>
			<point x="266" y="610"/>
			<point x="262" y="574" type="curve" smooth="yes"/>
			<point x="236" y="275"/>
			<point x="210" y="-24"/>
			<point x="184" y="-324" type="curve"/>
			<point x="184" y="-392"/>
			<point x="242" y="-430"/>
		</contour>
		<contour>
			<point x="406" y="888" type="curve" smooth="yes"/>
			<point x="406" y="956"/>
			<point x="352" y="1000"/>
			<point x="296" y="1000" type="curve" smooth="yes"/>
			<point x="234" y="1000"/>
			<point x="184" y="950"/>
			<point x="184" y="888" type="curve" smooth="yes"/>
			<point x="184" y="828"/>
			<point x="234" y="778"/>
			<point x="294" y="778" type="curve" smooth="yes"/>
			<point x="360" y="778"/>
			<point x="406" y="832"/>
		</contour>
	</outline>
</glyph>
<glyph name="dieresis" format="2">
	<unicode hex="00A8"/>
	<advance width="1062"/>
	<outline>
		<contour>
			<point x="428" y="1240" type="curve" smooth="yes"/>
			<point x="428" y="1304"/>
			<point x="378" y="1344"/>
			<point x="324" y="1344" type="curve" smooth="yes"/>
			<point x="264" y="1344"/>
			<point x="220" y="1294"/>
			<point x="220" y="1240" type="curve" smooth="yes"/>
			<point x="220" y="1186"/>
			<point x="264" y="1136"/>
			<point x="324" y="1136" type="curve" smooth="yes"/>
			<point x="378" y="1136"/>
			<point x="428" y="1176"/>
		</contour>
		<contour>
			<point x="840" y="1240" type="curve" smooth="yes"/>
			<point x="840" y="1294"/>
			<point x="796" y="1344"/>
			<point x="736" y="1344" type="curve" smooth="yes"/>
			<point x="682" y="1344"/>
			<point x="632" y="1304"/>
			<point x="632" y="1240" type="curve" smooth="yes"/>
			<point x="632" y="1176"/>
			<point x="682" y="1136"/>
			<point x="736" y="1136" type="curve" smooth="yes"/>
			<point x="796" y="1136"/>
			<point x="840" y="1186"/>
		</contour>
	</outline>
</glyph>
<glyph name="macron" format="2">
	<unicode hex="00AF"/>
	<advance width="1062"/>
	<outline>
		<contour>
			<point x="912" y="1114" type="line"/>
			<point x="912" y="1190" type="line"/>
			<point x="148" y="1190" type="line"/>
			<point x="148" y="1114" type="line"/>
		</contour>
	</outline>
</glyph>
<glyph name="acute" format="2">
	<unicode hex="00B4"/>
	<advance width="1062"/>
	<outline>
		<contour>
			<point x="478" y="1014" type="line"/>
			<point x="792" y="1250" type="line" smooth="yes"/>
			<point x="814" y="1266"/>
			<point x="832" y="1284"/>
			<point x="832" y="1316" type="curve" smooth="yes"/>
			<point x="832" y="1362"/>
			<point x="790" y="1396"/>
			<point x="754" y="1396" type="curve" smooth="yes"/>
			<point x="746" y="1396"/>
			<point x="718" y="1396"/>
			<point x="692" y="1364" type="curve" smooth="yes"/>
			<point x="607" y="1263"/>
			<point x="522" y="1162"/>
			<point x="436" y="1060" type="curve"/>
		</contour>
	</outline>
</glyph>
<glyph name="cedilla" format="2">
	<unicode hex="00B8"/>
	<advance width="944"/>
	<outline>
		<contour>
			<point x="632" y="-246" type="curve" smooth="yes"/>
			<point x="632" y="-314"/>
			<point x="554" y="-354"/>
			<point x="344" y="-354" type="curve" smooth="yes"/>
			<point x="321" y="-354"/>
			<point x="299" y="-354"/>
			<point x="276" y="-354" type="curve"/>
			<point x="276" y="-410" type="line"/>
			<point x="307" y="-410"/>
			<point x="339" y="-410"/>
			<point x="370" y="-410" type="curve" smooth="yes"/>
			<point x="396" y="-410"/>
			<point x="534" y="-408"/>
			<point x="622" y="-388" type="curve" smooth="yes"/>
			<point x="702" y="-370"/>
			<point x="784" y="-336"/>
			<point x="784" y="-246" type="curve" smooth="yes"/>
			<point x="784" y="-140"/>
			<point x="672" y="-108"/>
			<point x="606" y="-96" type="curve"/>
			<point x="606" y="-42" type="line"/>
			<point x="454" y="-42" type="line"/>
			<point x="454" y="-140" type="line"/>
			<point x="590" y="-142"/>
			<point x="632" y="-200"/>
		</contour>
	</outline>
</glyph>
<glyph name="questiondown" format="2">
	<unicode hex="00BF"/>
	<advance width="1002"/>
	<outline>
		<contour>
			<point x="118" y="-136" type="curve" smooth="yes"/>
			<point x="118" y="-236"/>
			<point x="172" y="-408"/>
			<point x="470" y="-408" type="curve" smooth="yes"/>
			<point x="702" y="-408"/>
			<point x="884" y="-306"/>
			<point x="884" y="-140" type="curve" smooth="yes"/>
			<point x="884" y="-60"/>
			<point x="822" y="-42"/>
			<point x="790" y="-42" type="curve" smooth="yes"/>
			<point x="744" y="-42"/>
			<point x="696" y="-74"/>
			<point x="696" y="-136" type="curve" smooth="yes"/>
			<point x="696" y="-202"/>
			<point x="748" y="-230"/>
			<point x="792" y="-232" type="curve"/>
			<point x="708" y="-342"/>
			<point x="532" y="-352"/>
			<point x="476" y="-352" type="curve" smooth="yes"/>
			<point x="298" y="-352"/>
			<point x="296" y="-244"/>
			<point x="296" y="-150" type="curve" smooth="yes"/>
			<point x="296" y="-38"/>
			<point x="320" y="-6"/>
			<point x="350" y="34" type="curve" smooth="yes"/>
			<point x="500" y="228"/>
			<point x="502" y="424"/>
			<point x="502" y="526" type="curve" smooth="yes"/>
			<point x="502" y="546"/>
			<point x="502" y="566"/>
			<point x="502" y="586" type="curve" smooth="yes"/>
			<point x="502" y="608"/>
			<point x="496" y="618"/>
			<point x="472" y="618" type="curve" smooth="yes"/>
			<point x="440" y="618"/>
			<point x="440" y="606"/>
			<point x="440" y="566" type="curve" smooth="yes"/>
			<point x="440" y="504" type="line" smooth="yes"/>
			<point x="440" y="316"/>
			<point x="346" y="172"/>
			<point x="224" y="74" type="curve" smooth="yes"/>
			<point x="190" y="46"/>
			<point x="118" y="-10"/>
		</contour>
		<contour>
			<point x="582" y="888" type="curve" smooth="yes"/>
			<point x="582" y="956"/>
			<point x="528" y="1000"/>
			<point x="472" y="1000" type="curve" smooth="yes"/>
			<point x="410" y="1000"/>
			<point x="360" y="950"/>
			<point x="360" y="888" type="curve" smooth="yes"/>
			<point x="360" y="828"/>
			<point x="410" y="778"/>
			<point x="470" y="778" type="curve" smooth="yes"/>
			<point x="536" y="778"/>
			<point x="582" y="832"/>
		</contour>
	</outline>
</glyph>
<glyph name="AE" format="2">
	<unicode hex="00C6"/>
	<advance width="1916"/>
	<outline>
		<contour>
			<point x="1740" y="1366" type="line"/>
			<point x="564" y="1366" type="line"/>
			<point x="564" y="1300" type="line"/>
			<point x="732" y="1300" type="line"/>
			<point x="300" y="206" type="line" smooth="yes"/>
			<point x="280" y="154"/>
			<point x="244" y="68"/>
			<point x="72" y="66" type="curve"/>
			<point x="72" y="66" type="line"/>
			<point x="72" y="0" type="line"/>
			<point x="136" y="6"/>
			<point x="242" y="6"/>
			<point x="278" y="6" type="curve" smooth="yes"/>
			<point x="318" y="6"/>
			<point x="412" y="6"/>
			<point x="502" y="0" type="curve"/>
			<point x="502" y="66" type="line"/>
			<point x="384" y="68"/>
			<point x="362" y="134"/>
			<point x="362" y="164" type="curve" smooth="yes"/>
			<point x="362" y="178"/>
			<point x="362" y="180"/>
			<point x="374" y="208" type="curve" smooth="yes"/>
			<point x="538" y="624" type="line"/>
			<point x="884" y="624" type="line"/>
			<point x="884" y="156" type="line" smooth="yes"/>
			<point x="884" y="66"/>
			<point x="860" y="66"/>
			<point x="732" y="66" type="curve"/>
			<point x="732" y="66" type="line"/>
			<point x="732" y="0" type="line"/>
			<point x="1768" y="0" type="line"/>
			<point x="1856" y="520" type="line"/>
			<point x="1794" y="520" type="line"/>
			<point x="1742" y="222"/>
			<point x="1710" y="66"/>
			<point x="1368" y="66" type="curve" smooth="yes"/>
			<point x="1152" y="66" type="line" smooth="yes"/>
			<point x="1060" y="66"/>
			<point x="1056" y="80"/>
			<point x="1056" y="148" type="curve" smooth="yes"/>
			<point x="1056" y="624" type="line"/>
			<point x="1238" y="624" type="line" smooth="yes"/>
			<point x="1432" y="624"/>
			<point x="1454" y="562"/>
			<point x="1454" y="390" type="curve"/>
			<point x="1516" y="390" type="line"/>
			<point x="1516" y="924" type="line"/>
			<point x="1454" y="924" type="line"/>
			<point x="1454" y="752"/>
			<point x="1432" y="690"/>
			<point x="1238" y="690" type="curve" smooth="yes"/>
			<point x="1056" y="690" type="line"/>
			<point x="1056" y="1218" type="line" smooth="yes"/>
			<point x="1056" y="1286"/>
			<point x="1060" y="1300"/>
			<point x="1152" y="1300" type="curve" smooth="yes"/>
			<point x="1370" y="1300" type="line" smooth="yes"/>
			<point x="1660" y="1300"/>
			<point x="1704" y="1182"/>
			<point x="1736" y="912" type="curve"/>
			<point x="1798" y="912" type="line"/>
		</contour>
		<contour>
			<point x="562" y="690" type="line"/>
			<point x="800" y="1292" type="line"/>
			<point x="884" y="1290"/>
			<point x="884" y="1236"/>
			<point x="884" y="1202" type="curve" smooth="yes"/>
			<point x="884" y="690" type="line"/>
		</contour>
	</outline>
</glyph>
<glyph name="Oslash" format="2">
  <advance width="826"/>
  <unicode hex="00D8"/>
  <outline>
    <contour>
      <point x="705" y="723" type="line"/>
      <point x="680" y="741" type="line"/>
      <point x="610" y="643" type="line"/>
      <point x="523" y="698"/>
      <point x="453" y="704"/>
      <point x="413" y="704" type="curve" smooth="yes"/>
      <point x="216" y="704"/>
      <point x="59" y="539"/>
      <point x="59" y="339" type="curve" smooth="yes"/>
      <point x="59" y="269"/>
      <point x="80" y="150"/>
      <point x="191" y="59" type="curve"/>
      <point x="121" y="-40" type="line"/>
      <point x="145" y="-58" type="line"/>
      <point x="215" y="40" type="line"/>
      <point x="257" y="11"/>
      <point x="327" y="-21"/>
      <point x="412" y="-21" type="curve" smooth="yes"/>
      <point x="606" y="-21"/>
      <point x="766" y="137"/>
      <point x="766" y="339" type="curve" smooth="yes"/>
      <point x="766" y="435"/>
      <point x="727" y="545"/>
      <point x="634" y="623" type="curve"/>
    </contour>
    <contour>
      <point x="413" y="7" type="curve" smooth="yes"/>
      <point x="339" y="7"/>
      <point x="277" y="39"/>
      <point x="241" y="75" type="curve"/>
      <point x="605" y="584" type="line"/>
      <point x="650" y="529"/>
      <point x="674" y="452"/>
      <point x="674" y="339" type="curve" smooth="yes"/>
      <point x="674" y="297"/>
      <point x="673" y="197"/>
      <point x="622" y="119" type="curve" smooth="yes"/>
      <point x="568" y="38"/>
      <point x="483" y="7"/>
    </contour>
    <contour>
      <point x="219" y="98" type="line"/>
      <point x="179" y="148"/>
      <point x="151" y="216"/>
      <point x="151" y="339" type="curve" smooth="yes"/>
      <point x="151.0" y="452.86312"/>
      <point x="179.133694176" y="532.3629421136"/>
      <point x="221.07771241650323" y="585.4268661509366" type="curve" smooth="yes"/>
      <point x="272.7002557904" y="650.7352184528"/>
      <point x="345.24188" y="676.0"/>
      <point x="412" y="676" type="curve" smooth="yes"/>
      <point x="480" y="676"/>
      <point x="539" y="649"/>
      <point x="584" y="608" type="curve"/>
    </contour>
  </outline>
</glyph>
<glyph name="germandbls" format="2">
	<unicode hex="00DF"/>
	<advance width="531"/>
	<outline>
		<contour>
			<point x="341" y="415" type="curve"/>
			<point x="438" y="449"/>
			<point x="471" y="512"/>
			<point x="471" y="560" type="curve" smooth="yes"/>
			<point x="471" y="638"/>
			<point x="392" y="704"/>
			<point x="289" y="704" type="curve" smooth="yes"/>
			<point x="206" y="704"/>
			<point x="111" y="654"/>
			<point x="111" y="554" type="curve" smooth="yes"/>
			<point x="111" y="431" type="line"/>
			<point x="35" y="431" type="line"/>
			<point x="35" y="398" type="line"/>
			<point x="111" y="398" type="line"/>
			<point x="111" y="78" type="line" smooth="yes"/>
			<point x="111" y="33"/>
			<point x="99" y="33"/>
			<point x="35" y="33" type="curve"/>
			<point x="35" y="0" type="line"/>
			<point x="74" y="3"/>
			<point x="91" y="3"/>
			<point x="127" y="3" type="curve" smooth="yes"/>
			<point x="162" y="3"/>
			<point x="170" y="3"/>
			<point x="184" y="0" type="curve"/>
			<point x="184" y="555" type="line" smooth="yes"/>
			<point x="184" y="668"/>
			<point x="270" y="676"/>
			<point x="289" y="676" type="curve" smooth="yes"/>
			<point x="333" y="676"/>
			<point x="390" y="646"/>
			<point x="390" y="561" type="curve" smooth="yes"/>
			<point x="390" y="498"/>
			<point x="352" y="438"/>
			<point x="262" y="431" type="curve" smooth="yes"/>
			<point x="251" y="430"/>
			<point x="243" y="430"/>
			<point x="243" y="417" type="curve" smooth="yes"/>
			<point x="243" y="404"/>
			<point x="252" y="403"/>
			<point x="258" y="403" type="curve"/>
			<point x="361" y="395"/>
			<point x="419" y="296"/>
			<point x="419" y="174" type="curve" smooth="yes"/>
			<point x="419" y="46"/>
			<point x="349" y="18"/>
			<point x="312" y="18" type="curve" smooth="yes"/>
			<point x="307" y="18"/>
			<point x="286" y="18"/>
			<point x="267" y="32" type="curve"/>
			<point x="268" y="32"/>
			<point x="290" y="41"/>
			<point x="290" y="68" type="curve" smooth="yes"/>
			<point x="290" y="91"/>
			<point x="272" y="105"/>
			<point x="253" y="105" type="curve" smooth="yes"/>
			<point x="234" y="105"/>
			<point x="215" y="93"/>
			<point x="215" y="66" type="curve" smooth="yes"/>
			<point x="215" y="26"/>
			<point x="254" y="-10"/>
			<point x="314" y="-10" type="curve" smooth="yes"/>
			<point x="408" y="-10"/>
			<point x="500" y="63"/>
			<point x="500" y="175" type="curve" smooth="yes"/>
			<point x="500" y="268"/>
			<point x="447" y="371"/>
		</contour>
	</outline>
</glyph>
<glyph name="ae" format="2">
	<unicode hex="00E6"/>
	<advance width="1534"/>
	<outline>
		<contour>
			<point x="96" y="194" type="curve" smooth="yes"/>
			<point x="96" y="36"/>
			<point x="278" y="-20"/>
			<point x="432" y="-20" type="curve" smooth="yes"/>
			<point x="668" y="-20"/>
			<point x="766" y="108"/>
			<point x="792" y="150" type="curve"/>
			<point x="856" y="66"/>
			<point x="986" y="-20"/>
			<point x="1144" y="-20" type="curve" smooth="yes"/>
			<point x="1380" y="-20"/>
			<point x="1472" y="194"/>
			<point x="1472" y="240" type="curve" smooth="yes"/>
			<point x="1472" y="248"/>
			<point x="1466" y="268"/>
			<point x="1440" y="268" type="curve" smooth="yes"/>
			<point x="1418" y="268"/>
			<point x="1414" y="252"/>
			<point x="1410" y="242" type="curve"/>
			<point x="1342" y="42"/>
			<point x="1182" y="42"/>
			<point x="1152" y="42" type="curve" smooth="yes"/>
			<point x="1136" y="42"/>
			<point x="842" y="42"/>
			<point x="842" y="456" type="curve"/>
			<point x="1416" y="456" type="line" smooth="yes"/>
			<point x="1460" y="456"/>
			<point x="1472" y="456"/>
			<point x="1472" y="502" type="curve" smooth="yes"/>
			<point x="1472" y="702"/>
			<point x="1366" y="892"/>
			<point x="1118" y="892" type="curve" smooth="yes"/>
			<point x="916" y="892"/>
			<point x="800" y="744"/>
			<point x="798" y="742" type="curve"/>
			<point x="734" y="834"/>
			<point x="612" y="892"/>
			<point x="470" y="892" type="curve" smooth="yes"/>
			<point x="294" y="892"/>
			<point x="154" y="822"/>
			<point x="154" y="696" type="curve" smooth="yes"/>
			<point x="154" y="636"/>
			<point x="196" y="600"/>
			<point x="248" y="600" type="curve" smooth="yes"/>
			<point x="304" y="600"/>
			<point x="342" y="640"/>
			<point x="342" y="694" type="curve" smooth="yes"/>
			<point x="342" y="738"/>
			<point x="312" y="776"/>
			<point x="270" y="788" type="curve"/>
			<point x="334" y="830"/>
			<point x="430" y="836"/>
			<point x="466" y="836" type="curve" smooth="yes"/>
			<point x="574" y="836"/>
			<point x="690" y="762"/>
			<point x="690" y="594" type="curve" smooth="yes"/>
			<point x="690" y="506" type="line"/>
			<point x="306" y="498"/>
			<point x="96" y="368"/>
		</contour>
		<contour>
			<point x="446" y="36" type="curve" smooth="yes"/>
			<point x="340" y="36"/>
			<point x="260" y="106"/>
			<point x="260" y="194" type="curve" smooth="yes"/>
			<point x="260" y="250"/>
			<point x="290" y="432"/>
			<point x="690" y="452" type="curve"/>
			<point x="690" y="410"/>
			<point x="690" y="378"/>
			<point x="708" y="310" type="curve" smooth="yes"/>
			<point x="712" y="294"/>
			<point x="714" y="284"/>
			<point x="714" y="266" type="curve" smooth="yes"/>
			<point x="714" y="126"/>
			<point x="576" y="36"/>
		</contour>
		<contour>
			<point x="844" y="508" type="line"/>
			<point x="866" y="758"/>
			<point x="1018" y="836"/>
			<point x="1116" y="836" type="curve" smooth="yes"/>
			<point x="1324" y="836"/>
			<point x="1334" y="566"/>
			<point x="1336" y="508" type="curve"/>
		</contour>
	</outline>
</glyph>
<glyph name="oslash" format="2">
	<unicode hex="00F8"/>
	<advance width="1062"/>
	<outline>
		<contour>
			<point x="172" y="-208" type="line"/>
			<point x="318" y="30" type="line"/>
			<point x="394" y="-6"/>
			<point x="464" y="-20"/>
			<point x="530" y="-20" type="curve" smooth="yes"/>
			<point x="780" y="-20"/>
			<point x="988" y="176"/>
			<point x="988" y="426" type="curve" smooth="yes"/>
			<point x="988" y="524"/>
			<point x="954" y="690"/>
			<point x="794" y="806" type="curve"/>
			<point x="936" y="1040" type="line"/>
			<point x="888" y="1070" type="line"/>
			<point x="746" y="838" type="line"/>
			<point x="654" y="884"/>
			<point x="576" y="892"/>
			<point x="530" y="892" type="curve" smooth="yes"/>
			<point x="274" y="892"/>
			<point x="72" y="678"/>
			<point x="72" y="426" type="curve" smooth="yes"/>
			<point x="72" y="290"/>
			<point x="136" y="148"/>
			<point x="270" y="60" type="curve"/>
			<point x="124" y="-178" type="line"/>
		</contour>
		<contour>
			<point x="530" y="36" type="curve" smooth="yes"/>
			<point x="468" y="36"/>
			<point x="406" y="54"/>
			<point x="354" y="88" type="curve"/>
			<point x="752" y="738" type="line"/>
			<point x="828" y="648"/>
			<point x="836" y="524"/>
			<point x="836" y="426" type="curve" smooth="yes"/>
			<point x="836" y="322"/>
			<point x="826" y="226"/>
			<point x="766" y="146" type="curve" smooth="yes"/>
			<point x="722" y="88"/>
			<point x="638" y="36"/>
		</contour>
		<contour>
			<point x="310" y="126" type="line"/>
			<point x="230" y="212"/>
			<point x="224" y="336"/>
			<point x="224" y="426" type="curve" smooth="yes"/>
			<point x="224" y="550"/>
			<point x="238" y="644"/>
			<point x="298" y="726" type="curve" smooth="yes"/>
			<point x="344" y="788"/>
			<point x="430" y="836"/>
			<point x="530" y="836" type="curve" smooth="yes"/>
			<point x="592" y="836"/>
			<point x="656" y="818"/>
			<point x="708" y="778" type="curve"/>
		</contour>
	</outline>
</glyph>
<glyph name="dotlessi" format="2">
	<unicode hex="0131"/>
	<advance width="590"/>
	<outline>
		<contour>
			<point x="382" y="882" type="line"/>
			<point x="90" y="860" type="line"/>
			<point x="90" y="794" type="line"/>
			<point x="218" y="794"/>
			<point x="236" y="782"/>
			<point x="236" y="684" type="curve" smooth="yes"/>
			<point x="236" y="156" type="line" smooth="yes"/>
			<point x="236" y="66"/>
			<point x="212" y="66"/>
			<point x="84" y="66" type="curve"/>
			<point x="84" y="66" type="line"/>
			<point x="84" y="0" type="line"/>
			<point x="162" y="6"/>
			<point x="274" y="6"/>
			<point x="304" y="6" type="curve" smooth="yes"/>
			<point x="330" y="6"/>
			<point x="450" y="6"/>
			<point x="520" y="0" type="curve"/>
			<point x="520" y="66" type="line"/>
			<point x="390" y="66"/>
			<point x="382" y="76"/>
			<point x="382" y="154" type="curve" smooth="yes"/>
		</contour>
	</outline>
</glyph>
<glyph name="OE" format="2">
	<unicode hex="0152"/>
	<advance width="2152"/>
	<outline>
		<contour>
			<point x="2092" y="520" type="line"/>
			<point x="2030" y="520" type="line"/>
			<point x="1978" y="218"/>
			<point x="1942" y="66"/>
			<point x="1594" y="66" type="curve" smooth="yes"/>
			<point x="1346" y="66" type="line" smooth="yes"/>
			<point x="1254" y="66"/>
			<point x="1250" y="80"/>
			<point x="1250" y="148" type="curve" smooth="yes"/>
			<point x="1250" y="676" type="line"/>
			<point x="1480" y="676" type="line" smooth="yes"/>
			<point x="1682" y="676"/>
			<point x="1720" y="622"/>
			<point x="1720" y="442" type="curve"/>
			<point x="1782" y="442" type="line"/>
			<point x="1782" y="976" type="line"/>
			<point x="1720" y="976" type="line"/>
			<point x="1720" y="796"/>
			<point x="1684" y="742"/>
			<point x="1480" y="742" type="curve" smooth="yes"/>
			<point x="1250" y="742" type="line"/>
			<point x="1250" y="1218" type="line" smooth="yes"/>
			<point x="1250" y="1286"/>
			<point x="1254" y="1300"/>
			<point x="1346" y="1300" type="curve" smooth="yes"/>
			<point x="1592" y="1300" type="line" smooth="yes"/>
			<point x="1904" y="1300"/>
			<point x="1938" y="1172"/>
			<point x="1972" y="912" type="curve"/>
			<point x="2034" y="912" type="line"/>
			<point x="1976" y="1366" type="line"/>
			<point x="1176" y="1366" type="line" smooth="yes"/>
			<point x="1146" y="1366"/>
			<point x="1114" y="1366"/>
			<point x="1002" y="1388" type="curve" smooth="yes"/>
			<point x="910" y="1408"/>
			<point x="874" y="1408"/>
			<point x="850" y="1408" type="curve" smooth="yes"/>
			<point x="472" y="1408"/>
			<point x="146" y="1086"/>
			<point x="146" y="678" type="curve" smooth="yes"/>
			<point x="146" y="266"/>
			<point x="478" y="-42"/>
			<point x="850" y="-42" type="curve" smooth="yes"/>
			<point x="876" y="-42"/>
			<point x="910" y="-42"/>
			<point x="1012" y="-22" type="curve" smooth="yes"/>
			<point x="1114" y="0"/>
			<point x="1146" y="0"/>
			<point x="1176" y="0" type="curve" smooth="yes"/>
			<point x="2004" y="0" type="line"/>
		</contour>
		<contour>
			<point x="348" y="708" type="curve" smooth="yes"/>
			<point x="348" y="1076"/>
			<point x="580" y="1352"/>
			<point x="858" y="1352" type="curve" smooth="yes"/>
			<point x="1034" y="1352"/>
			<point x="1090" y="1288"/>
			<point x="1090" y="986" type="curve" smooth="yes"/>
			<point x="1090" y="896"/>
			<point x="1090" y="804"/>
			<point x="1090" y="714" type="curve" smooth="yes"/>
			<point x="1090" y="602"/>
			<point x="1090" y="492"/>
			<point x="1090" y="380" type="curve" smooth="yes"/>
			<point x="1090" y="80"/>
			<point x="1034" y="14"/>
			<point x="858" y="14" type="curve" smooth="yes"/>
			<point x="576" y="14"/>
			<point x="348" y="322"/>
		</contour>
	</outline>
</glyph>
<glyph name="oe" format="2">
	<unicode hex="0153"/>
	<advance width="826"/>
	<outline>
		<contour>
			<point x="256" y="-10" type="curve" smooth="yes"/>
			<point x="329" y="-10"/>
			<point x="402" y="27"/>
			<point x="442" y="92" type="curve"/>
			<point x="484" y="29"/>
			<point x="556" y="-10"/>
			<point x="631" y="-10" type="curve" smooth="yes"/>
			<point x="749" y="-10"/>
			<point x="795" y="97"/>
			<point x="795" y="120" type="curve" smooth="yes"/>
			<point x="795" y="124"/>
			<point x="792" y="134"/>
			<point x="779" y="134" type="curve" smooth="yes"/>
			<point x="768" y="134"/>
			<point x="766" y="126"/>
			<point x="764" y="121" type="curve"/>
			<point x="730" y="21"/>
			<point x="650" y="21"/>
			<point x="635" y="21" type="curve" smooth="yes"/>
			<point x="627" y="21"/>
			<point x="480" y="21"/>
			<point x="480" y="228" type="curve"/>
			<point x="767" y="228" type="line" smooth="yes"/>
			<point x="789" y="228"/>
			<point x="795" y="228"/>
			<point x="795" y="251" type="curve" smooth="yes"/>
			<point x="795" y="351"/>
			<point x="742" y="446"/>
			<point x="618" y="446" type="curve" smooth="yes"/>
			<point x="552" y="446"/>
			<point x="485" y="414"/>
			<point x="441" y="347" type="curve"/>
			<point x="398" y="411"/>
			<point x="329" y="446"/>
			<point x="256" y="446" type="curve" smooth="yes"/>
			<point x="132" y="446"/>
			<point x="30" y="344"/>
			<point x="30" y="219" type="curve" smooth="yes"/>
			<point x="30" y="90"/>
			<point x="134" y="-10"/>
		</contour>
		<contour>
			<point x="257" y="18" type="curve" smooth="yes"/>
			<point x="232" y="18"/>
			<point x="112" y="29"/>
			<point x="112" y="223" type="curve" smooth="yes"/>
			<point x="112" y="401"/>
			<point x="222" y="418"/>
			<point x="257" y="418" type="curve" smooth="yes"/>
			<point x="281" y="418"/>
			<point x="404" y="407"/>
			<point x="404" y="223" type="curve" smooth="yes"/>
			<point x="404" y="34"/>
			<point x="285" y="18"/>
		</contour>
		<contour>
			<point x="481" y="254" type="line"/>
			<point x="492" y="379"/>
			<point x="568" y="418"/>
			<point x="617" y="418" type="curve" smooth="yes"/>
			<point x="721" y="418"/>
			<point x="726" y="283"/>
			<point x="727" y="254" type="curve"/>
		</contour>
	</outline>
</glyph>
<glyph name="circumflex" format="2">
	<unicode hex="02C6"/>
	<advance width="1062"/>
	<outline>
		<contour>
			<point x="530" y="1388" type="line"/>
			<point x="246" y="1120" type="line"/>
			<point x="286" y="1072" type="line"/>
			<point x="530" y="1270" type="line"/>
			<point x="774" y="1072" type="line"/>
			<point x="814" y="1118" type="line"/>
		</contour>
	</outline>
</glyph>
<glyph name="caron" format="2">
	<unicode hex="02C7"/>
	<advance width="531"/>
	<outline>
		<contour>
			<point x="265" y="573" type="line"/>
			<point x="141" y="641" type="line"/>
			<point x="125" y="615" type="line"/>
			<point x="265" y="515" type="line"/>
			<point x="405" y="615" type="line"/>
			<point x="389" y="641" type="line"/>
		</contour>
	</outline>
</glyph>
<glyph name="breve" format="2">
	<unicode hex="02D8"/>
	<advance width="531"/>
	<outline>
		<contour>
			<point x="398" y="694" type="line"/>
			<point x="395" y="608"/>
			<point x="327" y="562"/>
			<point x="265" y="562" type="curve" smooth="yes"/>
			<point x="203" y="562"/>
			<point x="135" y="608"/>
			<point x="132" y="694" type="curve"/>
			<point x="104" y="694" type="line"/>
			<point x="106" y="587"/>
			<point x="182" y="518"/>
			<point x="265" y="518" type="curve" smooth="yes"/>
			<point x="348" y="518"/>
			<point x="424" y="588"/>
			<point x="426" y="694" type="curve"/>
		</contour>
	</outline>
</glyph>
<glyph name="dotaccent" format="2">
	<unicode hex="02D9"/>
	<advance width="590"/>
	<outline>
		<contour>
			<point x="404" y="1232" type="curve" smooth="yes"/>
			<point x="404" y="1298"/>
			<point x="352" y="1344"/>
			<point x="294" y="1344" type="curve" smooth="yes"/>
			<point x="236" y="1344"/>
			<point x="184" y="1298"/>
			<point x="184" y="1232" type="curve" smooth="yes"/>
			<point x="184" y="1174"/>
			<point x="230" y="1122"/>
			<point x="294" y="1122" type="curve" smooth="yes"/>
			<point x="356" y="1122"/>
			<point x="404" y="1174"/>
		</contour>
	</outline>
</glyph>
<glyph name="ring" format="2">
	<unicode hex="02DA"/>
	<advance width="795"/>
	<outline>
		<contour>
			<point x="502" y="627" type="curve" smooth="yes"/>
			<point x="502" y="677"/>
			<point x="454" y="715"/>
			<point x="398" y="715" type="curve" smooth="yes"/>
			<point x="336" y="715"/>
			<point x="293" y="673"/>
			<point x="293" y="628" type="curve" smooth="yes"/>
			<point x="293" y="578"/>
			<point x="341" y="540"/>
			<point x="397" y="540" type="curve" smooth="yes"/>
			<point x="459" y="540"/>
			<point x="502" y="582"/>
		</contour>
		<contour>
			<point x="398" y="568" type="curve" smooth="yes"/>
			<point x="376" y="568"/>
			<point x="324" y="568"/>
			<point x="324" y="627" type="curve" smooth="yes"/>
			<point x="324" y="683"/>
			<point x="368" y="687"/>
			<point x="397" y="687" type="curve" smooth="yes"/>
			<point x="419" y="687"/>
			<point x="471" y="687"/>
			<point x="471" y="628" type="curve" smooth="yes"/>
			<point x="471" y="572"/>
			<point x="427" y="568"/>
		</contour>
	</outline>
</glyph>
<glyph name="tilde" format="2">
	<unicode hex="02DC"/>
	<advance width="1062"/>
	<outline>
		<contour>
			<point x="218" y="1144" type="line"/>
			<point x="300" y="1234"/>
			<point x="362" y="1234"/>
			<point x="384" y="1234" type="curve" smooth="yes"/>
			<point x="430" y="1234"/>
			<point x="472" y="1214"/>
			<point x="520" y="1188" type="curve" smooth="yes"/>
			<point x="574" y="1162"/>
			<point x="610" y="1144"/>
			<point x="656" y="1144" type="curve" smooth="yes"/>
			<point x="711" y="1144"/>
			<point x="746" y="1165"/>
			<point x="800" y="1217" type="curve" smooth="yes"/>
			<point x="823" y="1240"/>
			<point x="850" y="1268"/>
			<point x="882" y="1304" type="curve"/>
			<point x="842" y="1342" type="line"/>
			<point x="760" y="1252"/>
			<point x="698" y="1252"/>
			<point x="676" y="1252" type="curve" smooth="yes"/>
			<point x="630" y="1252"/>
			<point x="588" y="1272"/>
			<point x="540" y="1298" type="curve" smooth="yes"/>
			<point x="486" y="1324"/>
			<point x="450" y="1342"/>
			<point x="404" y="1342" type="curve" smooth="yes"/>
			<point x="354" y="1342"/>
			<point x="319" y="1324"/>
			<point x="272" y="1280" type="curve" smooth="yes"/>
			<point x="246" y="1256"/>
			<point x="216" y="1224"/>
			<point x="178" y="1182" type="curve"/>
		</contour>
	</outline>
</glyph>
<glyph name="hungarumlaut" format="2">
	<unicode hex="02DD"/>
	<advance width="531"/>
	<outline>
		<contour>
			<point x="134" y="527" type="line"/>
			<point x="160" y="511" type="line"/>
			<point x="191.302" y="550.96"/>
			<point x="222.604" y="590.92"/>
			<point x="254" y="631" type="curve" smooth="yes"/>
			<point x="262" y="642"/>
			<point x="268" y="649"/>
			<point x="268" y="661" type="curve" smooth="yes"/>
			<point x="268" y="686"/>
			<point x="244" y="700"/>
			<point x="227" y="700" type="curve" smooth="yes"/>
			<point x="203" y="700"/>
			<point x="194" y="679"/>
			<point x="190" y="668" type="curve" smooth="yes"/>
		</contour>
		<contour>
			<point x="311" y="527" type="line"/>
			<point x="319.658" y="521.672"/>
			<point x="328.316" y="516.344"/>
			<point x="337" y="511" type="curve"/>
			<point x="368.302" y="550.96"/>
			<point x="399.604" y="590.92"/>
			<point x="431" y="631" type="curve" smooth="yes"/>
			<point x="439" y="642"/>
			<point x="445" y="649"/>
			<point x="445" y="661" type="curve" smooth="yes"/>
			<point x="445" y="686"/>
			<point x="421" y="700"/>
			<point x="404" y="700" type="curve" smooth="yes"/>
			<point x="380" y="700"/>
			<point x="371" y="679"/>
			<point x="367" y="668" type="curve" smooth="yes"/>
		</contour>
	</outline>
</glyph>
<glyph name="endash" format="2">
	<unicode hex="2013"/>
	<advance width="1062"/>
	<outline>
		<contour>
			<point x="1060" y="504" type="line"/>
			<point x="1060" y="560" type="line"/>
			<point x="0" y="560" type="line"/>
			<point x="0" y="504" type="line"/>
		</contour>
	</outline>
</glyph>
<glyph name="emdash" format="2">
	<unicode hex="2014"/>
	<advance width="1062"/>
	<outline>
		<contour>
			<point x="1062" y="252" type="line"/>
			<point x="1062" y="280" type="line"/>
			<point x="0" y="280" type="line"/>
			<point x="0" y="252" type="line"/>
		</contour>
	</outline>
</glyph>
<glyph name="quoteleft" format="2">
	<unicode hex="2018"/>
	<advance width="590"/>
	<outline>
		<contour>
			<point x="296" y="778" type="curve" smooth="yes"/>
			<point x="358" y="778"/>
			<point x="406" y="824"/>
			<point x="406" y="890" type="curve" smooth="yes"/>
			<point x="406" y="942"/>
			<point x="370" y="1000"/>
			<point x="294" y="1000" type="curve" smooth="yes"/>
			<point x="240" y="1000"/>
			<point x="222" y="978"/>
			<point x="210" y="966" type="curve"/>
			<point x="210" y="1162"/>
			<point x="282" y="1254"/>
			<point x="370" y="1338" type="curve" smooth="yes"/>
			<point x="380" y="1348"/>
			<point x="380" y="1354"/>
			<point x="380" y="1358" type="curve" smooth="yes"/>
			<point x="380" y="1376"/>
			<point x="362" y="1388"/>
			<point x="352" y="1388" type="curve" smooth="yes"/>
			<point x="324" y="1388"/>
			<point x="154" y="1230"/>
			<point x="154" y="994" type="curve" smooth="yes"/>
			<point x="154" y="876"/>
			<point x="202" y="778"/>
		</contour>
	</outline>
</glyph>
<glyph name="quoteright" format="2">
  <advance width="295"/>
  <unicode hex="2019"/>
  <outline>
    <contour>
      <point x="119" y="389" type="curve" smooth="yes"/>
      <point x="133" y="389"/>
      <point x="218" y="468"/>
      <point x="218" y="586" type="curve" smooth="yes"/>
      <point x="218" y="645"/>
      <point x="194" y="694"/>
      <point x="147" y="694" type="curve" smooth="yes"/>
      <point x="116" y="694"/>
      <point x="92" y="671"/>
      <point x="92" y="638" type="curve" smooth="yes"/>
      <point x="92" y="612"/>
      <point x="110" y="583"/>
      <point x="148" y="583" type="curve" smooth="yes"/>
      <point x="175" y="583"/>
      <point x="184" y="594"/>
      <point x="190" y="600" type="curve"/>
      <point x="190" y="502"/>
      <point x="154" y="456"/>
      <point x="110" y="414" type="curve" smooth="yes"/>
      <point x="105" y="409"/>
      <point x="105" y="406"/>
      <point x="105" y="404" type="curve" smooth="yes"/>
      <point x="105" y="395"/>
      <point x="114" y="389"/>
    </contour>
  </outline>
</glyph>
